<?xml version="1.0" encoding="UTF-8"?>
<svg version="1.1" xmlns="http://www.w3.org/2000/svg" width="629" height="629">
<path d="M0 0 C207.57 0 415.14 0 629 0 C629 207.57 629 415.14 629 629 C421.43 629 213.86 629 0 629 C0 421.43 0 213.86 0 0 Z " fill="#FDFEFE" transform="translate(0,0)"/>
<path d="M0 0 C6.93 0 13.86 0 21 0 C21.06058594 1.62550781 21.12117187 3.25101562 21.18359375 4.92578125 C21.26800009 7.05469659 21.35264804 9.18360237 21.4375 11.3125 C21.47681641 12.38435547 21.51613281 13.45621094 21.55664062 14.56054688 C21.61948242 16.10258789 21.61948242 16.10258789 21.68359375 17.67578125 C21.72025146 18.62364502 21.75690918 19.57150879 21.79467773 20.5480957 C21.91430187 23.136171 21.91430187 23.136171 23 26 C30.59 26 38.18 26 46 26 C46 34.58 46 43.16 46 52 C38.08 52.33 30.16 52.66 22 53 C21.8453125 57.7953125 21.8453125 57.7953125 21.6875 62.6875 C21.64197998 63.68612061 21.59645996 64.68474121 21.54956055 65.71362305 C21.48081171 70.11576607 21.45725962 72.2929966 24.20703125 75.875 C25.12871094 76.57625 26.05039062 77.2775 27 78 C27.825 78.71800781 28.65 79.43601562 29.5 80.17578125 C30.7375 81.23345703 30.7375 81.23345703 32 82.3125 C40.24377193 89.74781881 44.13729827 97.64479283 45.28515625 108.76171875 C45.66302992 120.27865097 42.32241722 129.16585793 35 138 C33.86884766 138.97646484 33.86884766 138.97646484 32.71484375 139.97265625 C30.73467478 141.86861773 30.73467478 141.86861773 31.01171875 144.4453125 C32.19573067 147.50595991 33.6023374 149.44581228 35.8125 151.875 C36.49957031 152.67679688 37.18664062 153.47859375 37.89453125 154.3046875 C44.80600734 158.07774489 54.30275522 154.91602001 61.54747009 152.88450623 C62.53340652 152.59390823 63.51934296 152.30331024 64.53515625 152.00390625 C66.13920067 151.54281212 66.13920067 151.54281212 67.77565002 151.07240295 C81.61438623 147.03414153 95.26369452 142.38831876 108.91333008 137.75854492 C153.37221933 122.71587552 153.37221933 122.71587552 175.0625 123.5625 C176.9197168 123.59053711 176.9197168 123.59053711 178.81445312 123.61914062 C188.2737086 123.80600259 197.25510558 124.06556595 206 128 C206.92941406 128.4125 207.85882812 128.825 208.81640625 129.25 C225.15169391 136.92737658 237.53423077 149.18710551 243.75 166.1875 C249.76600824 183.4549667 248.80130605 203.77674535 243 221 C242.69964844 222.02351562 242.39929688 223.04703125 242.08984375 224.1015625 C239.5504958 232.43414149 235.82560695 240.19980319 232 248 C231.40590332 249.21888916 231.40590332 249.21888916 230.79980469 250.46240234 C225.7285217 260.83971402 220.46287473 271.07869678 214.875 281.1875 C200.16626304 307.91069412 191.91750784 331.31987454 190 362 C72.19 362 -45.62 362 -167 362 C-167.33 358.04 -167.66 354.08 -168 350 C-168.69805358 346.64662487 -168.69805358 346.64662487 -169.48046875 343.3125 C-170.06315104 340.71890667 -170.39565973 338.13428728 -170.75 335.5 C-172.69594817 323.50254 -177.66984031 311.8560597 -183 301 C-183.53882813 299.89527344 -184.07765625 298.79054688 -184.6328125 297.65234375 C-188.79354073 289.20205484 -193.14673017 280.85224002 -197.5 272.5 C-199.17023954 269.28735876 -200.83992975 266.07443292 -202.50927734 262.86132812 C-203.77617806 260.4296091 -205.05270463 258.00331305 -206.33203125 255.578125 C-219.76858765 229.80436681 -231.22802503 198.29139399 -223.375 169.0625 C-216.90350997 150.77546721 -204.1757046 137.64028119 -187 129 C-160.43136284 118.33399331 -130.10666187 123.81479075 -103.90258789 132.7121582 C-98.11603309 134.66145473 -92.28720854 136.43822045 -86.4375 138.1875 C-78.21539491 140.66113048 -70.06609107 143.29818256 -61.9375 146.0625 C-54.01058345 148.73761578 -46.05759176 151.24643812 -38 153.5 C-36.66569946 153.88297241 -36.66569946 153.88297241 -35.30444336 154.27368164 C-30.04376352 155.70512153 -25.4536767 156.53776876 -20 156 C-17.523121 154.71691306 -17.523121 154.71691306 -15.6875 152.75 C-15.05199219 152.14671875 -14.41648437 151.5434375 -13.76171875 150.921875 C-11.16948758 148.12151265 -11.16948758 148.12151265 -9 145 C-9.1845353 141.47332546 -10.93057717 139.71863094 -13.3125 137.25 C-20.93642408 128.82931336 -23.4656946 119.55449338 -23.24609375 108.27734375 C-22.39532847 96.94731094 -16.92046781 88.56016354 -9.00390625 80.703125 C-7 79 -7 79 -5.23364258 78.08325195 C-3.09327626 76.88561121 -1.60138739 75.86868583 0 74 C0.87184854 70.19165682 0.66172761 66.56853684 0.4375 62.6875 C0.2209375 57.3971875 0.2209375 57.3971875 0 52 C-7.59 51.67 -15.18 51.34 -23 51 C-23 42.75 -23 34.5 -23 26 C-12.5625 25.5625 -12.5625 25.5625 -9.26782227 25.43188477 C-7.99249634 25.3747229 -7.99249634 25.3747229 -6.69140625 25.31640625 C-5.81685791 25.27974854 -4.94230957 25.24309082 -4.04125977 25.20532227 C-2.0072598 25.21818934 -2.0072598 25.21818934 -1 24 C-0.84235595 22.22130274 -0.74899323 20.43681524 -0.68359375 18.65234375 C-0.64169922 17.57275391 -0.59980469 16.49316406 -0.55664062 15.38085938 C-0.51732422 14.24455078 -0.47800781 13.10824219 -0.4375 11.9375 C-0.39431641 10.79732422 -0.35113281 9.65714844 -0.30664062 8.48242188 C-0.20017262 5.65510492 -0.09954738 2.82756908 0 0 Z " fill="#020202" transform="translate(305,108)"/>
<path d="M0 0 C1.0945752 -0.00563965 2.18915039 -0.0112793 3.31689453 -0.01708984 C16.02277696 0.09776339 26.07157898 2.748808 35.8046875 11.421875 C47.90933679 24.30304897 48.11183522 37.40003867 47.62109375 54.22265625 C45.24943133 94.13723012 13.85889012 137.17042884 -10.5625 167.3125 C-11.10261719 168.00859375 -11.64273438 168.7046875 -12.19921875 169.421875 C-18.94527525 177.84961321 -29.20807306 187.03767633 -40.19921875 188.71484375 C-45.32217327 188.9062845 -49.29510792 188.3606372 -53.5625 185.3125 C-57.2655792 180.76319612 -58.18676113 177.17683924 -58 171.4375 C-57.98751221 170.73149658 -57.97502441 170.02549316 -57.9621582 169.2980957 C-57.7598284 163.31728209 -56.93565381 158.57083585 -53.3581543 153.65893555 C-50.70639845 151.67056933 -48.42661686 151.77509511 -45.14453125 151.58203125 C-43.26411133 151.46118164 -43.26411133 151.46118164 -41.34570312 151.33789062 C-40.03537109 151.26763672 -38.72503906 151.19738281 -37.375 151.125 C-36.03963518 151.04359308 -34.70434659 150.96092525 -33.36914062 150.87695312 C-30.10079912 150.67636899 -26.83222915 150.48875463 -23.5625 150.3125 C-21.73834031 145.15310674 -20.1867074 140.18219571 -19.375 134.75 C-19.21644531 133.71746094 -19.05789063 132.68492187 -18.89453125 131.62109375 C-18.78496094 130.85925781 -18.67539062 130.09742188 -18.5625 129.3125 C-19.3153125 129.3846875 -20.068125 129.456875 -20.84375 129.53125 C-29.77539373 130.31168489 -38.60774877 130.41595669 -47.5625 130.3125 C-48.03369012 123.36244573 -46.77777143 118.00894193 -44.53515625 111.42578125 C-43.58634096 108.38881021 -43.01057305 105.45844443 -42.5625 102.3125 C-45.8152132 102.5329318 -49.06343111 102.79398191 -52.3125 103.0625 C-53.23289062 103.124375 -54.15328125 103.18625 -55.1015625 103.25 C-58.90697173 103.58090515 -61.77959855 103.83959835 -65.078125 105.83203125 C-67.24719618 109.45666336 -67.84617231 113.12116678 -68.5625 117.25 C-70.48878748 128.29939902 -70.48878748 128.29939902 -74.5625 131.3125 C-78.66401255 131.91394617 -82.67893547 131.78084785 -86.8125 131.625 C-87.93914062 131.60244141 -89.06578125 131.57988281 -90.2265625 131.55664062 C-93.00655232 131.49774254 -95.78385332 131.41554201 -98.5625 131.3125 C-99.21131448 133.85343855 -99.85662899 136.39518273 -100.5 138.9375 C-100.68240234 139.65035156 -100.86480469 140.36320313 -101.05273438 141.09765625 C-101.31860352 142.15146484 -101.31860352 142.15146484 -101.58984375 143.2265625 C-101.75218506 143.8654541 -101.91452637 144.5043457 -102.08178711 145.16259766 C-102.68428637 147.85716772 -103.10857677 150.58896059 -103.5625 153.3125 C-95.3125 153.3125 -87.0625 153.3125 -78.5625 153.3125 C-77.21554848 161.39420912 -79.64292489 165.82471722 -84.25 172.375 C-90.77200065 180.56427901 -98.15546851 186.8316284 -108.69140625 188.6875 C-114.93603199 189.07855288 -119.55148903 186.58373672 -124.375 182.9453125 C-135.73282433 172.75369335 -140.8208513 155.88742434 -141.77124023 141.0546875 C-141.86601281 137.57550313 -141.89115599 134.10542781 -141.875 130.625 C-141.87081055 129.39128662 -141.86662109 128.15757324 -141.86230469 126.88647461 C-141.68899285 112.86019999 -138.92828902 100.6387189 -134.5625 87.3125 C-134.05801436 85.58463669 -133.55771024 83.85554448 -133.0625 82.125 C-131.24424666 76.04460441 -128.79030869 70.23734362 -126.3359375 64.390625 C-123.49944936 57.39511438 -121.50772248 50.55178355 -120.16992188 43.13647461 C-119.14815116 38.08999658 -117.53934479 35.54919347 -113.5625 32.3125 C-108.26733201 28.87700284 -102.20632484 26.72577241 -96.31640625 24.52734375 C-95.6230719 24.2682019 -94.92973755 24.00906006 -94.21539307 23.74206543 C-86.14211953 20.75112808 -77.98564574 18.01602191 -69.8125 15.3125 C-69.02635315 15.05203888 -68.2402063 14.79157776 -67.43023682 14.52322388 C-62.14500143 12.77396848 -56.85515255 11.03916833 -51.5625 9.3125 C-50.47098633 8.95526855 -49.37947266 8.59803711 -48.25488281 8.22998047 C-32.11468935 2.99509819 -17.02317034 0.08357567 0 0 Z " fill="#FDFDFD" transform="translate(478.5625,254.6875)"/>
<path d="M0 0 C0.78036621 0.2151123 1.56073242 0.43022461 2.36474609 0.65185547 C9.29594311 2.60436134 16.149794 4.78227317 23 7 C23.65615295 7.2117688 24.31230591 7.4235376 24.98834229 7.64172363 C29.35026747 9.05035609 33.70802473 10.47115171 38.0617981 11.90478516 C39.50078161 12.37840566 40.94028284 12.8504566 42.38034058 13.32080078 C50.00736748 15.81818043 57.44097692 18.47491872 64.70751953 21.91503906 C67.5303122 23.25098056 70.41048729 24.41052538 73.3125 25.5625 C83.53186131 29.82497972 83.53186131 29.82497972 86.6875 34.5 C87.76889102 37.38370939 88.50124107 40.01477366 89.1875 43 C91.70294403 53.67400058 95.96329768 63.8653073 99.79199219 74.12158203 C106.37219511 91.81103968 110.36841828 108.67807582 110.25 127.625 C110.25773438 128.87023437 110.26546875 130.11546875 110.2734375 131.3984375 C110.23952198 147.47439519 106.42308933 165.02042902 95.015625 177.1015625 C88.44943281 183.10000123 83.17068598 184.51721597 74.296875 184.38671875 C69.35360013 183.80687964 65.97389505 181.88630272 62 179 C61.113125 178.401875 60.22625 177.80375 59.3125 177.1875 C51.75192209 170.03560198 46.55130608 161.4748155 46 151 C47 150 47 150 49.40844727 149.88647461 C50.97163696 149.89432983 50.97163696 149.89432983 52.56640625 149.90234375 C53.69111328 149.90556641 54.81582031 149.90878906 55.97460938 149.91210938 C57.15861328 149.92048828 58.34261719 149.92886719 59.5625 149.9375 C60.75037109 149.94201172 61.93824219 149.94652344 63.16210938 149.95117188 C66.10812226 149.96300325 69.05403681 149.97948713 72 150 C71.19319211 146.68608659 70.37860554 143.37413488 69.5625 140.0625 C69.21735352 138.64420898 69.21735352 138.64420898 68.86523438 137.19726562 C68.64287109 136.29814453 68.42050781 135.39902344 68.19140625 134.47265625 C67.98717041 133.64000244 67.78293457 132.80734863 67.57250977 131.94946289 C67.17303358 130.01329716 67.17303358 130.01329716 66 129 C64.22130274 128.84235595 62.43681524 128.74899323 60.65234375 128.68359375 C59.57275391 128.64169922 58.49316406 128.59980469 57.38085938 128.55664062 C56.24455078 128.51732422 55.10824219 128.47800781 53.9375 128.4375 C52.79732422 128.39431641 51.65714844 128.35113281 50.48242188 128.30664062 C47.65507805 128.20017161 44.82764262 128.09815793 42 128 C39.31426067 123.18709391 38.05511439 118.64301474 36.9375 113.3125 C35.7309165 107.37567091 35.7309165 107.37567091 33 102 C30.69182412 101.30798245 30.69182412 101.30798245 27.9921875 101.05078125 C27.00605469 100.92509766 26.01992187 100.79941406 25.00390625 100.66992188 C23.97136719 100.55197266 22.93882812 100.43402344 21.875 100.3125 C20.31458984 100.11817383 20.31458984 100.11817383 18.72265625 99.91992188 C16.14965897 99.6012479 13.57578289 99.29516156 11 99 C11.15146484 99.59949463 11.30292969 100.19898926 11.45898438 100.81665039 C12.14781179 103.56321725 12.82398257 106.31275342 13.5 109.0625 C13.85771484 110.47692383 13.85771484 110.47692383 14.22265625 111.91992188 C15.48337747 117.08887886 16.29518184 121.67934731 16 127 C5.95415947 127.15723924 -3.9811352 126.67192387 -14 126 C-13.37942343 128.56364399 -12.75370801 131.12584926 -12.125 133.6875 C-11.95097656 134.40873047 -11.77695313 135.12996094 -11.59765625 135.87304688 C-11.42363281 136.57880859 -11.24960938 137.28457031 -11.0703125 138.01171875 C-10.91320801 138.65584717 -10.75610352 139.29997559 -10.59423828 139.96362305 C-9.88852164 142.38202177 -8.96426452 144.67410921 -8 147 C-7.20827393 147.03440186 -6.41654785 147.06880371 -5.60083008 147.10424805 C-2.00308975 147.27431346 1.59170311 147.48050813 5.1875 147.6875 C6.43337891 147.74099609 7.67925781 147.79449219 8.96289062 147.84960938 C18.11505695 148.41395207 18.11505695 148.41395207 22.23828125 151.14453125 C25.6871265 156.73456645 26.30852571 162.08125687 26.375 168.5625 C26.40335937 169.82191406 26.43171875 171.08132813 26.4609375 172.37890625 C25.81573724 177.44755579 23.66616475 180.52985464 19.875 183.875 C13.95720861 186.1906575 7.09347977 185.8136458 1.25390625 183.2890625 C-24.81906208 168.37731285 -40.9045468 138.59024061 -54.89111328 113.02539062 C-55.63017841 111.67548214 -56.37334725 110.32781228 -57.12060547 108.98242188 C-71.3692597 83.29157286 -85.02932961 54.0362197 -77.62231445 23.99389648 C-74.4203761 13.73488099 -66.28723297 6.11402148 -57.0625 1.1875 C-40.85215928 -6.95937793 -16.94346644 -4.70629744 0 0 Z " fill="#FDFDFD" transform="translate(185,258)"/>
<path d="M0 0 C120.12 0 240.24 0 364 0 C364 10.23 364 20.46 364 31 C243.88 31 123.76 31 0 31 C0 20.77 0 10.54 0 0 Z " fill="#040404" transform="translate(134,494)"/>
</svg>
