<?xml version="1.0" encoding="UTF-8"?>
<svg version="1.1" xmlns="http://www.w3.org/2000/svg" width="1024" height="1024">
<path d="M0 0 C337.92 0 675.84 0 1024 0 C1024 337.92 1024 675.84 1024 1024 C686.08 1024 348.16 1024 0 1024 C0 686.08 0 348.16 0 0 Z " fill="#FDFEFE" transform="translate(0,0)"/>
<path d="M0 0 C-0.2165625 0.680625 -0.433125 1.36125 -0.65625 2.0625 C-4.55740144 15.64428651 -4.92689079 30.69718255 1.81640625 43.4296875 C15.79771794 67.01910171 38.00682796 79.24416999 61.93701172 90.98242188 C64.04846624 92.02390619 66.15208383 93.07984721 68.25390625 94.140625 C74.47133502 97.27742367 80.67900609 100.3900233 87.078125 103.14453125 C89.01238817 104.00551425 90.87395662 104.95684096 92.75 105.9375 C97.23874065 108.22675773 101.92975141 109.92476042 106.65625 111.65625 C109.76734846 112.90650452 112.68669424 114.31842162 115.66894531 115.83935547 C119.448849 117.72138963 123.29704598 119.45296201 127.13549805 121.21166992 C174.70398373 143.03399978 224.33271552 167.58295995 257 210 C257.39687012 210.5151416 257.79374023 211.0302832 258.20263672 211.56103516 C287.36406191 249.81443981 297.47078314 297.35517912 291.8125 344.75 C285.21638361 393.22786628 256.29439949 438.81229216 217.63671875 468.2734375 C216.42591828 469.18420802 215.21369228 470.09308669 214 471 C213.4220166 471.43344727 212.8440332 471.86689453 212.24853516 472.31347656 C203.51232582 478.82184149 194.43021041 484.55453681 185 490 C184.07445312 490.54011719 183.14890625 491.08023437 182.1953125 491.63671875 C178.76596174 493.59875714 175.85222689 495.0901901 172 496 C173.42377803 491.1767555 174.86068224 486.36440093 176.46484375 481.59765625 C185.62471351 453.83620484 188.87832331 421.8179644 183 393 C182.81695313 392.09008301 182.63390625 391.18016602 182.4453125 390.24267578 C173.87659882 348.92640123 153.25919689 311.52600988 121 284 C120.30132813 283.40316406 119.60265625 282.80632812 118.8828125 282.19140625 C93.05005053 261.23369858 61.83818843 247.2596471 31.6184082 233.95117188 C-4.27361402 218.1329957 -33.00673282 196.31589563 -47.7578125 158.6640625 C-57.3986613 132.71857723 -61.62526414 103.07688133 -54 76 C-53.80132324 75.29407715 -53.60264648 74.5881543 -53.39794922 73.86083984 C-47.69584795 54.13199656 -24.22220165 0 0 0 Z " fill="#000000" transform="translate(450,353)"/>
<path d="M0 0 C10.40549493 8.0724885 20.79985359 16.63377719 29 27 C29.39654785 27.50063965 29.7930957 28.0012793 30.20166016 28.51708984 C41.92368926 43.47907215 61 69.25643854 61 89 C56.99367401 87.14936211 53.34150089 84.73633722 49.625 82.375 C42.19632303 77.69661857 34.66854203 73.27412366 27 69 C25.89785156 68.36964844 24.79570313 67.73929687 23.66015625 67.08984375 C16.61365303 63.1434668 9.7195914 60.32795644 2 58 C0.60306487 57.5030866 -0.79283742 57.00325636 -2.1875 56.5 C-33.022663 46.18382414 -69.34814828 46.05000412 -99 60 C-99.60618164 60.28327148 -100.21236328 60.56654297 -100.83691406 60.85839844 C-134.77257484 76.99700748 -159.79785212 106.76367412 -172.3984375 141.82421875 C-185.47155143 179.94281986 -181.70511122 219.34396541 -164.39672852 255.36352539 C-161.34253616 261.53177099 -157.8734761 267.30993089 -154 273 C-153.01374396 274.55803486 -152.03391767 276.12017064 -151.0625 277.6875 C-150.381875 278.780625 -149.70125 279.87375 -149 281 C-153.82037899 279.57613421 -158.03698615 277.49259902 -162.375 275 C-163.06762939 274.60482178 -163.76025879 274.20964355 -164.47387695 273.80249023 C-176.95016656 266.62710977 -188.78979932 259.03768117 -200 250 C-200.95648438 249.236875 -201.91296875 248.47375 -202.8984375 247.6875 C-209.12414735 242.66507861 -215.14693191 237.45204221 -221 232 C-221.73863281 231.31550781 -222.47726562 230.63101562 -223.23828125 229.92578125 C-229.89744964 223.52682903 -235.46545939 216.36543362 -241 209 C-241.9590625 207.73349609 -241.9590625 207.73349609 -242.9375 206.44140625 C-264.13330615 177.34623716 -274.97787856 141.84951445 -269.69140625 106.00390625 C-268.57955103 99.21844111 -266.88861139 92.60597259 -265 86 C-264.66355469 84.79988281 -264.32710938 83.59976563 -263.98046875 82.36328125 C-256.69582582 58.55305258 -242.83950611 37.15500355 -226 19 C-224.66001953 17.55367188 -224.66001953 17.55367188 -223.29296875 16.078125 C-164.80242353 -44.55336258 -66.51947785 -50.69912916 0 0 Z " fill="#010101" transform="translate(561,272)"/>
<path d="M0 0 C1.32359024 0.00515121 1.32359024 0.00515121 2.67391968 0.01040649 C26.24277928 0.11776896 48.51114095 2.55383847 71.625 7.25 C73.13657005 7.54633243 74.64826803 7.8420139 76.16015625 8.13671875 C81.41584261 9.19909813 86.44061791 10.33912925 91.40234375 12.3828125 C94.43255094 13.5650726 97.52641871 14.51129732 100.625 15.5 C108.1992104 17.96551104 115.42973423 21.07064345 122.67358398 24.36914062 C123.99674035 24.96640675 125.32459749 25.55334668 126.65649414 26.13085938 C146.28887099 34.66531974 164.90515395 45.27988398 182.625 57.25 C183.40053223 57.77335937 184.17606445 58.29671875 184.97509766 58.8359375 C195.25242557 65.82496395 205.02149137 73.36589685 214.625 81.25 C213.29616216 84.09201859 211.79828895 86.48221169 209.859375 88.9453125 C209.30628662 89.65179932 208.75319824 90.35828613 208.18334961 91.08618164 C207.28821655 92.21914673 207.28821655 92.21914673 206.375 93.375 C205.10019342 95.00124957 203.82545575 96.62755315 202.55078125 98.25390625 C201.89803223 99.08422363 201.2452832 99.91454102 200.57275391 100.77001953 C197.55793229 104.6086455 194.55931705 108.45981088 191.5625 112.3125 C190.98338867 113.0564502 190.40427734 113.80040039 189.80761719 114.56689453 C185.3465099 120.30456099 180.92757341 126.07354256 176.52148438 131.85351562 C172.56863613 137.03294465 168.57229515 142.17708078 164.5625 147.3125 C159.60097876 153.67056207 154.71841025 160.08125976 149.89575195 166.54516602 C145.92318747 171.8671052 141.88710329 177.13650492 137.8203125 182.38671875 C135.40915981 185.53151398 133.07374336 188.72488218 130.78125 191.95703125 C130.3996875 192.38371094 130.018125 192.81039062 129.625 193.25 C128.965 193.25 128.305 193.25 127.625 193.25 C127.33367187 192.0640625 127.04234375 190.878125 126.7421875 189.65625 C119.78164426 161.91215348 108.51547632 136.0554396 89.625 114.25 C88.93019531 113.445625 88.23539063 112.64125 87.51953125 111.8125 C55.3344604 75.35507462 10.42627983 51.26718457 -38.58447266 48.03857422 C-59.97771118 47.14115826 -81.78380361 49.22100353 -102.375 55.25 C-103.13135742 55.47107422 -103.88771484 55.69214844 -104.66699219 55.91992188 C-152.18899221 70.26398569 -188.15928074 103.79955238 -212.375 146.25 C-213.3921415 148.24133703 -214.39840803 150.23846623 -215.375 152.25 C-216.79016105 148.00451684 -215.19174331 145.02209127 -213.6875 141 C-213.2219873 139.75319458 -213.2219873 139.75319458 -212.74707031 138.48120117 C-192.00656883 85.00372607 -148.76083447 45.02899789 -97.375 21.25 C-94.07838326 19.80104456 -90.75079123 18.50175325 -87.375 17.25 C-85.54001953 16.54230469 -85.54001953 16.54230469 -83.66796875 15.8203125 C-67.16508714 9.47550369 -50.79292149 5.33028876 -33.375 2.25 C-32.3118457 2.05728516 -31.24869141 1.86457031 -30.15332031 1.66601562 C-20.08718125 0.01813617 -10.1686245 -0.06465717 0 0 Z " fill="#010101" transform="translate(509.375,177.75)"/>
<path d="M0 0 C20.54114176 20.05372484 30.84113151 51.19667707 35 79 C35.15142456 80.01090698 35.15142456 80.01090698 35.3059082 81.04223633 C39.00796156 109.52646569 35.55099569 139.49976953 25.89160156 166.43896484 C25.05423996 168.8442012 24.34869649 171.25925559 23.6484375 173.70703125 C21.77261079 179.34655217 19.80091086 183.50359423 14.39160156 186.39355469 C7.13928031 189.3872048 -0.37356718 191.2369851 -8 193 C-10.09847983 193.53060758 -12.19616225 194.06438049 -14.29296875 194.6015625 C-34.95449732 199.75764374 -55.82676086 201.37805162 -77.0625 201.25 C-77.99954773 201.24656586 -78.93659546 201.24313171 -79.90203857 201.23959351 C-103.82044581 201.13720002 -126.63959503 199.46748939 -150 194 C-150.97565918 193.77296387 -151.95131836 193.54592773 -152.95654297 193.31201172 C-171.78869211 188.84769759 -190.31236106 182.89535187 -208 175 C-208.60956543 174.73936768 -209.21913086 174.47873535 -209.84716797 174.21020508 C-216.84884211 171.17966552 -223.60361554 167.69705902 -230.375 164.1875 C-232.1075 163.30094727 -232.1075 163.30094727 -233.875 162.39648438 C-241.17738598 158.61754084 -248.14344177 154.53443324 -255 150 C-256.13864502 149.25882935 -256.13864502 149.25882935 -257.30029297 148.50268555 C-265.49151842 143.15998484 -273.58688096 137.68508671 -281.5 131.9375 C-282.12874023 131.4847168 -282.75748047 131.03193359 -283.40527344 130.56542969 C-286.18334878 128.52177024 -288.06644482 126.90033277 -290 124 C-286.54370133 125.27507648 -283.39618231 126.85120408 -280.19262695 128.66503906 C-271.51035402 133.54903625 -262.52964495 137.02978615 -253.12548828 140.265625 C-251.29462353 140.89820496 -249.47253709 141.55608918 -247.65234375 142.21875 C-230.20678066 148.41744267 -211.36178635 150.44095806 -192.9375 150.4375 C-191.85023117 150.43959976 -191.85023117 150.43959976 -190.74099731 150.44174194 C-169.3235999 150.4081975 -148.3020124 146.86652054 -128 140 C-126.97003906 139.69578125 -125.94007813 139.3915625 -124.87890625 139.078125 C-116.07743155 136.41313665 -108.08739339 132.30961731 -100 128 C-99.3076123 127.63181152 -98.61522461 127.26362305 -97.90185547 126.88427734 C-89.12613771 122.17810167 -80.84880281 117.16691649 -73 111 C-72.11054687 110.30261719 -71.22109375 109.60523438 -70.3046875 108.88671875 C-47.80662099 90.8433976 -30.44129433 70.3303083 -16.96801758 44.79248047 C-16.14007026 43.25936844 -15.24974818 41.76022216 -14.34765625 40.26953125 C-10.37871455 33.58560335 -8.29821571 25.93811659 -6.08203125 18.5390625 C-4.18012817 12.31839754 -2.07990372 6.16299339 0 0 Z " fill="#010101" transform="translate(587,673)"/>
<path d="M0 0 C3.20914718 1.36098772 5.66027035 3.29154531 8.31225586 5.52807617 C27.44947305 21.62213147 49.91814127 36.34231852 73 46 C74.07894531 46.46921875 75.15789062 46.9384375 76.26953125 47.421875 C86.91515192 51.89695714 97.81988631 55.14002212 109 58 C109.6815918 58.18224121 110.36318359 58.36448242 111.06542969 58.55224609 C133.08942169 64.25397509 160.81272391 63.48592303 181.828125 54.8359375 C184 54 184 54 187 54 C185.42303089 58.78591788 182.75488893 62.40308142 179.75 66.375 C178.95916016 67.42240356 178.95916016 67.42240356 178.15234375 68.4909668 C161.74918263 89.82323942 141.70074011 107.41788333 117.90380859 119.99316406 C116.12160737 120.93568751 114.35132324 121.90064856 112.58203125 122.8671875 C87.68118755 136.00362322 60.58974436 141.38742258 32.63696289 141.31567383 C30.0680922 141.31250689 27.50037092 141.33611329 24.93164062 141.36132812 C10.57135283 141.41665086 -2.94053354 139.38091947 -16.8125 135.625 C-17.60889893 135.41149902 -18.40529785 135.19799805 -19.22583008 134.97802734 C-25.74468357 133.17557328 -31.84467 130.8015156 -38 128 C-39.23935839 127.47812945 -40.48035157 126.96013011 -41.72265625 126.4453125 C-55.33556921 120.75309506 -68.15985271 113.85164857 -80 105 C-77.1475548 99.67223577 -73.88118832 95.18042486 -70 90.5625 C-63.88499645 83.16577924 -58.10982179 75.56096013 -52.38916016 67.85791016 C-49.89173713 64.51777146 -47.33463199 61.22405568 -44.78173828 57.92626953 C-42.04583258 54.38294065 -39.36056414 50.80518936 -36.69165039 47.21118164 C-31.60409767 40.36639597 -26.36131451 33.68761843 -20.94848633 27.09741211 C-13.71522535 18.26159188 -6.83557379 9.14552631 0 0 Z " fill="#010101" transform="translate(365,670)"/>
<path d="M0 0 C3.79049707 1.42749981 7.27122456 3.16236542 10.8125 5.125 C12.27623047 5.93324219 12.27623047 5.93324219 13.76953125 6.7578125 C14.50558594 7.16773438 15.24164063 7.57765625 16 8 C15.34 9.32 14.68 10.64 14 12 C12.03713202 10.56836693 10.07978093 9.13010149 8.125 7.6875 C7.56941406 7.28337891 7.01382812 6.87925781 6.44140625 6.46289062 C3.7195934 4.44612569 1.89965896 2.84948844 0 0 Z " fill="#1A1C1C" transform="translate(297,797)"/>
<path d="M0 0 C0.33 0.66 0.66 1.32 1 2 C1.66 2.33 2.32 2.66 3 3 C1.02 6.63 -0.96 10.26 -3 14 C-4.25955231 10.22134307 -3.48087189 8.96588214 -2.0625 5.3125 C-1.68222656 4.31863281 -1.30195313 3.32476562 -0.91015625 2.30078125 C-0.60980469 1.54152344 -0.30945313 0.78226562 0 0 Z " fill="#383A39" transform="translate(297,316)"/>
<path d="M0 0 C3.45925163 1.2491742 6.14693203 2.67527795 9 5 C8.01 5.33 7.02 5.66 6 6 C2.8125 3.625 2.8125 3.625 0 1 C0 0.67 0 0.34 0 0 Z " fill="#4C4C4C" transform="translate(297,797)"/>
</svg>
