<?xml version="1.0" encoding="UTF-8"?>
<svg version="1.1" xmlns="http://www.w3.org/2000/svg" width="1024" height="1024">
<path d="M0 0 C0.38285156 0.85464844 0.76570313 1.70929688 1.16015625 2.58984375 C1.76730469 3.38519531 2.37445313 4.18054688 3 5 C5.75139757 5.36517405 7.89795281 5.42412534 10.625 5.25 C12.15738015 5.19545513 13.68995341 5.14612807 15.22265625 5.1015625 C16.01043457 5.07610352 16.79821289 5.05064453 17.60986328 5.02441406 C22.12467996 4.97829745 26.62201417 5.39146625 31.11376953 5.82128906 C35.47662414 6.16275787 38.88494058 5.63643129 43.02368164 4.47607422 C67.4280286 -1.4026752 99.44328718 7.96738657 121.80078125 17.62109375 C125.84665934 19.36492155 128.6259675 20.11122778 132.98828125 19.9921875 C162.63309195 19.42931135 192.39399245 22.63367674 215 44 C217.45126086 46.57982349 219.779879 49.21916585 222 52 C223.485 51.505 223.485 51.505 225 51 C227.33299825 50.96045766 229.66708189 50.95598268 232 51 C232 51.66 232 52.32 232 53 C232.90878906 52.96519531 233.81757812 52.93039063 234.75390625 52.89453125 C253.71055475 52.48623421 270.91576984 57.89624285 287.8984375 66.01953125 C290.11095284 67.10060818 290.11095284 67.10060818 293 68 C294.15239083 69.15239083 295.30073555 70.3091793 296.42578125 71.48828125 C298.2786197 73.26755787 300.25971708 74.76849632 302.3125 76.3125 C319.65662707 89.66518061 331.21152294 108.5173642 335 130 C335.4973863 134.00034622 335.84742645 137.97205828 336 142 C336.53367187 142.14695312 337.06734375 142.29390625 337.6171875 142.4453125 C347.42069335 145.3965409 356.52215096 150.99177433 364 158 C364 158.66 364 159.32 364 160 C364.66 160 365.32 160 366 160 C367.3980016 161.74167699 368.72020603 163.54470641 370 165.375 C372.78064768 169.37211214 372.78064768 169.37211214 376 173 C376.92351778 174.78826624 377.79270742 176.60499616 378.625 178.4375 C379.29402344 179.88962891 379.29402344 179.88962891 379.9765625 181.37109375 C381 184 381 184 381 187 C381.66 187.33 382.32 187.66 383 188 C383.165 188.99 383.33 189.98 383.5 191 C384.50279357 194.9469955 386.61573494 196.66618552 389.6875 199.25 C395.13686598 203.87489418 398.53734367 208.79385442 402 215 C402.46148438 215.76699219 402.92296875 216.53398437 403.3984375 217.32421875 C409.76207965 228.68235581 412.09135752 243.10031755 412 256 C411.67 256.99 411.34 257.98 411 259 C411.66 259 412.32 259 413 259 C413 260.65 413 262.3 413 264 C412.67 264 412.34 264 412 264 C411.03192003 267.13202343 410.54067874 268.82213777 411 272 C412.88741975 274.43133136 415.04444889 276.33530514 417.32421875 278.40234375 C439.15513027 299.59585639 446.88027729 332.51650175 447.39990234 361.84741211 C447.76041678 392.84946081 443.91002389 424.62802195 433.91796875 454.05078125 C432.85140267 456.9626119 432.85140267 456.9626119 433 460 C432.34 460 431.68 460 431 460 C430.84724609 461.01126953 430.84724609 461.01126953 430.69140625 462.04296875 C429.84509753 465.66249246 428.44893509 468.93334233 426.9375 472.3125 C426.62514404 473.0125415 426.31278809 473.71258301 425.9909668 474.43383789 C425.00340388 476.62697798 424.00313032 478.81394226 423 481 C422.69674805 481.67063477 422.39349609 482.34126953 422.08105469 483.03222656 C414.47779898 499.69678377 403.9682229 514.10216094 391 527 C390.11828125 527.88171875 389.2365625 528.7634375 388.328125 529.671875 C375.34211312 542.04316443 354.70973707 557 336 557 C335.896875 557.556875 335.79375 558.11375 335.6875 558.6875 C335 561 335 561 333.5625 563.375 C331.86672589 566.0057576 331.86672589 566.0057576 330.9375 569.25 C330 572 330 572 328 573 C327.75507812 573.81726563 327.51015625 574.63453125 327.2578125 575.4765625 C325.53018181 580.31607457 322.7857415 584.16765547 319.875 588.375 C319.33101562 589.18710937 318.78703125 589.99921875 318.2265625 590.8359375 C314.81242272 595.81356185 311.13682413 600.06718732 306.7824707 604.24365234 C304.84957198 606.07587449 304.84957198 606.07587449 302.86328125 608.703125 C285.21788931 630.45467733 251.64573692 640.50100233 225.0546875 643.62109375 C207.04254514 645.38090076 189.88490573 644.65140112 172 642 C172 642.33 172 642.66 172 643 C169.125 643.1875 169.125 643.1875 166 643 C165.34 642.01 164.68 641.02 164 640 C161.79997417 639.03644549 161.79997417 639.03644549 159.2109375 638.39453125 C158.26992188 638.13349609 157.32890625 637.87246094 156.359375 637.60351562 C155.37453125 637.34248047 154.3896875 637.08144531 153.375 636.8125 C152.38242187 636.53986328 151.38984375 636.26722656 150.3671875 635.98632812 C147.91402814 635.31406811 145.45848786 634.65245216 143 634 C143.24405604 638.08342634 143.49150666 642.1666342 143.74160767 646.24969482 C143.83045349 647.7068802 143.91848807 649.16411526 144.00570679 650.62139893 C144.46043035 658.20602369 144.9463773 665.77631664 145.68359375 673.33984375 C145.78881348 674.44980713 145.8940332 675.55977051 146.00244141 676.70336914 C146.20301099 678.75502226 146.41910537 680.80524242 146.65380859 682.85327148 C147.39645406 690.57105114 146.58090914 697.50818175 141.875 703.875 C133.22493929 710.26852313 122.74789338 711.85930896 112.4375 714 C110.77602344 714.35082515 109.11456525 714.70173729 107.453125 715.05273438 C60.42188333 724.91342912 60.42188333 724.91342912 51.4375 719.875 C45.25516799 715.19928671 43.42334754 709.73223852 41.80859375 702.390625 C41.15743133 699.66406835 41.15743133 699.66406835 38 698 C37.3125 694.375 37.3125 694.375 37 691 C37.66 691 38.32 691 39 691 C38.84853516 690.38479492 38.69707031 689.76958984 38.54101562 689.13574219 C37.85592703 686.34163469 37.17789551 683.54586095 36.5 680.75 C36.26152344 679.78191406 36.02304687 678.81382812 35.77734375 677.81640625 C35.55175781 676.88183594 35.32617188 675.94726562 35.09375 674.984375 C34.88427734 674.12553711 34.67480469 673.26669922 34.45898438 672.38183594 C34 670 34 670 34 666 C33.01 665.67 32.02 665.34 31 665 C28.91267846 661.24282123 29.03244506 659.08523197 30 655 C29.67 654.01 29.34 653.02 29 652 C27.33290494 645.05737899 27.33290494 645.05737899 26.54882812 641.62890625 C26.09395677 639.7367798 25.55305888 637.86579108 25 636 C24.34 635.67 23.68 635.34 23 635 C22.7265625 633.13671875 22.7265625 633.13671875 22.625 630.6875 C22.21263003 625.28778761 20.69557637 620.63169778 18.83984375 615.56640625 C18 613 18 613 18 610 C17.01 610.33 16.02 610.66 15 611 C15 609.68 15 608.36 15 607 C14.34 606.67 13.68 606.34 13 606 C13.23589844 605.35675781 13.47179687 604.71351563 13.71484375 604.05078125 C14.13659873 599.53858076 12.37520309 596.26010789 10.5625 592.1875 C10.22412109 591.39923828 9.88574219 590.61097656 9.53710938 589.79882812 C8.70316313 587.86078402 7.8531404 585.92967167 7 584 C6.34 584 5.68 584 5 584 C4.9175 583.175 4.835 582.35 4.75 581.5 C3.85485084 577.32263724 2.44439377 573.53172755 0 570 C-0.99 569.67 -1.98 569.34 -3 569 C-3.12375 568.05125 -3.2475 567.1025 -3.375 566.125 C-3.71687177 562.91332809 -3.71687177 562.91332809 -6 561 C-7.0209375 560.3503125 -7.0209375 560.3503125 -8.0625 559.6875 C-10.51538502 557.55111627 -10.4518508 556.13228117 -11 553 C-11.96686149 551.96792498 -12.9727159 550.9719503 -14 550 C-15.04592497 548.75356091 -16.08728327 547.50328107 -17.125 546.25 C-20.9039755 541.90819837 -25.09334188 538.04288875 -30 535 C-30.99 535 -31.98 535 -33 535 C-33 534.34 -33 533.68 -33 533 C-39.88575879 532.88630326 -46.58625663 533.34936642 -53.4375 534 C-77.71581016 536.09635322 -112.56983475 538.21508263 -135 527 C-135.33 527.66 -135.66 528.32 -136 529 C-136.99 529 -137.98 529 -139 529 C-139 527.68 -139 526.36 -139 525 C-140.24716797 524.85111328 -140.24716797 524.85111328 -141.51953125 524.69921875 C-145.50350593 523.89884673 -149.00555967 522.4738255 -152.6875 520.8125 C-153.38866943 520.50006348 -154.08983887 520.18762695 -154.81225586 519.86572266 C-162.18522338 516.53577762 -169.40493418 512.99734277 -175.9375 508.1875 C-178.68134645 505.91872956 -178.68134645 505.91872956 -181.12890625 505.55078125 C-181.74636719 505.36902344 -182.36382812 505.18726563 -183 505 C-183.33 504.01 -183.66 503.02 -184 502 C-184.66 502 -185.32 502 -186 502 C-187.4453125 500.53125 -187.4453125 500.53125 -189.125 498.5 C-191.63424297 495.53784388 -194.20937905 492.76082415 -197 490.0625 C-200.59720195 486.54228097 -203.59964432 482.75583851 -206.5546875 478.6875 C-207.03164063 478.130625 -207.50859375 477.57375 -208 477 C-208.66 477 -209.32 477 -210 477 C-210.33 477.66 -210.66 478.32 -211 479 C-210.76796875 478.15824219 -210.5359375 477.31648438 -210.296875 476.44921875 C-209.92646858 472.14568097 -211.29253555 469.50197179 -213.25 465.8125 C-218.10214966 456.04110922 -220.38723801 446.92406727 -221 436 C-221.95777344 435.95101563 -222.91554687 435.90203125 -223.90234375 435.8515625 C-232.12401123 435.39897451 -240.25594706 434.71226024 -248.41381836 433.57275391 C-251.9396687 433.10928166 -254.58565346 433.10576638 -258 434 C-258.66 433.34 -259.32 432.68 -260 432 C-261.31647119 431.30062468 -262.65022151 430.63270867 -264 430 C-264.66 429.67 -265.32 429.34 -266 429 C-266.33 429.66 -266.66 430.32 -267 431 C-267 430.01 -267 429.02 -267 428 C-267.97453125 427.9071875 -268.9490625 427.814375 -269.953125 427.71875 C-274.53650647 427.06332183 -278.52723861 425.33502196 -282.75 423.5 C-284.24449346 422.86388227 -285.7392737 422.22843776 -287.234375 421.59375 C-287.88631836 421.31208984 -288.53826172 421.03042969 -289.20996094 420.74023438 C-292.65151597 419.31704904 -295.30277409 418.90007498 -299 419 C-299 418.01 -299 417.02 -299 416 C-301.08211601 414.1071011 -301.08211601 414.1071011 -303.75 412.375 C-304.63171875 411.76398438 -305.5134375 411.15296875 -306.421875 410.5234375 C-308.84736348 408.91519113 -308.84736348 408.91519113 -311.265625 408.4765625 C-311.83796875 408.31929687 -312.4103125 408.16203125 -313 408 C-313.495 406.515 -313.495 406.515 -314 405 C-315.55705194 403.42159428 -315.55705194 403.42159428 -317.5 401.875 C-323.03925406 397.18257435 -328.07473125 392.0166834 -333.125 386.80859375 C-334.99212947 385.00759178 -336.62974499 384.01582358 -339 383 C-338.77699219 382.44828125 -338.55398438 381.8965625 -338.32421875 381.328125 C-337.86440282 378.02631422 -339.07079996 376.5399832 -340.8125 373.75 C-341.35519531 372.85796875 -341.89789063 371.9659375 -342.45703125 371.046875 C-342.96621094 370.37140625 -343.47539062 369.6959375 -344 369 C-344.66 369 -345.32 369 -346 369 C-346.82638376 366.10765685 -347 364.11257569 -347 361 C-347.60628272 358.41977354 -348.24930159 355.87036352 -348.9375 353.3125 C-350.44588466 347.53079603 -351.57299894 341.97801482 -352 336 C-352.99 335.67 -353.98 335.34 -355 335 C-355.09667969 334.11828125 -355.19335938 333.2365625 -355.29296875 332.328125 C-356.05783265 328.72777117 -357.21735186 326.74691426 -359.3125 323.75 C-363.04449618 318.12896871 -367 311.92951343 -367 305 C-367.66 304.67 -368.32 304.34 -369 304 C-369.79439097 274.75464366 -369.79439097 274.75464366 -361.890625 262.671875 C-359.82804241 256.48412722 -362.09512451 249.12758515 -363.15551758 242.82324219 C-367.73304568 215.2866784 -364.41038269 187.33324545 -348.26953125 163.95703125 C-339.82697208 152.16883546 -330.69407039 142.17134416 -318.23828125 134.55859375 C-317.13033203 133.78708984 -317.13033203 133.78708984 -316 133 C-316 132.34 -316 131.68 -316 131 C-315.27554688 130.86722656 -314.55109375 130.73445312 -313.8046875 130.59765625 C-308.8571698 129.54338019 -304.92266603 128.31110078 -301 125 C-299.26210643 121.80486648 -297.91647183 118.68120841 -296.61376953 115.29858398 C-293.84224707 108.18695118 -289.91137515 102.86904937 -285 97 C-284.41347656 96.26265625 -283.82695312 95.5253125 -283.22265625 94.765625 C-269.32321873 77.89007262 -249.59772725 69.77213919 -228.70703125 65.83203125 C-227.90233398 65.67935791 -227.09763672 65.52668457 -226.26855469 65.36938477 C-224 65 -224 65 -220.25390625 64.765625 C-215.75018955 63.70592695 -213.99522155 61.41497663 -211.125 57.9375 C-210.07590616 56.74086207 -209.02381287 55.54684718 -207.96875 54.35546875 C-207.46085938 53.77587402 -206.95296875 53.1962793 -206.4296875 52.59912109 C-200.31396199 45.75861527 -193.06131453 40.8789494 -185.33203125 36.078125 C-184.23246094 35.39234375 -183.13289062 34.7065625 -182 34 C-180.89011719 33.31421875 -179.78023437 32.6284375 -178.63671875 31.921875 C-175.74605119 30.20545085 -175.74605119 30.20545085 -175 27 C-174.67 27.99 -174.34 28.98 -174 30 C-172.81470703 29.41992188 -172.81470703 29.41992188 -171.60546875 28.828125 C-154.62403457 20.98755425 -129.23915174 14.50985238 -110.85351562 19.59350586 C-107.42451645 20.34551898 -104.39539668 17.97310531 -101.4375 16.375 C-91.16088019 10.95770979 -81.12126147 6.4208077 -69.875 3.375 C-68.23640015 2.9250769 -68.23640015 2.9250769 -66.56469727 2.46606445 C-57.76484243 0.10118034 -49.01750857 -1.72588436 -40 -3 C-39.31083496 -3.10151367 -38.62166992 -3.20302734 -37.91162109 -3.30761719 C-9.64217906 -7.43825241 -9.64217906 -7.43825241 0 0 Z M15 604 C16 607 16 607 16 607 Z M16 607 C17 609 17 609 17 609 Z M31 658 C32 660 32 660 32 660 Z M32 662 C33 665 33 665 33 665 Z " fill="#FEFEFE" transform="translate(475,125)"/>
<path d="M0 0 C3.93729951 5.46264556 3.62090558 10.4977388 3 17 C2.12668834 21.09000959 0.55516361 23.5109273 -2.625 26.3125 C-10.02753272 30.01376636 -18.37159623 30.47452854 -26.5 31.375 C-41.41197156 33.15582301 -54.95453561 36.26082799 -68.90234375 41.828125 C-72 43 -72 43 -74 43 C-73.64808594 43.7321875 -73.29617188 44.464375 -72.93359375 45.21875 C-69.36008316 53.05621448 -66.65631657 60.97792843 -64.25 69.25 C-63.95665771 70.25482422 -63.66331543 71.25964844 -63.36108398 72.29492188 C-58.5833 89.08269997 -58.5833 89.08269997 -59 97 C-58.32453125 96.79503906 -57.6490625 96.59007812 -56.953125 96.37890625 C-56.06109375 96.10949219 -55.1690625 95.84007812 -54.25 95.5625 C-53.36828125 95.29566406 -52.4865625 95.02882813 -51.578125 94.75390625 C-39.52403551 91.22899826 -26.44271384 91.75269837 -15 97 C-13.58460938 97.63615234 -13.58460938 97.63615234 -12.140625 98.28515625 C-0.54462779 104.03510514 8.51686782 113.90191897 13.16796875 126.05078125 C14.7326879 131.59708623 14.89853348 136.13381509 12.375 141.375 C9.30279238 144.77059789 6.65187637 146.6181298 2.046875 147.28125 C-2.7618094 147.50149509 -5.81261589 146.54696559 -10 144 C-12.34375 141.2578125 -12.34375 141.2578125 -14.5 138.125 C-19.20287063 131.60546864 -23.81526158 125.98510447 -32 124 C-40.04198003 123.03023182 -46.78503344 124.50130651 -54.3828125 127.125 C-57 128 -57 128 -59 128 C-59.12375 128.56203125 -59.2475 129.1240625 -59.375 129.703125 C-61.02112541 136.41108605 -63.31945093 142.81944147 -65.8125 149.25 C-66.29106445 150.52665527 -66.29106445 150.52665527 -66.77929688 151.82910156 C-68.95526256 157.32051791 -71.5152785 162.04461529 -76 166 C-81.73122075 167.91040692 -87.80237036 167.88402033 -93.375 165.4375 C-97.36381181 163.12350369 -99.71179319 160.45986081 -101 156 C-101.73074938 149.56427737 -98.86057006 144.03470372 -96.30859375 138.28588867 C-85.51685477 113.92953334 -92.70679932 88.1521283 -101 64 C-101.66734992 62.00022788 -102.3342454 60.00030379 -103 58 C-128.54229151 53.26368104 -150.03609104 56.22440566 -172.1328125 69.9453125 C-181.36833194 76.29955568 -188.24875414 84.33264869 -194.19921875 93.7734375 C-196.63332876 96.78307461 -198.48413453 98.28894547 -202 100 C-205.87127082 100.37989631 -209.68223202 100.18040789 -213.5625 100 C-222.93749249 99.79069915 -230.33948563 100.12682552 -239 104 C-240.03125 104.43570313 -241.0625 104.87140625 -242.125 105.3203125 C-252.78386037 110.19674112 -261.62420895 117.16987406 -265.89453125 128.33984375 C-267.59415217 133.63964691 -268.56859589 138.94183238 -269.27734375 144.45703125 C-270.24870262 147.87516435 -271.41933657 149.53385095 -274 152 C-276.74819276 153.27143083 -279.58854334 154.06120324 -282.5 154.875 C-299.95548742 160.25547552 -315.2332946 171.10348844 -323.9453125 187.546875 C-334.49477849 208.5833359 -334.2533598 230.41424864 -327.3125 252.625 C-327.06113281 253.33914063 -326.80976563 254.05328125 -326.55078125 254.7890625 C-324.93062102 261.29268441 -326.81097722 265.33426111 -329.875 270.9375 C-334.95543997 280.3713205 -337.72334478 289.08133983 -335.3828125 299.8359375 C-332.94399861 307.5408628 -328.44295951 314.48487637 -321.28125 318.5390625 C-317.55056171 322.56360637 -318.3913278 327.15620277 -318.4375 332.4375 C-318.14133914 349.82175479 -313.68451798 362.66350758 -301.6015625 375.5546875 C-283.0193008 393.02089745 -257.05978151 400.54467897 -232.1875 403.0625 C-231.38997314 403.14773926 -230.59244629 403.23297852 -229.77075195 403.32080078 C-225.28340474 403.77192586 -220.82068805 404.06960522 -216.3125 404.20703125 C-215.3738208 404.23724365 -214.4351416 404.26745605 -213.46801758 404.29858398 C-211.65575552 404.34838976 -209.84292543 404.38128485 -208.0300293 404.39477539 C-202.58405073 404.53785442 -199.20264228 405.19791213 -195 409 C-191.13856939 414.41970194 -190.99880105 421.00939363 -190.1875 427.4375 C-188.10398664 442.21355147 -184.55733505 454.20107251 -175 466 C-174.40574219 466.75667969 -173.81148437 467.51335937 -173.19921875 468.29296875 C-155.1455327 490.00972153 -126.97250061 498.80475455 -99.83984375 501.5625 C-62.81339977 504.7142297 -26.93118887 497.87565521 8.38418579 487.3449707 C19.67538511 483.99924445 30.95483701 481.42325834 42.5625 479.4375 C43.27360931 479.31544189 43.98471863 479.19338379 44.71737671 479.06762695 C55.79303954 477.19125506 66.7130567 475.85960062 77.953125 475.76171875 C78.85697937 475.753647 79.76083374 475.74557526 80.69207764 475.73725891 C82.58441314 475.7235453 84.47677206 475.71276743 86.36914062 475.70483398 C88.29694918 475.69323446 90.22472371 475.67265941 92.15234375 475.64331055 C94.96115571 475.60067339 97.76902991 475.58448136 100.578125 475.57421875 C101.43448547 475.55671066 102.29084595 475.53920258 103.17315674 475.52116394 C108.59902415 475.54080622 111.71835827 476.35186648 116 480 C119.12203648 484.68305472 118.57099471 489.51993384 118 495 C116.17882497 498.87989463 114.1449645 500.13356344 110.265625 501.5625 C104.35560839 503.4542978 98.41121075 503.60324466 92.24768066 503.85092163 C43.09454603 504.75309953 43.09454603 504.75309953 0 522 C0.52207031 522.37769531 1.04414063 522.75539063 1.58203125 523.14453125 C13.25280009 531.87205891 21.77038145 541.44411521 29 554 C29.39010254 554.65871094 29.78020508 555.31742188 30.18212891 555.99609375 C43.46564564 578.63638486 50.76383258 604.45199639 57.98876953 629.52539062 C58.93323152 632.77058209 59.90996442 636.00356557 60.90234375 639.234375 C72 675.64902633 72 675.64902633 72 689 C85.89786282 688.51659608 99.28721866 685.70675683 112 680 C112.12131356 672.90989645 111.7855715 666.04151673 111 659 C106.48166134 613.81267757 106.48166134 613.81267757 115 599 C118.77981553 595.58894696 121.52020564 593.56440563 126.72265625 593.66015625 C131.39062416 594.35674837 135.68309723 596.4253516 140.02929688 598.19970703 C174.90672083 612.36325953 215.9933168 619.32995 252.125 605.125 C254.43182035 604.11733665 256.72518467 603.07797068 259 602 C259.98226562 601.53722656 260.96453125 601.07445312 261.9765625 600.59765625 C278.01179631 592.44453033 289.32170543 579.47171069 298 564 C298.59039063 562.98421875 299.18078125 561.9684375 299.7890625 560.921875 C301.16500901 558.1289936 301.16500901 558.1289936 301 555.4140625 C295.0774313 541.1166115 268.37144524 530.01501853 255 524 C254.38302246 523.71737305 253.76604492 523.43474609 253.13037109 523.14355469 C239.87401698 517.19257053 225.74155931 513.70868482 211.75326538 509.93737793 C208.16597902 508.96860402 204.582295 507.98705203 201 507 C199.73881348 506.65372559 198.47762695 506.30745117 197.17822266 505.95068359 C196.03272949 505.6202002 194.88723633 505.2897168 193.70703125 504.94921875 C192.71807861 504.66780029 191.72912598 504.38638184 190.71020508 504.09643555 C186.78183164 502.50718006 183.8366548 500.43426538 181.6875 496.75 C180.23631731 490.94526924 180.17030943 486.84898324 183.1875 481.6875 C185.41355962 478.51365029 187.29591907 476.41107845 191 475 C198.55250382 474.65138796 205.36467421 476.52904964 212.625 478.375 C213.32441711 478.55095703 214.02383423 478.72691406 214.7444458 478.90820312 C236.11110511 484.31726923 257.20531613 491.22830097 277 501 C277.7101123 501.34885254 278.42022461 501.69770508 279.15185547 502.05712891 C291.80400009 508.34508384 304.48158558 515.49958391 314.99609375 525.0390625 C320.70939615 527.77877476 327.77262378 525.64206669 333.5625 524 C334.34117432 523.77924805 335.11984863 523.55849609 335.92211914 523.33105469 C348.66835528 519.49537577 359.16541034 512.94198509 369 504 C370.02287109 503.11634766 370.02287109 503.11634766 371.06640625 502.21484375 C404.00467946 471.93824919 412.02566545 418.11248945 414 376 C415.03607406 348.75165524 412.86638368 321.7452311 393.625 300.6875 C389.2488309 295.9062012 389.2488309 295.9062012 383.0625 294.8125 C368.48767212 295.02305129 356.23611428 300.37530721 345.375 310 C340.5119947 315.05526365 337.91510497 321.71520685 335 328 C331.58872336 335.2044126 331.58872336 335.2044126 327 337 C320.96357691 337.81695952 316.29275336 336.96394188 311 334 C307.49083352 330.25688909 306.63855095 326.53207585 306.72265625 321.4296875 C308.55649632 305.36421538 318.77682162 291.83970162 330.734375 281.67578125 C345.84222193 270.21390316 360.49594635 266.62909444 379 266 C378.88206976 249.6955657 378.13037316 235.27478236 366 223 C363.72921255 221.130385 361.43383258 219.37726871 359.015625 217.703125 C354.85839559 214.19042728 353.55530644 209.94021272 352.1875 204.8125 C349.05342183 194.37342759 344.11465774 186.23342854 335 180 C322.04299884 173.37313681 307.16639506 171.54452136 293.0625 175.625 C278.76111996 180.8058773 269.60503222 188.36656133 262.38671875 201.87109375 C260.16198235 205.28653414 257.83109708 206.72296764 254 208 C249.2762819 208.54885106 245.89865118 208.46596728 241.625 206.25 C238.60363907 203.66026206 236.38478111 201.64507864 235.4609375 197.6953125 C235.07483723 186.14740455 240.85950101 176.79145811 248.4375 168.5625 C250.25857431 166.66944041 252.11852945 164.83477712 254 163 C254.64582031 162.34515625 255.29164063 161.6903125 255.95703125 161.015625 C268.48901581 149.11160481 285.71687484 141.39524818 303 141 C299.05514982 123.80509421 292.22370293 109.64022664 276.89453125 99.65625 C257.69929469 88.67274082 238.68805466 86.40401355 216.890625 87.05883789 C216.21587128 87.07419586 215.54111755 87.08955383 214.84591675 87.1053772 C212.9973438 87.14960363 211.14925068 87.2127289 209.30126953 87.27709961 C205.52887681 86.9604552 203.21046063 85.97364143 200 84 C198.27734375 81.51171875 198.27734375 81.51171875 196.9375 78.6875 C191.80064887 68.66405459 185.08409878 62.53987127 174.3828125 58.703125 C165.57496473 56.13339352 157.73701999 54.86091707 148.60546875 55.18359375 C146.74288717 55.2255262 144.88025276 55.26516244 143.01757812 55.30273438 C140.11839181 55.36382881 137.22214202 55.43615591 134.32446289 55.54858398 C120.95373476 56.04660766 111.58629382 54.55386227 99.9005127 47.97050476 C85.57561019 40.65543335 67.53370075 39.32239723 51.75 38.5 C44.7477361 38.10118541 38.61720296 37.61720296 33.5 32.5 C30.33852421 27.23087369 30.51136777 21.98360175 31 16 C32.3125 12.5625 32.3125 12.5625 34 10 C34.391875 9.2575 34.78375 8.515 35.1875 7.75 C40.03746721 3.06727304 48.60082134 3.71165743 54.87329102 3.77050781 C78.19971687 4.19665176 100.3497837 8.35880127 121.80078125 17.62109375 C125.84665934 19.36492155 128.6259675 20.11122778 132.98828125 19.9921875 C162.63309195 19.42931135 192.39399245 22.63367674 215 44 C217.45126086 46.57982349 219.779879 49.21916585 222 52 C223.485 51.505 223.485 51.505 225 51 C227.33299825 50.96045766 229.66708189 50.95598268 232 51 C232 51.66 232 52.32 232 53 C232.90878906 52.96519531 233.81757812 52.93039063 234.75390625 52.89453125 C253.71055475 52.48623421 270.91576984 57.89624285 287.8984375 66.01953125 C290.11095284 67.10060818 290.11095284 67.10060818 293 68 C294.15239083 69.15239083 295.30073555 70.3091793 296.42578125 71.48828125 C298.2786197 73.26755787 300.25971708 74.76849632 302.3125 76.3125 C319.65662707 89.66518061 331.21152294 108.5173642 335 130 C335.4973863 134.00034622 335.84742645 137.97205828 336 142 C336.53367187 142.14695312 337.06734375 142.29390625 337.6171875 142.4453125 C347.42069335 145.3965409 356.52215096 150.99177433 364 158 C364 158.66 364 159.32 364 160 C364.66 160 365.32 160 366 160 C367.3980016 161.74167699 368.72020603 163.54470641 370 165.375 C372.78064768 169.37211214 372.78064768 169.37211214 376 173 C376.92351778 174.78826624 377.79270742 176.60499616 378.625 178.4375 C379.29402344 179.88962891 379.29402344 179.88962891 379.9765625 181.37109375 C381 184 381 184 381 187 C381.66 187.33 382.32 187.66 383 188 C383.165 188.99 383.33 189.98 383.5 191 C384.50279357 194.9469955 386.61573494 196.66618552 389.6875 199.25 C395.13686598 203.87489418 398.53734367 208.79385442 402 215 C402.46148438 215.76699219 402.92296875 216.53398437 403.3984375 217.32421875 C409.76207965 228.68235581 412.09135752 243.10031755 412 256 C411.67 256.99 411.34 257.98 411 259 C411.66 259 412.32 259 413 259 C413 260.65 413 262.3 413 264 C412.67 264 412.34 264 412 264 C411.03192003 267.13202343 410.54067874 268.82213777 411 272 C412.88741975 274.43133136 415.04444889 276.33530514 417.32421875 278.40234375 C439.15513027 299.59585639 446.88027729 332.51650175 447.39990234 361.84741211 C447.76041678 392.84946081 443.91002389 424.62802195 433.91796875 454.05078125 C432.85140267 456.9626119 432.85140267 456.9626119 433 460 C432.34 460 431.68 460 431 460 C430.84724609 461.01126953 430.84724609 461.01126953 430.69140625 462.04296875 C429.84509753 465.66249246 428.44893509 468.93334233 426.9375 472.3125 C426.62514404 473.0125415 426.31278809 473.71258301 425.9909668 474.43383789 C425.00340388 476.62697798 424.00313032 478.81394226 423 481 C422.69674805 481.67063477 422.39349609 482.34126953 422.08105469 483.03222656 C414.47779898 499.69678377 403.9682229 514.10216094 391 527 C390.11828125 527.88171875 389.2365625 528.7634375 388.328125 529.671875 C375.34211312 542.04316443 354.70973707 557 336 557 C335.896875 557.556875 335.79375 558.11375 335.6875 558.6875 C335 561 335 561 333.5625 563.375 C331.86672589 566.0057576 331.86672589 566.0057576 330.9375 569.25 C330 572 330 572 328 573 C327.75507812 573.81726563 327.51015625 574.63453125 327.2578125 575.4765625 C325.53018181 580.31607457 322.7857415 584.16765547 319.875 588.375 C319.33101562 589.18710937 318.78703125 589.99921875 318.2265625 590.8359375 C314.81242272 595.81356185 311.13682413 600.06718732 306.7824707 604.24365234 C304.84957198 606.07587449 304.84957198 606.07587449 302.86328125 608.703125 C285.21788931 630.45467733 251.64573692 640.50100233 225.0546875 643.62109375 C207.04254514 645.38090076 189.88490573 644.65140112 172 642 C172 642.33 172 642.66 172 643 C169.125 643.1875 169.125 643.1875 166 643 C165.34 642.01 164.68 641.02 164 640 C161.79997417 639.03644549 161.79997417 639.03644549 159.2109375 638.39453125 C158.26992188 638.13349609 157.32890625 637.87246094 156.359375 637.60351562 C155.37453125 637.34248047 154.3896875 637.08144531 153.375 636.8125 C152.38242187 636.53986328 151.38984375 636.26722656 150.3671875 635.98632812 C147.91402814 635.31406811 145.45848786 634.65245216 143 634 C143.24405604 638.08342634 143.49150666 642.1666342 143.74160767 646.24969482 C143.83045349 647.7068802 143.91848807 649.16411526 144.00570679 650.62139893 C144.46043035 658.20602369 144.9463773 665.77631664 145.68359375 673.33984375 C145.78881348 674.44980713 145.8940332 675.55977051 146.00244141 676.70336914 C146.20301099 678.75502226 146.41910537 680.80524242 146.65380859 682.85327148 C147.39645406 690.57105114 146.58090914 697.50818175 141.875 703.875 C133.22493929 710.26852313 122.74789338 711.85930896 112.4375 714 C110.77602344 714.35082515 109.11456525 714.70173729 107.453125 715.05273438 C60.42188333 724.91342912 60.42188333 724.91342912 51.4375 719.875 C45.25516799 715.19928671 43.42334754 709.73223852 41.80859375 702.390625 C41.15743133 699.66406835 41.15743133 699.66406835 38 698 C37.3125 694.375 37.3125 694.375 37 691 C37.66 691 38.32 691 39 691 C38.84853516 690.38479492 38.69707031 689.76958984 38.54101562 689.13574219 C37.85592703 686.34163469 37.17789551 683.54586095 36.5 680.75 C36.26152344 679.78191406 36.02304687 678.81382812 35.77734375 677.81640625 C35.55175781 676.88183594 35.32617188 675.94726562 35.09375 674.984375 C34.88427734 674.12553711 34.67480469 673.26669922 34.45898438 672.38183594 C34 670 34 670 34 666 C33.01 665.67 32.02 665.34 31 665 C28.91267846 661.24282123 29.03244506 659.08523197 30 655 C29.67 654.01 29.34 653.02 29 652 C27.33290494 645.05737899 27.33290494 645.05737899 26.54882812 641.62890625 C26.09395677 639.7367798 25.55305888 637.86579108 25 636 C24.34 635.67 23.68 635.34 23 635 C22.7265625 633.13671875 22.7265625 633.13671875 22.625 630.6875 C22.21263003 625.28778761 20.69557637 620.63169778 18.83984375 615.56640625 C18 613 18 613 18 610 C17.01 610.33 16.02 610.66 15 611 C15 609.68 15 608.36 15 607 C14.34 606.67 13.68 606.34 13 606 C13.23589844 605.35675781 13.47179687 604.71351563 13.71484375 604.05078125 C14.13659873 599.53858076 12.37520309 596.26010789 10.5625 592.1875 C10.22412109 591.39923828 9.88574219 590.61097656 9.53710938 589.79882812 C8.70316313 587.86078402 7.8531404 585.92967167 7 584 C6.34 584 5.68 584 5 584 C4.9175 583.175 4.835 582.35 4.75 581.5 C3.85485084 577.32263724 2.44439377 573.53172755 0 570 C-0.99 569.67 -1.98 569.34 -3 569 C-3.12375 568.05125 -3.2475 567.1025 -3.375 566.125 C-3.71687177 562.91332809 -3.71687177 562.91332809 -6 561 C-7.0209375 560.3503125 -7.0209375 560.3503125 -8.0625 559.6875 C-10.51538502 557.55111627 -10.4518508 556.13228117 -11 553 C-11.96686149 551.96792498 -12.9727159 550.9719503 -14 550 C-15.04592497 548.75356091 -16.08728327 547.50328107 -17.125 546.25 C-20.9039755 541.90819837 -25.09334188 538.04288875 -30 535 C-30.99 535 -31.98 535 -33 535 C-33 534.34 -33 533.68 -33 533 C-39.88575879 532.88630326 -46.58625663 533.34936642 -53.4375 534 C-77.71581016 536.09635322 -112.56983475 538.21508263 -135 527 C-135.33 527.66 -135.66 528.32 -136 529 C-136.99 529 -137.98 529 -139 529 C-139 527.68 -139 526.36 -139 525 C-140.24716797 524.85111328 -140.24716797 524.85111328 -141.51953125 524.69921875 C-145.50350593 523.89884673 -149.00555967 522.4738255 -152.6875 520.8125 C-153.38866943 520.50006348 -154.08983887 520.18762695 -154.81225586 519.86572266 C-162.18522338 516.53577762 -169.40493418 512.99734277 -175.9375 508.1875 C-178.68134645 505.91872956 -178.68134645 505.91872956 -181.12890625 505.55078125 C-181.74636719 505.36902344 -182.36382812 505.18726563 -183 505 C-183.33 504.01 -183.66 503.02 -184 502 C-184.66 502 -185.32 502 -186 502 C-187.4453125 500.53125 -187.4453125 500.53125 -189.125 498.5 C-191.63424297 495.53784388 -194.20937905 492.76082415 -197 490.0625 C-200.59720195 486.54228097 -203.59964432 482.75583851 -206.5546875 478.6875 C-207.03164063 478.130625 -207.50859375 477.57375 -208 477 C-208.66 477 -209.32 477 -210 477 C-210.33 477.66 -210.66 478.32 -211 479 C-210.76796875 478.15824219 -210.5359375 477.31648438 -210.296875 476.44921875 C-209.92646858 472.14568097 -211.29253555 469.50197179 -213.25 465.8125 C-218.10214966 456.04110922 -220.38723801 446.92406727 -221 436 C-221.95777344 435.95101563 -222.91554687 435.90203125 -223.90234375 435.8515625 C-232.12401123 435.39897451 -240.25594706 434.71226024 -248.41381836 433.57275391 C-251.9396687 433.10928166 -254.58565346 433.10576638 -258 434 C-258.66 433.34 -259.32 432.68 -260 432 C-261.31647119 431.30062468 -262.65022151 430.63270867 -264 430 C-264.66 429.67 -265.32 429.34 -266 429 C-266.33 429.66 -266.66 430.32 -267 431 C-267 430.01 -267 429.02 -267 428 C-267.97453125 427.9071875 -268.9490625 427.814375 -269.953125 427.71875 C-274.53650647 427.06332183 -278.52723861 425.33502196 -282.75 423.5 C-284.24449346 422.86388227 -285.7392737 422.22843776 -287.234375 421.59375 C-287.88631836 421.31208984 -288.53826172 421.03042969 -289.20996094 420.74023438 C-292.65151597 419.31704904 -295.30277409 418.90007498 -299 419 C-299 418.01 -299 417.02 -299 416 C-301.08211601 414.1071011 -301.08211601 414.1071011 -303.75 412.375 C-304.63171875 411.76398438 -305.5134375 411.15296875 -306.421875 410.5234375 C-308.84736348 408.91519113 -308.84736348 408.91519113 -311.265625 408.4765625 C-311.83796875 408.31929687 -312.4103125 408.16203125 -313 408 C-313.495 406.515 -313.495 406.515 -314 405 C-315.55705194 403.42159428 -315.55705194 403.42159428 -317.5 401.875 C-323.03925406 397.18257435 -328.07473125 392.0166834 -333.125 386.80859375 C-334.99212947 385.00759178 -336.62974499 384.01582358 -339 383 C-338.77699219 382.44828125 -338.55398438 381.8965625 -338.32421875 381.328125 C-337.86440282 378.02631422 -339.07079996 376.5399832 -340.8125 373.75 C-341.35519531 372.85796875 -341.89789063 371.9659375 -342.45703125 371.046875 C-342.96621094 370.37140625 -343.47539062 369.6959375 -344 369 C-344.66 369 -345.32 369 -346 369 C-346.82638376 366.10765685 -347 364.11257569 -347 361 C-347.60628272 358.41977354 -348.24930159 355.87036352 -348.9375 353.3125 C-350.44588466 347.53079603 -351.57299894 341.97801482 -352 336 C-352.99 335.67 -353.98 335.34 -355 335 C-355.09667969 334.11828125 -355.19335938 333.2365625 -355.29296875 332.328125 C-356.05783265 328.72777117 -357.21735186 326.74691426 -359.3125 323.75 C-363.04449618 318.12896871 -367 311.92951343 -367 305 C-367.66 304.67 -368.32 304.34 -369 304 C-369.79439097 274.75464366 -369.79439097 274.75464366 -361.890625 262.671875 C-359.82804241 256.48412722 -362.09512451 249.12758515 -363.15551758 242.82324219 C-367.73304568 215.2866784 -364.41038269 187.33324545 -348.26953125 163.95703125 C-339.82697208 152.16883546 -330.69407039 142.17134416 -318.23828125 134.55859375 C-317.13033203 133.78708984 -317.13033203 133.78708984 -316 133 C-316 132.34 -316 131.68 -316 131 C-315.27554688 130.86722656 -314.55109375 130.73445312 -313.8046875 130.59765625 C-308.8571698 129.54338019 -304.92266603 128.31110078 -301 125 C-299.26210643 121.80486648 -297.91647183 118.68120841 -296.61376953 115.29858398 C-293.84224707 108.18695118 -289.91137515 102.86904937 -285 97 C-284.41347656 96.26265625 -283.82695312 95.5253125 -283.22265625 94.765625 C-269.32321873 77.89007262 -249.59772725 69.77213919 -228.70703125 65.83203125 C-227.90233398 65.67935791 -227.09763672 65.52668457 -226.26855469 65.36938477 C-224 65 -224 65 -220.25390625 64.765625 C-215.75018955 63.70592695 -213.99522155 61.41497663 -211.125 57.9375 C-210.07590616 56.74086207 -209.02381287 55.54684718 -207.96875 54.35546875 C-207.46085938 53.77587402 -206.95296875 53.1962793 -206.4296875 52.59912109 C-200.31396199 45.75861527 -193.06131453 40.8789494 -185.33203125 36.078125 C-184.23246094 35.39234375 -183.13289062 34.7065625 -182 34 C-180.89011719 33.31421875 -179.78023437 32.6284375 -178.63671875 31.921875 C-175.74605119 30.20545085 -175.74605119 30.20545085 -175 27 C-174.67 27.99 -174.34 28.98 -174 30 C-172.81470703 29.41992188 -172.81470703 29.41992188 -171.60546875 28.828125 C-154.62403457 20.98755425 -129.23915174 14.50985238 -110.85351562 19.59350586 C-107.42451645 20.34551898 -104.39539668 17.97310531 -101.4375 16.375 C-91.16088019 10.95770979 -81.12126147 6.4208077 -69.875 3.375 C-68.23640015 2.9250769 -68.23640015 2.9250769 -66.56469727 2.46606445 C-57.76484243 0.10118034 -49.01750857 -1.72588436 -40 -3 C-39.31083496 -3.10151367 -38.62166992 -3.20302734 -37.91162109 -3.30761719 C-9.64217906 -7.43825241 -9.64217906 -7.43825241 0 0 Z M15 604 C16 607 16 607 16 607 Z M16 607 C17 609 17 609 17 609 Z M31 658 C32 660 32 660 32 660 Z M32 662 C33 665 33 665 33 665 Z " fill="#020202" transform="translate(475,125)"/>
<path d="M0 0 C4.14122118 4.27926189 4.29027148 9.14476581 4.21484375 14.84375 C2.68998184 37.24535766 -4.67026702 57.0751428 -21.58984375 72.3359375 C-25.966059 75.98168674 -29.47203188 78.40000923 -35 80 C-34.33613281 81.12535156 -33.67226563 82.25070312 -32.98828125 83.41015625 C-27.39712537 93.06251292 -22.9683356 102.22844154 -20 113 C-19.75636719 113.79277344 -19.51273437 114.58554687 -19.26171875 115.40234375 C-16.75987577 124.54172931 -16.85099399 135.08875036 -20 144 C-23.26366901 147.35432648 -26.43237159 149.03377091 -31 150 C-35.63604166 149.92730945 -40.05793037 149.60659298 -44 147 C-46.37880391 143.56863129 -47.44425779 140.8048342 -47.9921875 136.68359375 C-48.1370459 135.67756104 -48.2819043 134.67152832 -48.43115234 133.63500977 C-48.57762207 132.57983154 -48.7240918 131.52465332 -48.875 130.4375 C-50.22606707 121.63455618 -51.62542379 113.85377133 -56 106 C-56.44085938 105.18789063 -56.88171875 104.37578125 -57.3359375 103.5390625 C-63.72978908 92.9061933 -73.86538409 87.53277987 -85.578125 84.28515625 C-92.19055698 82.89573419 -98.89224828 82.64999287 -105.63134766 82.51660156 C-110.45454012 82.35410503 -113.79297272 81.602219 -118 79 C-121.59044541 75.0381292 -122.32041489 71.38550963 -122.203125 66.05859375 C-121.87142091 62.69690039 -120.98743155 60.73271837 -119 58 C-112.88301263 53.49839704 -106.53503563 53.37207466 -99.1875 53.5 C-97.54612061 53.5148645 -97.54612061 53.5148645 -95.87158203 53.5300293 C-84.89843197 53.77698511 -73.32760974 54.9502345 -63.2890625 59.69921875 C-59.73578103 61.10449515 -58.51574514 61.33059196 -55 60 C-40.62477312 51.57684763 -32.44171128 39.81421259 -28.2668457 23.83764648 C-27.22871163 19.64440865 -26.2638982 15.44640388 -25.48828125 11.1953125 C-24.35827003 5.03726968 -22.30636879 1.50827977 -17.1875 -2.375 C-10.78544594 -4.2041583 -5.66780243 -3.11173467 0 0 Z " fill="#010101" transform="translate(377,417)"/>
<path d="M0 0 C5.82622321 3.96895555 7.01039071 10.50519481 8.80078125 16.91796875 C14.80337613 38.37374435 26.18807881 56.9701833 45.6796875 68.35546875 C47.34257813 69.27779297 47.34257813 69.27779297 49.0390625 70.21875 C49.94140625 70.72019531 50.84375 71.22164063 51.7734375 71.73828125 C60.78893692 76.25969081 70.81426917 77.93577733 80.62109375 79.95703125 C86.59524523 81.27561709 90.31975429 82.21692172 94.0390625 87.21875 C96.00824854 91.15712208 94.80472001 96.01060136 94.0390625 100.21875 C92.34845575 103.66034232 91.287138 105.56413327 87.88671875 107.34765625 C71.86338264 112.24917059 50.48928034 105.44385892 36.0390625 98.21875 C35.93722656 98.93675781 35.83539062 99.65476562 35.73046875 100.39453125 C32.43190611 113.86832101 17.98455707 128.43676784 6.7265625 135.96875 C-1.14613594 140.72721365 -9.56894581 144.72293617 -18.9609375 143.21875 C-23.63642872 141.54263051 -26.47549304 139.54526444 -28.9609375 135.21875 C-30.12727801 130.4415471 -30.39951529 126.53448338 -28.8359375 121.84375 C-25.67931605 117.42447997 -22.26874944 115.34164638 -17.3984375 113.15625 C-5.5060092 107.30722508 6.34287344 94.80702493 10.76416016 82.14160156 C10.85487793 81.50706055 10.9455957 80.87251953 11.0390625 80.21875 C9.26810442 78.02804355 9.26810442 78.02804355 6.7265625 75.90625 C-9.17360477 60.67322262 -21.40825969 35.75159357 -22.6484375 13.59375 C-22.42022053 8.70722188 -21.12622393 5.86466912 -17.59375 2.48828125 C-12.5616453 -1.42424035 -5.98720628 -2.38534115 0 0 Z " fill="#010101" transform="translate(505.9609375,332.78125)"/>
<path d="M0 0 C7.92471374 6.82405906 10.67107561 16.86245862 12.25 26.9375 C13.01669593 39.25491004 11.56483325 50.08930082 8.25 61.9375 C7.91172523 63.26958824 7.575271 64.60217694 7.25 65.9375 C9.52020102 66.91815487 11.79112254 67.8970769 14.0625 68.875 C14.70509766 69.15279297 15.34769531 69.43058594 16.00976562 69.71679688 C26.153597 74.07916995 38.69249947 74.99511889 49.3125 71.3125 C52.88224186 69.78574887 55.96181413 67.83456536 59.1875 65.6875 C64.71672986 62.20744159 69.86530343 61.82465776 76.25 62.9375 C79.99432023 65.03431933 81.62050321 67.04637404 83.25 70.9375 C83.92792321 75.71449377 83.81454522 79.73784141 81.75 84.125 C71.75924838 95.36459557 59.919333 100.24107939 45.25 102.9375 C44.115625 103.164375 42.98125 103.39125 41.8125 103.625 C28.53374575 104.789803 14.89289 104.0622309 2.40234375 99.0859375 C-6.3840731 95.25570208 -6.3840731 95.25570208 -15.453125 96.37890625 C-17.74007947 97.88411763 -19.79090548 99.59893934 -21.84765625 101.40234375 C-29.94739204 108.4773485 -41.83055154 111.75518176 -52.46484375 112 C-57.76459416 111.57672543 -61.73127005 110.24105076 -65.328125 106.13671875 C-67.76810046 102.36280066 -67.86178906 98.35316807 -67.75 93.9375 C-66.13433087 89.09049261 -63.8732711 86.83614835 -59.75 83.9375 C-57.16546487 82.88718891 -54.63773303 81.94505094 -52 81.0625 C-39.88549915 76.76016676 -30.05894083 69.94953513 -23.6875 58.4375 C-17.30959905 45.00105254 -17.15765518 31.07171709 -21.97265625 17.2265625 C-23.00793417 12.84614034 -22.86364758 9.04914715 -20.734375 5.01171875 C-15.13268329 -1.28132098 -7.9550624 -3.07354683 0 0 Z " fill="#010101" transform="translate(254.75,284.0625)"/>
<path d="M0 0 C5.19045733 3.1989684 8.86590965 6.88718664 12.80029297 11.50390625 C21.65883257 21.41889182 31.47279368 27.1807875 44.87451172 28.375 C58.33557335 28.95567325 71.33360329 23.76350172 81.67529297 15.25390625 C85.207412 12.63028899 88.42643844 12.47338207 92.74560547 12.703125 C97.17782773 13.5003399 99.82984233 15.84595561 102.92529297 18.94140625 C104.93179276 22.63759008 105.72741488 26.02453852 104.52294922 30.1484375 C99.42596752 41.58930201 87.05462781 46.6666278 75.9765625 50.95605469 C68.01496875 53.81935408 60.54558978 55.48641766 52.11279297 56.12890625 C46.43158028 81.35726716 46.43158028 81.35726716 53.60888672 105.68359375 C55.04165253 107.57727425 56.52314421 109.36608346 58.11279297 111.12890625 C60.74022804 114.43438908 61.32547811 116.43862917 61.05029297 120.56640625 C60.38060559 124.88696998 59.03743731 127.7980613 56.11279297 131.12890625 C52.30165521 133.63336821 48.66556379 133.29949103 44.30810547 132.65234375 C36.34819491 130.75442913 30.54103413 122.9868085 26.37451172 116.3671875 C16.53511951 98.08007891 16.54325012 74.83873922 22.11279297 55.12890625 C22.60779297 54.13890625 22.60779297 54.13890625 23.11279297 53.12890625 C21.85466797 52.75765625 20.59654297 52.38640625 19.30029297 52.00390625 C3.06914544 46.47517162 -10.21130037 34.94026287 -17.82470703 19.50390625 C-19.41183635 14.46243665 -19.85201971 10.29973478 -17.63720703 5.31640625 C-13.2873498 -0.12091529 -6.82519408 -3.15036125 0 0 Z " fill="#010101" transform="translate(742.88720703125,489.87109375)"/>
<path d="M0 0 C13.86400138 11.31755215 22.72380068 25.38978636 30.0625 41.5 C30.69478516 42.85738281 30.69478516 42.85738281 31.33984375 44.2421875 C32.37980732 46.63606592 33.25594721 49.01799938 34.0625 51.5 C34.50916016 52.87091797 34.50916016 52.87091797 34.96484375 54.26953125 C42.41881511 82.12746108 35.97116448 115.71080984 22.640625 140.93359375 C19.68441682 145.74109072 16.55454326 150.66931891 11.0625 152.5 C5.44230365 152.99470704 0.62659815 153.26832892 -4.5 150.75 C-9.62404985 146.02010783 -9.62404985 146.02010783 -10.39526367 142.2800293 C-10.46179661 135.26688477 -8.50992449 130.4403764 -5.25 124.3125 C5.20649303 103.53555129 11.53198255 81.30317322 4.25463867 58.41479492 C0.4530374 47.37056606 -5.85194093 38.68498398 -12.9375 29.5 C-14.4453618 27.46413272 -15.9458034 25.42274121 -17.4375 23.375 C-18.0871875 22.48554688 -18.736875 21.59609375 -19.40625 20.6796875 C-22.46458552 16.32624051 -22.39401013 12.7059713 -21.9375 7.5 C-20.64873328 3.23096025 -19.03131142 1.24659736 -15.25 -0.9375 C-9.66656281 -3.38601649 -5.33683485 -2.72519226 0 0 Z " fill="#010101" transform="translate(646.9375,341.5)"/>
<path d="M0 0 C3.74771411 1.35526193 6.92955985 3.06768116 9.9375 5.6875 C12.20783099 10.62880863 12.80236826 14.72309083 10.96484375 19.9375 C7.76787472 26.62129658 3.75156106 32.34802897 -1 38 C-1.60070312 38.79921875 -2.20140625 39.5984375 -2.8203125 40.421875 C-16.08946983 56.11657721 -38.84810505 66.19797668 -59 68 C-71.95397387 68.79104073 -83.64910317 68.04718653 -96 64 C-96.96550781 63.68804688 -97.93101562 63.37609375 -98.92578125 63.0546875 C-105.88290535 60.54209944 -112.05508195 56.55041822 -117 51 C-118.3605163 46.91845111 -118.80116991 43.23411951 -117.31640625 39.09375 C-115.07791395 34.7096489 -112.78928238 32.59642746 -108 31 C-101.95285142 30.03245623 -97.46147909 32.25555073 -92.0625 34.7109375 C-77.65219846 40.7764981 -60.52607881 39.14152045 -46 34 C-32.45306187 28.32234732 -22.62546836 19.14138608 -15 6.75 C-10.94797819 1.17847001 -6.85918456 -0.94609442 0 0 Z " fill="#010101" transform="translate(556,505)"/>
<path d="M0 0 C1.25554688 -0.020625 2.51109375 -0.04125 3.8046875 -0.0625 C21.71183194 -0.1368035 36.894855 5.6863358 49.86572266 18.04541016 C60.14222796 28.32191546 68.50018934 42.64657465 69.1875 57.4375 C68.8602635 61.42978527 68.40671746 63.19447892 65.875 66.25 C60.91274734 69.72357686 56.91636312 70.65958394 50.875 70.25 C46.11543664 68.47682934 43.78324112 66.35269729 40.875 62.25 C40.0312243 60.19512668 39.26266538 58.1081343 38.5625 56 C34.75602104 45.72946989 28.51600941 38.02352115 18.61181641 33.13232422 C10.48436776 29.84561623 2.63106256 29.68039207 -6 29.6875 C-8.08619725 29.68387477 -10.17157275 29.67424408 -12.25759888 29.64674377 C-14.13367568 29.62249622 -16.00999732 29.62002781 -17.88623047 29.61889648 C-22.79568948 29.05970814 -25.25925043 27.2561414 -28.4375 23.5625 C-30.85816154 18.81083104 -31.01307102 15.03894215 -29.4296875 10.06640625 C-27.83786092 6.42125716 -26.59664905 4.56785045 -23.25 2.3125 C-15.65362827 -0.27026639 -7.9336579 0.03199056 0 0 Z " fill="#010101" transform="translate(564.125,208.75)"/>
<path d="M0 0 C0.45375 0.474375 0.9075 0.94875 1.375 1.4375 C2.93258204 3.09027808 2.93258204 3.09027808 5 4 C5 7.96 5 11.92 5 16 C4.67 16 4.34 16 4 16 C3.67 13.03 3.34 10.06 3 7 C2.01 6.67 1.02 6.34 0 6 C0 4.02 0 2.04 0 0 Z " fill="#4A4A49" transform="translate(120,454)"/>
<path d="M0 0 C1.65 0.99 3.3 1.98 5 3 C4.01 3.495 4.01 3.495 3 4 C1.68 3.01 0.36 2.02 -1 1 C-0.67 0.67 -0.34 0.34 0 0 Z " fill="#5C5C5B" transform="translate(753,184)"/>
<path d="M0 0 C1.98 0.99 1.98 0.99 4 2 C2.68 2 1.36 2 0 2 C0 1.34 0 0.68 0 0 Z " fill="#525453" transform="translate(312,642)"/>
<path d="M0 0 C0.66 0 1.32 0 2 0 C1.67 1.32 1.34 2.64 1 4 C0.67 2.68 0.34 1.36 0 0 Z " fill="#585957" transform="translate(104,424)"/>
<path d="M0 0 C0 0.66 0 1.32 0 2 C-1.32 1.67 -2.64 1.34 -4 1 C-2 0 -2 0 0 0 Z " fill="#535554" transform="translate(728,176)"/>
<path d="M0 0 C1.32 0 2.64 0 4 0 C4 0.66 4 1.32 4 2 C2.68 1.34 1.36 0.68 0 0 Z " fill="#989A9B" transform="translate(468,120)"/>
<path d="M0 0 C0.99 0.33 1.98 0.66 3 1 C2.01 1.33 1.02 1.66 0 2 C0 1.34 0 0.68 0 0 Z " fill="#545554" transform="translate(200,208)"/>
<path d="M0 0 C0.99 0.33 1.98 0.66 3 1 C2.01 1.33 1.02 1.66 0 2 C0 1.34 0 0.68 0 0 Z " fill="#424342" transform="translate(256,187)"/>
<path d="M0 0 C1.65 0 3.3 0 5 0 C5 0.33 5 0.66 5 1 C3.35 1 1.7 1 0 1 C0 0.67 0 0.34 0 0 Z " fill="#49494A" transform="translate(712,176)"/>
<path d="M0 0 C0.66 0.99 1.32 1.98 2 3 C1.01 2.67 0.02 2.34 -1 2 C-0.67 1.34 -0.34 0.68 0 0 Z " fill="#B3B5B7" transform="translate(510,128)"/>
<path d="M0 0 C0.33 0.66 0.66 1.32 1 2 C0.01 2.33 -0.98 2.66 -2 3 C-2 2.34 -2 1.68 -2 1 C-1.34 0.67 -0.68 0.34 0 0 Z " fill="#BDC0C3" transform="translate(508,128)"/>
<path d="M0 0 C0 3 0 3 0 3 Z " fill="#464745" transform="translate(482,711)"/>
<path d="M0 0 C0.99 0.33 1.98 0.66 3 1 C2.01 1 1.02 1 0 1 C0 0.67 0 0.34 0 0 Z " fill="#474847" transform="translate(256,184)"/>
<path d="M0 0 C0.99 0.495 0.99 0.495 2 1 C1.34 1.66 0.68 2.32 0 3 C0 2.01 0 1.02 0 0 Z " fill="#636463" transform="translate(280,160)"/>
<path d="M0 0 C0.66 0.33 1.32 0.66 2 1 C1.01 1 0.02 1 -1 1 C-0.67 0.67 -0.34 0.34 0 0 Z " fill="#5A5B5A" transform="translate(287,160)"/>
<path d="M0 0 C4 1 4 1 4 1 Z " fill="#6C6E6C" transform="translate(554,129)"/>
<path d="M0 0 C0.66 0.66 1.32 1.32 2 2 C1.34 2 0.68 2 0 2 C0 1.34 0 0.68 0 0 Z " fill="#6B6C6B" transform="translate(528,846)"/>
<path d="M0 0 C3 1 3 1 3 1 Z " fill="#565453" transform="translate(570,843)"/>
<path d="M0 0 C0.99 0.495 0.99 0.495 2 1 C1.01 1.495 1.01 1.495 0 2 C0 1.34 0 0.68 0 0 Z " fill="#575757" transform="translate(596,838)"/>
<path d="M0 0 C0.66 0 1.32 0 2 0 C1.67 0.66 1.34 1.32 1 2 C0.67 1.34 0.34 0.68 0 0 Z " fill="#444545" transform="translate(256,584)"/>
<path d="M0 0 C0.33 0.66 0.66 1.32 1 2 C0.34 1.67 -0.32 1.34 -1 1 C-0.67 0.67 -0.34 0.34 0 0 Z " fill="#4F4F4F" transform="translate(193,550)"/>
<path d="" fill="#494949" transform="translate(0,0)"/>
<path d="" fill="#3C3D3D" transform="translate(0,0)"/>
<path d="" fill="#404141" transform="translate(0,0)"/>
<path d="" fill="#3F403F" transform="translate(0,0)"/>
<path d="" fill="#474747" transform="translate(0,0)"/>
<path d="M0 0 C3 1 3 1 3 1 Z " fill="#4B4C4A" transform="translate(863,320)"/>
<path d="M0 0 C3 1 3 1 3 1 Z " fill="#4D4D4C" transform="translate(844,288)"/>
<path d="M0 0 C0.99 0.495 0.99 0.495 2 1 C1.01 1.495 1.01 1.495 0 2 C0 1.34 0 0.68 0 0 Z " fill="#525251" transform="translate(155,256)"/>
<path d="M0 0 C3 1 3 1 3 1 Z " fill="#565755" transform="translate(729,178)"/>
<path d="M0 0 C0.33 0.66 0.66 1.32 1 2 C0.34 1.67 -0.32 1.34 -1 1 C-0.67 0.67 -0.34 0.34 0 0 Z " fill="#5D605E" transform="translate(297,154)"/>
<path d="M0 0 C3 1 3 1 3 1 Z " fill="#5C5D5B" transform="translate(635,144)"/>
<path d="M0 0 C3 1 3 1 3 1 Z " fill="#4C4E4F" transform="translate(605,144)"/>
<path d="M0 0 C3 1 3 1 3 1 Z " fill="#666867" transform="translate(565,131)"/>
<path d="M0 0 C0.33 0.66 0.66 1.32 1 2 C0.34 1.67 -0.32 1.34 -1 1 C-0.67 0.67 -0.34 0.34 0 0 Z " fill="#686A69" transform="translate(562,129)"/>
<path d="" fill="#747676" transform="translate(0,0)"/>
<path d="M0 0 C2 1 2 1 2 1 Z " fill="#545352" transform="translate(590,839)"/>
<path d="M0 0 C2 1 2 1 2 1 Z " fill="#545554" transform="translate(723,767)"/>
<path d="M0 0 C2 1 2 1 2 1 Z " fill="#4F4F4F" transform="translate(721,765)"/>
<path d="" fill="#4B4B4A" transform="translate(0,0)"/>
<path d="" fill="#4A4C4A" transform="translate(0,0)"/>
<path d="M0 0 C2 1 2 1 2 1 Z " fill="#4E4F4E" transform="translate(791,719)"/>
<path d="" fill="#474847" transform="translate(0,0)"/>
<path d="M0 0 C2 1 2 1 2 1 Z " fill="#444442" transform="translate(480,710)"/>
<path d="M0 0 C2 1 2 1 2 1 Z " fill="#3D3D3D" transform="translate(429,659)"/>
<path d="M0 0 C2 1 2 1 2 1 Z " fill="#505251" transform="translate(339,655)"/>
<path d="M0 0 C2 1 2 1 2 1 Z " fill="#50504E" transform="translate(283,622)"/>
<path d="" fill="#515251" transform="translate(0,0)"/>
<path d="" fill="#464645" transform="translate(0,0)"/>
<path d="" fill="#424342" transform="translate(0,0)"/>
<path d="" fill="#464847" transform="translate(0,0)"/>
<path d="" fill="#40413F" transform="translate(0,0)"/>
<path d="" fill="#545454" transform="translate(0,0)"/>
<path d="M0 0 C2 1 2 1 2 1 Z " fill="#434343" transform="translate(225,559)"/>
<path d="M0 0 C2 1 2 1 2 1 Z " fill="#4F504F" transform="translate(196,551)"/>
<path d="M0 0 C2 1 2 1 2 1 Z " fill="#505050" transform="translate(186,547)"/>
<path d="M0 0 C2 1 2 1 2 1 Z " fill="#535353" transform="translate(168,537)"/>
<path d="M0 0 C2 1 2 1 2 1 Z " fill="#4F4F4F" transform="translate(153,525)"/>
<path d="M0 0 C2 1 2 1 2 1 Z " fill="#4F4E4E" transform="translate(145,517)"/>
<path d="M0 0 C2 1 2 1 2 1 Z " fill="#4F4E4D" transform="translate(122,475)"/>
<path d="" fill="#545554" transform="translate(0,0)"/>
<path d="M0 0 C2 1 2 1 2 1 Z " fill="#525453" transform="translate(105,400)"/>
<path d="M0 0 C2 1 2 1 2 1 Z " fill="#565755" transform="translate(104,393)"/>
<path d="M0 0 C2 1 2 1 2 1 Z " fill="#414240" transform="translate(112,383)"/>
<path d="" fill="#555454" transform="translate(0,0)"/>
<path d="" fill="#555555" transform="translate(0,0)"/>
<path d="" fill="#4C4C4C" transform="translate(0,0)"/>
<path d="M0 0 C2 1 2 1 2 1 Z " fill="#636462" transform="translate(112,305)"/>
<path d="M0 0 C2 1 2 1 2 1 Z " fill="#5E5E5C" transform="translate(121,291)"/>
<path d="" fill="#4C4B4C" transform="translate(0,0)"/>
<path d="M0 0 C2 1 2 1 2 1 Z " fill="#585959" transform="translate(138,272)"/>
<path d="M0 0 C2 1 2 1 2 1 Z " fill="#454544" transform="translate(818,266)"/>
<path d="M0 0 C2 1 2 1 2 1 Z " fill="#3E3D3C" transform="translate(814,266)"/>
<path d="M0 0 C2 1 2 1 2 1 Z " fill="#505151" transform="translate(147,264)"/>
<path d="M0 0 C2 1 2 1 2 1 Z " fill="#515252" transform="translate(152,260)"/>
<path d="" fill="#555654" transform="translate(0,0)"/>
<path d="M0 0 C2 1 2 1 2 1 Z " fill="#40413F" transform="translate(169,250)"/>
<path d="M0 0 C2 1 2 1 2 1 Z " fill="#525253" transform="translate(804,232)"/>
<path d="" fill="#4F4F4F" transform="translate(0,0)"/>
<path d="M0 0 C2 1 2 1 2 1 Z " fill="#4D4D4C" transform="translate(192,216)"/>
<path d="M0 0 C2 1 2 1 2 1 Z " fill="#585757" transform="translate(749,184)"/>
<path d="" fill="#4E4E4C" transform="translate(0,0)"/>
<path d="M0 0 C2 1 2 1 2 1 Z " fill="#565757" transform="translate(734,179)"/>
<path d="M0 0 C2 1 2 1 2 1 Z " fill="#535654" transform="translate(720,176)"/>
<path d="M0 0 C2 1 2 1 2 1 Z " fill="#424043" transform="translate(697,176)"/>
<path d="M0 0 C2 1 2 1 2 1 Z " fill="#515151" transform="translate(267,176)"/>
<path d="M0 0 C2 1 2 1 2 1 Z " fill="#51504F" transform="translate(693,168)"/>
<path d="" fill="#5A5B59" transform="translate(0,0)"/>
<path d="" fill="#605F5F" transform="translate(0,0)"/>
<path d="M0 0 C2 1 2 1 2 1 Z " fill="#626160" transform="translate(653,147)"/>
<path d="" fill="#606260" transform="translate(0,0)"/>
<path d="M0 0 C2 1 2 1 2 1 Z " fill="#616160" transform="translate(321,146)"/>
<path d="" fill="#616363" transform="translate(0,0)"/>
<path d="M0 0 C2 1 2 1 2 1 Z " fill="#616461" transform="translate(324,145)"/>
<path d="M0 0 C2 1 2 1 2 1 Z " fill="#676866" transform="translate(652,144)"/>
<path d="M0 0 C2 1 2 1 2 1 Z " fill="#5D605F" transform="translate(329,144)"/>
<path d="M0 0 C2 1 2 1 2 1 Z " fill="#646463" transform="translate(320,144)"/>
<path d="M0 0 C2 1 2 1 2 1 Z " fill="#686967" transform="translate(317,144)"/>
<path d="M0 0 C2 1 2 1 2 1 Z " fill="#5A5A5A" transform="translate(584,136)"/>
<path d="M0 0 C2 1 2 1 2 1 Z " fill="#5E5F5F" transform="translate(391,131)"/>
<path d="M0 0 C2 1 2 1 2 1 Z " fill="#5E615F" transform="translate(394,130)"/>
<path d="M0 0 C2 1 2 1 2 1 Z " fill="#A6A8A8" transform="translate(512,129)"/>
<path d="M0 0 C2 1 2 1 2 1 Z " fill="#6A6D6B" transform="translate(547,128)"/>
<path d="M0 0 C2 1 2 1 2 1 Z " fill="#656665" transform="translate(400,128)"/>
<path d="M0 0 C2 1 2 1 2 1 Z " fill="#757775" transform="translate(437,120)"/>
<path d="" fill="#FFFFFF" transform="translate(0,0)"/>
<path d="" fill="#595C5B" transform="translate(0,0)"/>
<path d="" fill="#5A595A" transform="translate(0,0)"/>
<path d="" fill="#5B5B5A" transform="translate(0,0)"/>
<path d="" fill="#727372" transform="translate(0,0)"/>
<path d="" fill="#575755" transform="translate(0,0)"/>
<path d="" fill="#797878" transform="translate(0,0)"/>
<path d="" fill="#6E6F6E" transform="translate(0,0)"/>
<path d="" fill="#757675" transform="translate(0,0)"/>
<path d="" fill="#6F6D6E" transform="translate(0,0)"/>
<path d="" fill="#636463" transform="translate(0,0)"/>
<path d="" fill="#4E4E4B" transform="translate(0,0)"/>
<path d="" fill="#5B5A57" transform="translate(0,0)"/>
<path d="" fill="#5A5C59" transform="translate(0,0)"/>
<path d="" fill="#605E60" transform="translate(0,0)"/>
<path d="" fill="#5D605F" transform="translate(0,0)"/>
<path d="" fill="#575859" transform="translate(0,0)"/>
<path d="" fill="#4E504F" transform="translate(0,0)"/>
<path d="" fill="#464544" transform="translate(0,0)"/>
<path d="" fill="#504F4F" transform="translate(0,0)"/>
<path d="" fill="#4D4F4D" transform="translate(0,0)"/>
<path d="" fill="#353533" transform="translate(0,0)"/>
<path d="" fill="#343534" transform="translate(0,0)"/>
<path d="" fill="#FEFDFF" transform="translate(0,0)"/>
<path d="" fill="#494B4A" transform="translate(0,0)"/>
<path d="" fill="#555252" transform="translate(0,0)"/>
<path d="" fill="#4B4C4B" transform="translate(0,0)"/>
<path d="" fill="#4E4E4E" transform="translate(0,0)"/>
<path d="" fill="#515152" transform="translate(0,0)"/>
<path d="" fill="#555354" transform="translate(0,0)"/>
<path d="" fill="#525050" transform="translate(0,0)"/>
<path d="" fill="#525253" transform="translate(0,0)"/>
<path d="" fill="#424343" transform="translate(0,0)"/>
<path d="" fill="#49494A" transform="translate(0,0)"/>
<path d="" fill="#4B4B4B" transform="translate(0,0)"/>
<path d="" fill="#5C5C5E" transform="translate(0,0)"/>
<path d="" fill="#585657" transform="translate(0,0)"/>
<path d="" fill="#505050" transform="translate(0,0)"/>
<path d="" fill="#585856" transform="translate(0,0)"/>
<path d="" fill="#555757" transform="translate(0,0)"/>
<path d="" fill="#565757" transform="translate(0,0)"/>
<path d="" fill="#4C4E4D" transform="translate(0,0)"/>
<path d="" fill="#5B595A" transform="translate(0,0)"/>
<path d="" fill="#4A4B4A" transform="translate(0,0)"/>
<path d="" fill="#545455" transform="translate(0,0)"/>
<path d="" fill="#565955" transform="translate(0,0)"/>
<path d="" fill="#404342" transform="translate(0,0)"/>
<path d="" fill="#505151" transform="translate(0,0)"/>
<path d="" fill="#504F50" transform="translate(0,0)"/>
<path d="" fill="#4C4B48" transform="translate(0,0)"/>
<path d="" fill="#494846" transform="translate(0,0)"/>
<path d="" fill="#4A4C47" transform="translate(0,0)"/>
<path d="" fill="#424445" transform="translate(0,0)"/>
<path d="" fill="#464746" transform="translate(0,0)"/>
<path d="" fill="#404041" transform="translate(0,0)"/>
<path d="" fill="#424141" transform="translate(0,0)"/>
<path d="" fill="#3A3A3C" transform="translate(0,0)"/>
<path d="" fill="#383938" transform="translate(0,0)"/>
<path d="" fill="#383937" transform="translate(0,0)"/>
<path d="" fill="#4F4E4E" transform="translate(0,0)"/>
<path d="" fill="#373534" transform="translate(0,0)"/>
<path d="" fill="#5B5A5C" transform="translate(0,0)"/>
<path d="" fill="#383634" transform="translate(0,0)"/>
<path d="" fill="#474645" transform="translate(0,0)"/>
<path d="" fill="#464645" transform="translate(0,0)"/>
<path d="" fill="#4D4D4A" transform="translate(0,0)"/>
<path d="" fill="#4C4D4D" transform="translate(0,0)"/>
<path d="" fill="#4E4E4D" transform="translate(0,0)"/>
<path d="" fill="#4F5050" transform="translate(0,0)"/>
<path d="" fill="#504E4C" transform="translate(0,0)"/>
<path d="" fill="#4C4E4D" transform="translate(0,0)"/>
<path d="" fill="#545352" transform="translate(0,0)"/>
<path d="" fill="#464547" transform="translate(0,0)"/>
<path d="" fill="#525452" transform="translate(0,0)"/>
<path d="" fill="#585755" transform="translate(0,0)"/>
<path d="" fill="#535353" transform="translate(0,0)"/>
<path d="" fill="#4E5151" transform="translate(0,0)"/>
<path d="" fill="#4F5051" transform="translate(0,0)"/>
<path d="" fill="#52514F" transform="translate(0,0)"/>
<path d="" fill="#525454" transform="translate(0,0)"/>
<path d="" fill="#4E504F" transform="translate(0,0)"/>
<path d="" fill="#515251" transform="translate(0,0)"/>
<path d="" fill="#504E4C" transform="translate(0,0)"/>
<path d="" fill="#525150" transform="translate(0,0)"/>
<path d="" fill="#4F4F51" transform="translate(0,0)"/>
<path d="" fill="#4D5050" transform="translate(0,0)"/>
<path d="" fill="#4C4D4C" transform="translate(0,0)"/>
<path d="" fill="#4A4C48" transform="translate(0,0)"/>
<path d="" fill="#494A4A" transform="translate(0,0)"/>
<path d="" fill="#505051" transform="translate(0,0)"/>
<path d="" fill="#515553" transform="translate(0,0)"/>
<path d="" fill="#504F50" transform="translate(0,0)"/>
<path d="" fill="#424747" transform="translate(0,0)"/>
<path d="" fill="#4D4E4E" transform="translate(0,0)"/>
<path d="" fill="#464748" transform="translate(0,0)"/>
<path d="" fill="#4B4B4B" transform="translate(0,0)"/>
<path d="" fill="#484A47" transform="translate(0,0)"/>
<path d="" fill="#4E4E4F" transform="translate(0,0)"/>
<path d="" fill="#343535" transform="translate(0,0)"/>
<path d="" fill="#333333" transform="translate(0,0)"/>
<path d="" fill="#403F41" transform="translate(0,0)"/>
<path d="" fill="#4F4E50" transform="translate(0,0)"/>
<path d="" fill="#4D4C4C" transform="translate(0,0)"/>
<path d="" fill="#4F4F4F" transform="translate(0,0)"/>
<path d="" fill="#525251" transform="translate(0,0)"/>
<path d="" fill="#4C4E4E" transform="translate(0,0)"/>
<path d="" fill="#4B4C4C" transform="translate(0,0)"/>
<path d="" fill="#525150" transform="translate(0,0)"/>
<path d="" fill="#535050" transform="translate(0,0)"/>
<path d="" fill="#555654" transform="translate(0,0)"/>
<path d="" fill="#515350" transform="translate(0,0)"/>
<path d="" fill="#545654" transform="translate(0,0)"/>
<path d="" fill="#50534F" transform="translate(0,0)"/>
<path d="" fill="#515150" transform="translate(0,0)"/>
<path d="" fill="#4F514F" transform="translate(0,0)"/>
<path d="" fill="#4E4E4D" transform="translate(0,0)"/>
<path d="" fill="#4F4E4E" transform="translate(0,0)"/>
<path d="" fill="#50514F" transform="translate(0,0)"/>
<path d="" fill="#50504E" transform="translate(0,0)"/>
<path d="" fill="#505151" transform="translate(0,0)"/>
<path d="" fill="#4E504F" transform="translate(0,0)"/>
<path d="" fill="#4F514F" transform="translate(0,0)"/>
<path d="" fill="#4D4E4F" transform="translate(0,0)"/>
<path d="" fill="#50504E" transform="translate(0,0)"/>
<path d="" fill="#565453" transform="translate(0,0)"/>
<path d="" fill="#4D4F50" transform="translate(0,0)"/>
<path d="" fill="#494847" transform="translate(0,0)"/>
<path d="" fill="#474948" transform="translate(0,0)"/>
<path d="" fill="#4F4F50" transform="translate(0,0)"/>
<path d="" fill="#535351" transform="translate(0,0)"/>
<path d="" fill="#50504F" transform="translate(0,0)"/>
<path d="" fill="#4E4E4F" transform="translate(0,0)"/>
<path d="" fill="#4D4E4C" transform="translate(0,0)"/>
<path d="" fill="#575857" transform="translate(0,0)"/>
<path d="" fill="#595959" transform="translate(0,0)"/>
<path d="" fill="#565759" transform="translate(0,0)"/>
<path d="" fill="#474546" transform="translate(0,0)"/>
<path d="" fill="#4E4D4E" transform="translate(0,0)"/>
<path d="" fill="#4C4B4B" transform="translate(0,0)"/>
<path d="" fill="#484948" transform="translate(0,0)"/>
<path d="" fill="#505050" transform="translate(0,0)"/>
<path d="" fill="#474746" transform="translate(0,0)"/>
<path d="" fill="#484547" transform="translate(0,0)"/>
<path d="" fill="#545555" transform="translate(0,0)"/>
<path d="" fill="#434543" transform="translate(0,0)"/>
<path d="" fill="#4D4B4D" transform="translate(0,0)"/>
<path d="" fill="#3F4240" transform="translate(0,0)"/>
<path d="" fill="#3D3D3C" transform="translate(0,0)"/>
<path d="" fill="#3A3B3C" transform="translate(0,0)"/>
<path d="" fill="#545554" transform="translate(0,0)"/>
<path d="" fill="#515050" transform="translate(0,0)"/>
<path d="" fill="#4E4D4E" transform="translate(0,0)"/>
<path d="" fill="#525350" transform="translate(0,0)"/>
<path d="" fill="#464844" transform="translate(0,0)"/>
<path d="" fill="#4E504F" transform="translate(0,0)"/>
<path d="" fill="#4E504E" transform="translate(0,0)"/>
<path d="" fill="#4F5051" transform="translate(0,0)"/>
<path d="" fill="#52504D" transform="translate(0,0)"/>
<path d="" fill="#525351" transform="translate(0,0)"/>
<path d="" fill="#525251" transform="translate(0,0)"/>
<path d="" fill="#464847" transform="translate(0,0)"/>
<path d="" fill="#484846" transform="translate(0,0)"/>
<path d="" fill="#616361" transform="translate(0,0)"/>
<path d="" fill="#5C5D5C" transform="translate(0,0)"/>
<path d="" fill="#656362" transform="translate(0,0)"/>
<path d="" fill="#5D5E5C" transform="translate(0,0)"/>
<path d="" fill="#4C4C4D" transform="translate(0,0)"/>
<path d="" fill="#61635F" transform="translate(0,0)"/>
<path d="" fill="#565656" transform="translate(0,0)"/>
<path d="" fill="#4A4B4C" transform="translate(0,0)"/>
<path d="" fill="#5C5B5B" transform="translate(0,0)"/>
<path d="" fill="#575757" transform="translate(0,0)"/>
<path d="" fill="#4E4F4D" transform="translate(0,0)"/>
<path d="" fill="#585957" transform="translate(0,0)"/>
<path d="" fill="#585A5B" transform="translate(0,0)"/>
<path d="" fill="#484A49" transform="translate(0,0)"/>
<path d="" fill="#444342" transform="translate(0,0)"/>
<path d="" fill="#4A4B4C" transform="translate(0,0)"/>
<path d="" fill="#404341" transform="translate(0,0)"/>
<path d="" fill="#545755" transform="translate(0,0)"/>
<path d="" fill="#444343" transform="translate(0,0)"/>
<path d="" fill="#545555" transform="translate(0,0)"/>
<path d="" fill="#3F3E3D" transform="translate(0,0)"/>
<path d="" fill="#3B3C3B" transform="translate(0,0)"/>
<path d="" fill="#3E3E3E" transform="translate(0,0)"/>
<path d="" fill="#50534F" transform="translate(0,0)"/>
<path d="" fill="#585856" transform="translate(0,0)"/>
<path d="" fill="#504D4D" transform="translate(0,0)"/>
<path d="" fill="#41413D" transform="translate(0,0)"/>
<path d="" fill="#414240" transform="translate(0,0)"/>
<path d="" fill="#474947" transform="translate(0,0)"/>
<path d="" fill="#454746" transform="translate(0,0)"/>
<path d="" fill="#565554" transform="translate(0,0)"/>
<path d="" fill="#535352" transform="translate(0,0)"/>
<path d="" fill="#535352" transform="translate(0,0)"/>
<path d="" fill="#575756" transform="translate(0,0)"/>
<path d="" fill="#585755" transform="translate(0,0)"/>
<path d="" fill="#5A5A59" transform="translate(0,0)"/>
<path d="" fill="#5A5B57" transform="translate(0,0)"/>
<path d="" fill="#5B5B5A" transform="translate(0,0)"/>
<path d="" fill="#545653" transform="translate(0,0)"/>
<path d="" fill="#545453" transform="translate(0,0)"/>
<path d="" fill="#5C5D5B" transform="translate(0,0)"/>
<path d="" fill="#5C5A5B" transform="translate(0,0)"/>
<path d="" fill="#595B58" transform="translate(0,0)"/>
<path d="" fill="#565555" transform="translate(0,0)"/>
<path d="" fill="#5A5C58" transform="translate(0,0)"/>
<path d="" fill="#5E5F5D" transform="translate(0,0)"/>
<path d="" fill="#636361" transform="translate(0,0)"/>
<path d="" fill="#545752" transform="translate(0,0)"/>
<path d="" fill="#4F4F50" transform="translate(0,0)"/>
<path d="" fill="#545554" transform="translate(0,0)"/>
<path d="" fill="#5A5C5A" transform="translate(0,0)"/>
<path d="" fill="#424544" transform="translate(0,0)"/>
<path d="" fill="#505151" transform="translate(0,0)"/>
<path d="" fill="#535454" transform="translate(0,0)"/>
<path d="" fill="#5F5C5B" transform="translate(0,0)"/>
<path d="" fill="#4C4D4E" transform="translate(0,0)"/>
<path d="" fill="#565957" transform="translate(0,0)"/>
<path d="" fill="#595757" transform="translate(0,0)"/>
<path d="" fill="#5B5C5A" transform="translate(0,0)"/>
<path d="" fill="#595A5A" transform="translate(0,0)"/>
<path d="" fill="#5F5F60" transform="translate(0,0)"/>
<path d="" fill="#58595A" transform="translate(0,0)"/>
<path d="" fill="#5D5B5C" transform="translate(0,0)"/>
<path d="" fill="#616363" transform="translate(0,0)"/>
<path d="" fill="#5A5C5A" transform="translate(0,0)"/>
<path d="" fill="#5C5F5A" transform="translate(0,0)"/>
<path d="" fill="#606464" transform="translate(0,0)"/>
<path d="" fill="#686867" transform="translate(0,0)"/>
<path d="" fill="#676866" transform="translate(0,0)"/>
<path d="" fill="#646665" transform="translate(0,0)"/>
<path d="" fill="#5E605F" transform="translate(0,0)"/>
<path d="" fill="#666766" transform="translate(0,0)"/>
<path d="" fill="#5F6260" transform="translate(0,0)"/>
<path d="" fill="#5B615D" transform="translate(0,0)"/>
<path d="" fill="#626363" transform="translate(0,0)"/>
<path d="" fill="#636564" transform="translate(0,0)"/>
<path d="" fill="#5A5B5C" transform="translate(0,0)"/>
<path d="" fill="#484644" transform="translate(0,0)"/>
<path d="" fill="#6D6D6B" transform="translate(0,0)"/>
<path d="" fill="#565856" transform="translate(0,0)"/>
<path d="" fill="#565755" transform="translate(0,0)"/>
<path d="" fill="#575B57" transform="translate(0,0)"/>
<path d="" fill="#5A5C5E" transform="translate(0,0)"/>
<path d="" fill="#595B5A" transform="translate(0,0)"/>
<path d="" fill="#646563" transform="translate(0,0)"/>
<path d="" fill="#686B6A" transform="translate(0,0)"/>
<path d="" fill="#B7B9B7" transform="translate(0,0)"/>
<path d="" fill="#6E6F6E" transform="translate(0,0)"/>
<path d="" fill="#6C6D6C" transform="translate(0,0)"/>
<path d="" fill="#696C6B" transform="translate(0,0)"/>
<path d="" fill="#909495" transform="translate(0,0)"/>
<path d="" fill="#959699" transform="translate(0,0)"/>
<path d="" fill="#646565" transform="translate(0,0)"/>
<path d="" fill="#646666" transform="translate(0,0)"/>
<path d="" fill="#666966" transform="translate(0,0)"/>
<path d="" fill="#AFAFAE" transform="translate(0,0)"/>
<path d="" fill="#707070" transform="translate(0,0)"/>
<path d="" fill="#FFFFFF" transform="translate(0,0)"/>
</svg>
