<?xml version="1.0" encoding="UTF-8"?>
<svg version="1.1" xmlns="http://www.w3.org/2000/svg" width="100" height="100">
<path d="M0 0 C7.70307882 6.80897145 12.57985002 17.7660384 13.30078125 27.89453125 C13.57690243 41.71512309 10.39308429 52.0626912 1.0625 62.546875 C-3.06302092 66.33246535 -7.69764829 69.52238684 -12.9375 71.546875 C-15.109375 71.11328125 -15.109375 71.11328125 -16.9375 70.546875 C-16.97488281 69.44988281 -17.01226562 68.35289063 -17.05078125 67.22265625 C-17.11646653 65.76819643 -17.18291299 64.31377084 -17.25 62.859375 C-17.28383789 61.7775293 -17.28383789 61.7775293 -17.31835938 60.67382812 C-17.54685395 56.12470888 -18.28346963 53.38205561 -20.9375 49.546875 C-20.9375 48.886875 -20.9375 48.226875 -20.9375 47.546875 C-20.10605469 47.17175781 -19.27460937 46.79664063 -18.41796875 46.41015625 C-16.78794922 45.64251953 -16.78794922 45.64251953 -15.125 44.859375 C-14.04605469 44.36050781 -12.96710938 43.86164062 -11.85546875 43.34765625 C-8.62194498 41.35213489 -7.44713074 40.00190618 -5.9375 36.546875 C-5.19915571 31.97927452 -5.24665482 27.84220971 -7.4375 23.734375 C-9.86592693 18.57396776 -9.16235417 13.1599014 -8.9375 7.546875 C-10.7628125 8.2275 -10.7628125 8.2275 -12.625 8.921875 C-13.30949219 9.17710938 -13.99398437 9.43234375 -14.69921875 9.6953125 C-16.96924626 10.52541784 -16.96924626 10.52541784 -19.21484375 11.625 C-22.75181303 12.82259648 -26.11815994 12.92874579 -29.8125 12.921875 C-30.88213989 12.92380859 -30.88213989 12.92380859 -31.97338867 12.92578125 C-37.52384224 12.81350912 -40.55815107 11.80592536 -44.9375 8.546875 C-45.9275 8.546875 -46.9175 8.546875 -47.9375 8.546875 C-47.97488281 9.34351562 -48.01226562 10.14015625 -48.05078125 10.9609375 C-48.42824947 17.04483711 -49.20724997 21.08637494 -51.9375 26.546875 C-52.62176727 31.36857225 -52.42349608 35.32031346 -50.625 39.859375 C-46.69640742 43.78796758 -42.06334602 45.54956258 -36.9375 47.546875 C-37.24429688 48.15015625 -37.55109375 48.7534375 -37.8671875 49.375 C-39.02362063 51.72163073 -39.989634 54.1095053 -40.9375 56.546875 C-44.125 56.859375 -44.125 56.859375 -47.9375 56.546875 C-50.875 54.046875 -50.875 54.046875 -52.9375 51.546875 C-52.9375 54.95849498 -51.86183235 56.74784613 -49.9375 59.546875 C-46.91267637 60.69459177 -44.17239245 61.07805001 -40.9375 61.546875 C-40.9375 64.516875 -40.9375 67.486875 -40.9375 70.546875 C-49.52442077 70.18147412 -55.36155271 65.45628368 -61.1875 59.421875 C-69.75145119 49.33658317 -71.74664383 37.37330313 -70.9375 24.546875 C-69.16222366 14.07575356 -63.31502138 4.09832097 -54.9375 -2.453125 C-36.83914199 -14.34476235 -17.12672351 -12.84504263 0 0 Z " fill="#FFFFFF" transform="translate(78.9375,18.453125)"/>
</svg>
