<?xml version="1.0" encoding="UTF-8"?>
<svg version="1.1" xmlns="http://www.w3.org/2000/svg" width="100" height="100">
<path d="M0 0 C1.90217285 -0.00945648 1.90217285 -0.00945648 3.84277344 -0.019104 C5.22330871 -0.0155241 6.60384271 -0.01142211 7.984375 -0.00683594 C9.40397203 -0.00818375 10.82356861 -0.01012525 12.24316406 -0.01263428 C15.21553958 -0.01558009 18.18779474 -0.01130542 21.16015625 -0.00195312 C24.96667055 0.00944119 28.77290279 0.0028788 32.57940674 -0.00909805 C35.50994993 -0.01633135 38.44042646 -0.01402199 41.37097168 -0.00884247 C42.77437371 -0.00751003 44.17778184 -0.00913946 45.58117676 -0.01380157 C47.54369997 -0.01889065 49.50624445 -0.00975642 51.46875 0 C52.58475586 0.00159119 53.70076172 0.00318237 54.85058594 0.00482178 C57.75811133 0.26087945 59.36784634 0.57430397 61.734375 2.25878906 C64.06905708 5.53877773 63.98754234 8.58152204 63.99316406 12.52441406 C63.99946838 13.7925293 64.00577271 15.06064453 64.01226807 16.3671875 C64.00868816 17.74772277 64.00458617 19.12825677 64 20.50878906 C64.00134781 21.92838609 64.00328931 23.34798267 64.00579834 24.76757812 C64.00874416 27.73995365 64.00446948 30.7122088 63.99511719 33.68457031 C63.98372287 37.49108461 63.99028526 41.29731685 64.00226212 45.1038208 C64.00949541 48.03436399 64.00718605 50.96484052 64.00200653 53.89538574 C64.0006741 55.29878778 64.00230352 56.7021959 64.00696564 58.10559082 C64.01205471 60.06811403 64.00292048 62.03065851 63.99316406 63.99316406 C63.99157288 65.10916992 63.98998169 66.22517578 63.98834229 67.375 C63.73228461 70.28252539 63.4188601 71.89226041 61.734375 74.25878906 C58.45438633 76.59347114 55.41164202 76.5119564 51.46875 76.51757812 C50.20063477 76.52388245 48.93251953 76.53018677 47.62597656 76.53668213 C46.24544129 76.53310222 44.86490729 76.52900023 43.484375 76.52441406 C42.06477797 76.52576187 40.64518139 76.52770337 39.22558594 76.5302124 C36.25321042 76.53315822 33.28095526 76.52888354 30.30859375 76.51953125 C26.50207945 76.50813694 22.69584721 76.51469932 18.88934326 76.52667618 C15.95880007 76.53390947 13.02832354 76.53160011 10.09777832 76.52642059 C8.69437629 76.52508816 7.29096816 76.52671758 5.88757324 76.5313797 C3.92505003 76.53646878 1.96250555 76.52733455 0 76.51757812 C-1.67400879 76.51519135 -1.67400879 76.51519135 -3.38183594 76.51275635 C-6.28936133 76.25669867 -7.89909634 75.94327416 -10.265625 74.25878906 C-12.60030708 70.97880039 -12.51879234 67.93605608 -12.52441406 63.99316406 C-12.53071838 62.72504883 -12.53702271 61.45693359 -12.54351807 60.15039062 C-12.53993816 58.76985536 -12.53583617 57.38932136 -12.53125 56.00878906 C-12.53259781 54.58919203 -12.53453931 53.16959545 -12.53704834 51.75 C-12.53999416 48.77762448 -12.53571948 45.80536932 -12.52636719 42.83300781 C-12.51497287 39.02649352 -12.52153526 35.22026128 -12.53351212 31.41375732 C-12.54074541 28.48321413 -12.53843605 25.5527376 -12.53325653 22.62219238 C-12.5319241 21.21879035 -12.53355352 19.81538223 -12.53821564 18.4119873 C-12.54330471 16.4494641 -12.53417048 14.48691962 -12.52441406 12.52441406 C-12.52282288 11.4084082 -12.52123169 10.29240234 -12.51959229 9.14257812 C-12.26353461 6.23505274 -11.9501101 4.62531772 -10.265625 2.25878906 C-6.98563633 -0.07589301 -3.94289202 0.00562172 0 0 Z M3.859375 16.50878906 C2.51633106 18.20382476 2.51633106 18.20382476 2.921875 20.32128906 C3.66907836 22.44591432 3.66907836 22.44591432 5.734375 24.25878906 C9.56002165 24.07121844 9.56002165 24.07121844 12.734375 22.25878906 C12.9844523 19.80068908 12.9844523 19.80068908 12.734375 17.25878906 C10.91233919 15.02912159 10.91233919 15.02912159 8.296875 14.94628906 C5.71954629 15.06559612 5.71954629 15.06559612 3.859375 16.50878906 Z M3.734375 32.25878906 C2.40067459 36.25989029 2.51102025 39.94382309 2.484375 44.13378906 C2.46375 44.936875 2.443125 45.73996094 2.421875 46.56738281 C2.39097859 51.25591331 2.5862137 54.50492452 5.734375 58.25878906 C8.27764608 58.92564845 8.27764608 58.92564845 10.734375 58.25878906 C13.71612651 53.78616179 13.06364962 49.51931106 13.046875 44.25878906 C13.06298828 43.24816406 13.07910156 42.23753906 13.09570312 41.19628906 C13.09634766 40.22691406 13.09699219 39.25753906 13.09765625 38.25878906 C13.10063721 37.37191406 13.10361816 36.48503906 13.10668945 35.57128906 C12.90627225 33.20266261 12.90627225 33.20266261 11.39916992 31.44628906 C8.25963625 29.20685633 6.77370089 30.2325718 3.734375 32.25878906 Z M24.12817383 31.42651367 C22.25873356 33.88406301 22.3613157 35.44529453 22.37109375 38.51269531 C22.37173828 39.53169922 22.37238281 40.55070312 22.37304688 41.60058594 C22.38916016 42.66341797 22.40527344 43.72625 22.421875 44.82128906 C22.41865234 45.88798828 22.41542969 46.9546875 22.41210938 48.05371094 C22.06720293 53.7140658 22.06720293 53.7140658 24.734375 58.25878906 C27.234375 58.5921224 27.234375 58.5921224 29.734375 58.25878906 C32.65975419 55.33340987 32.15693167 52.12494198 32.296875 48.19628906 C32.61444257 40.37872149 32.61444257 40.37872149 33.734375 39.25878906 C35.73395864 39.21798123 37.73482754 39.2162455 39.734375 39.25878906 C39.77175781 40.37898438 39.80914062 41.49917969 39.84765625 42.65332031 C39.91331757 44.12600996 39.97976486 45.59866472 40.046875 47.07128906 C40.06943359 47.80927734 40.09199219 48.54726563 40.11523438 49.30761719 C40.30782178 53.53790352 40.30782178 53.53790352 42.1171875 57.27441406 C43.78385427 58.48860951 43.78385427 58.48860951 46.296875 58.19628906 C48.82541292 57.49912785 48.82541292 57.49912785 49.87109375 55.49316406 C52.30942333 49.18219339 51.14693283 40.47333593 48.734375 34.25878906 C46.78297613 31.46381722 46.78297613 31.46381722 43.734375 30.25878906 C40.68189733 30.03615154 38.79267818 30.45661118 35.734375 31.25878906 C34.1444317 33.179437 34.1444317 33.179437 33.734375 35.25878906 C33.074375 35.25878906 32.414375 35.25878906 31.734375 35.25878906 C31.486875 34.61941406 31.239375 33.98003906 30.984375 33.32128906 C29.91026558 31.12707689 29.91026558 31.12707689 27.796875 30.32128906 C25.68172299 30.04653523 25.68172299 30.04653523 24.12817383 31.42651367 Z " fill="#FFFFFF" transform="translate(24.265625,11.7412109375)"/>
</svg>
