<?xml version="1.0" encoding="UTF-8"?>
<svg version="1.1" xmlns="http://www.w3.org/2000/svg" width="100" height="100">
<path d="M0 0 C6.12121434 2.71978983 11.68537569 6.19994774 17.3125 9.8125 C18.14410645 10.33932373 18.97571289 10.86614746 19.83251953 11.40893555 C23.42129928 13.68625567 26.99479657 15.97639452 30.50390625 18.375 C31.45136719 19.014375 32.39882813 19.65375 33.375 20.3125 C34.16648438 20.86550781 34.95796875 21.41851562 35.7734375 21.98828125 C38.78920741 23.35860477 39.87182055 23.11592648 43 22 C45.83934291 20.51285294 48.53974378 18.83398168 51.25 17.125 C52.03197754 16.64192383 52.81395508 16.15884766 53.61962891 15.66113281 C57.7337665 13.10536817 61.79676927 10.48514939 65.8203125 7.7890625 C66.58569336 7.27972168 67.35107422 6.77038086 68.13964844 6.24560547 C69.60653781 5.26415459 71.06587542 4.27130178 72.51660156 3.26611328 C77.51634537 -0.08286353 77.51634537 -0.08286353 80.21728516 0.37988281 C80.80558105 0.58452148 81.39387695 0.78916016 82 1 C82.10141463 7.33531015 82.17147114 13.67041102 82.21972656 20.00634766 C82.23984276 22.16170067 82.26713925 24.31699911 82.30175781 26.47216797 C82.35027486 29.57012395 82.37296873 32.66735846 82.390625 35.765625 C82.41127014 36.72929993 82.43191528 37.69297485 82.45318604 38.68585205 C82.45543233 45.38206379 82.45543233 45.38206379 80.10058594 48.57714844 C76.27412666 51.16903647 73.86476111 51.13126202 69.22705078 51.14526367 C68.53092682 51.14862228 67.83480286 51.1519809 67.11758423 51.15544128 C64.8101423 51.16496096 62.50277286 51.16689498 60.1953125 51.16796875 C58.59349538 51.17118091 56.99167856 51.17454495 55.38986206 51.17805481 C52.02894409 51.18404882 48.66805185 51.18589446 45.30712891 51.18530273 C41.00061923 51.18520116 36.6942746 51.19884711 32.38780403 51.21607494 C29.07810712 51.22719492 25.7684501 51.22922193 22.45873642 51.22869301 C20.87111721 51.22987337 19.28349699 51.23429829 17.69589615 51.24202538 C15.4743928 51.25182415 13.25324741 51.24894768 11.03173828 51.24291992 C9.76758087 51.24434494 8.50342346 51.24576996 7.20095825 51.24723816 C4.14310216 51.01105304 2.49123648 50.73271539 0 49 C-2.10483746 45.84274381 -2.2472059 45.12625389 -2.22705078 41.52856445 C-2.22689972 40.62785721 -2.22674866 39.72714996 -2.22659302 38.79914856 C-2.21627045 37.83031235 -2.20594788 36.86147614 -2.1953125 35.86328125 C-2.1924826 34.86870407 -2.18965271 33.87412689 -2.18673706 32.84941101 C-2.17553489 29.6703187 -2.15043014 26.49150728 -2.125 23.3125 C-2.11497025 21.15820719 -2.10584439 19.00390997 -2.09765625 16.84960938 C-2.07559546 11.56631028 -2.04211756 6.28317521 -2 1 C-1.34 0.67 -0.68 0.34 0 0 Z " fill="#FFFFFF" transform="translate(10,33)"/>
<path d="M0 0 C0.69495575 -0.00700928 1.3899115 -0.01401855 2.10592651 -0.02124023 C4.39264426 -0.03877966 6.67811443 -0.02721326 8.96484375 -0.01367188 C10.55997962 -0.01636799 12.15511388 -0.02025141 13.75024414 -0.02526855 C17.08918952 -0.03115806 20.42770612 -0.02261874 23.76660156 -0.00390625 C28.04069652 0.0188835 32.31378673 0.0057574 36.58784485 -0.01819611 C39.88048842 -0.0326692 43.17289484 -0.02804128 46.46554565 -0.01768494 C48.04116943 -0.0150218 49.61681493 -0.01827289 51.19241333 -0.02760315 C53.39708252 -0.03779434 55.60013813 -0.02223494 57.8046875 0 C59.05757568 0.00318237 60.31046387 0.00636475 61.60131836 0.00964355 C65.44830286 0.60158581 67.12406772 1.85920039 69.90234375 4.51757812 C69.62288386 7.79912536 69.33245664 9.14712574 66.79199219 11.33520508 C65.87450195 11.886521 64.95701172 12.43783691 64.01171875 13.00585938 C62.49070557 13.93676392 62.49070557 13.93676392 60.93896484 14.88647461 C59.85437988 15.52786377 58.76979492 16.16925293 57.65234375 16.83007812 C56.55873535 17.49144775 55.46512695 18.15281738 54.33837891 18.83422852 C52.17253928 20.1439294 50.00349621 21.44834958 47.83105469 22.74707031 C45.39996438 24.21674911 43.00540654 25.71984165 40.62890625 27.27539062 C39.52289063 27.9946875 38.416875 28.71398437 37.27734375 29.45507812 C36.35695312 30.06222656 35.4365625 30.669375 34.48828125 31.29492188 C31.16975018 32.86395545 29.55349644 33.10633199 25.90234375 32.51757812 C22.63251682 31.00537934 19.63104915 29.12952454 16.58984375 27.20507812 C15.72061279 26.66616943 14.85138184 26.12726074 13.95581055 25.57202148 C12.15645596 24.45231042 10.36097984 23.32634386 8.56933594 22.19433594 C6.01058678 20.58563132 3.43284039 19.0130265 0.84765625 17.44726562 C-0.69750689 16.49297975 -2.24182022 15.5373161 -3.78515625 14.58007812 C-4.50936768 14.1446167 -5.2335791 13.70915527 -5.97973633 13.26049805 C-10.8811792 10.15463917 -10.8811792 10.15463917 -12.0546875 6.70117188 C-12.06886719 5.98058594 -12.08304688 5.26 -12.09765625 4.51757812 C-8.07342419 0.66701439 -5.51953309 0.01401978 0 0 Z " fill="#FFFFFF" transform="translate(21.09765625,15.482421875)"/>
</svg>
