<?xml version="1.0" encoding="UTF-8"?>
<svg version="1.1" xmlns="http://www.w3.org/2000/svg" width="100" height="100">
<path d="M0 0 C1.14806625 -0.0127597 2.29613251 -0.02551941 3.47898865 -0.03866577 C4.71963577 -0.04089142 5.9602829 -0.04311707 7.23852539 -0.04541016 C8.51216446 -0.05206696 9.78580353 -0.05872375 11.09803772 -0.06558228 C13.79401611 -0.07571648 16.48959132 -0.08126327 19.18554688 -0.08007812 C22.6369737 -0.07987484 26.08757794 -0.10718546 29.53880978 -0.14162254 C32.8345176 -0.16923042 36.13021759 -0.16804045 39.42602539 -0.17041016 C41.28395973 -0.19196671 41.28395973 -0.19196671 43.1794281 -0.21395874 C44.90625572 -0.20472885 44.90625572 -0.20472885 46.66796875 -0.1953125 C48.18661781 -0.19958755 48.18661781 -0.19958755 49.73594666 -0.20394897 C53.10813689 0.4222749 54.26407611 1.667081 56.39868164 4.29052734 C57.86086254 7.21488915 57.53408611 9.79785498 57.54394531 13.06347656 C57.54730392 13.75960052 57.55066254 14.45572449 57.55412292 15.17294312 C57.5636426 17.48038505 57.56557662 19.78775448 57.56665039 22.09521484 C57.56986255 23.69703196 57.57322659 25.29884879 57.57673645 26.90066528 C57.58273046 30.26158325 57.5845761 33.6224755 57.58398438 36.98339844 C57.5838828 41.28990812 57.59752876 45.59625274 57.61475658 49.90272331 C57.62587656 53.21242022 57.62790357 56.52207725 57.62737465 59.83179092 C57.62855501 61.41941013 57.63297993 63.00703036 57.64070702 64.5946312 C57.65050579 66.81613455 57.64762932 69.03727993 57.64160156 71.25878906 C57.64302658 72.52294647 57.6444516 73.78710388 57.6459198 75.08956909 C57.40973468 78.14742518 57.13139703 79.79929086 55.39868164 82.29052734 C52.00281625 84.55443761 50.78394895 84.55101218 46.79736328 84.58105469 C45.64929703 84.59381439 44.50123077 84.6065741 43.31837463 84.61972046 C42.07772751 84.62194611 40.83708038 84.62417175 39.55883789 84.62646484 C38.28519882 84.63312164 37.01155975 84.63977844 35.69932556 84.64663696 C33.00334717 84.65677117 30.30777196 84.66231796 27.61181641 84.66113281 C24.16038958 84.66092953 20.70978534 84.68824015 17.2585535 84.72267723 C13.96284568 84.75028511 10.66714569 84.74909514 7.37133789 84.75146484 C5.51340355 84.77302139 5.51340355 84.77302139 3.61793518 84.79501343 C1.89110756 84.78578354 1.89110756 84.78578354 0.12939453 84.77636719 C-1.38925453 84.78064224 -1.38925453 84.78064224 -2.93858337 84.78500366 C-6.31077361 84.15877979 -7.46671283 82.91397369 -9.60131836 80.29052734 C-10.95571504 77.58173399 -10.66633287 75.28119467 -10.60131836 72.29052734 C-11.73569336 72.14615234 -12.87006836 72.00177734 -14.03881836 71.85302734 C-17.60131836 71.29052734 -17.60131836 71.29052734 -18.60131836 70.29052734 C-18.85131836 67.35302734 -18.85131836 67.35302734 -18.60131836 64.29052734 C-15.70039334 62.35657733 -14.70457099 61.98920793 -11.41381836 61.66552734 C-10.15569336 61.54177734 -8.89756836 61.41802734 -7.60131836 61.29052734 C-7.93131836 59.64052734 -8.26131836 57.99052734 -8.60131836 56.29052734 C-9.88006836 56.16677734 -11.15881836 56.04302734 -12.47631836 55.91552734 C-16.35131836 55.54052734 -16.35131836 55.54052734 -18.60131836 53.29052734 C-18.85131836 50.79052734 -18.85131836 50.79052734 -18.60131836 48.29052734 C-16.28837016 45.97757915 -15.1222696 45.79471759 -11.97631836 45.16552734 C-10.75041992 44.91416016 -10.75041992 44.91416016 -9.49975586 44.65771484 C-8.87327148 44.53654297 -8.24678711 44.41537109 -7.60131836 44.29052734 C-7.60131836 42.97052734 -7.60131836 41.65052734 -7.60131836 40.29052734 C-8.54104492 40.10876953 -8.54104492 40.10876953 -9.49975586 39.92333984 C-10.31702148 39.75576172 -11.13428711 39.58818359 -11.97631836 39.41552734 C-12.78842773 39.25310547 -13.60053711 39.09068359 -14.43725586 38.92333984 C-16.60131836 38.29052734 -16.60131836 38.29052734 -18.60131836 36.29052734 C-18.85131836 33.79052734 -18.85131836 33.79052734 -18.60131836 31.29052734 C-15.59514567 28.28435466 -12.77750238 28.69467418 -8.60131836 28.29052734 C-8.27131836 26.64052734 -7.94131836 24.99052734 -7.60131836 23.29052734 C-8.3115918 23.15775391 -9.02186523 23.02498047 -9.75366211 22.88818359 C-10.67276367 22.71158203 -11.59186523 22.53498047 -12.53881836 22.35302734 C-13.91360352 22.09199219 -13.91360352 22.09199219 -15.31616211 21.82568359 C-17.60131836 21.29052734 -17.60131836 21.29052734 -18.60131836 20.29052734 C-18.85131836 17.35302734 -18.85131836 17.35302734 -18.60131836 14.29052734 C-15.37340281 12.13858365 -14.31731027 12.08966292 -10.60131836 12.29052734 C-10.64256836 11.38302734 -10.68381836 10.47552734 -10.72631836 9.54052734 C-10.60411741 6.36330269 -10.35734705 4.8783591 -8.60131836 2.29052734 C-5.20545296 0.02661708 -3.98658567 0.03004251 0 0 Z M8.39868164 22.29052734 C8.06868164 23.94052734 7.73868164 25.59052734 7.39868164 27.29052734 C10.15812769 30.0499734 11.79104862 29.54858412 15.64868164 29.55615234 C16.89649414 29.55873047 18.14430664 29.56130859 19.42993164 29.56396484 C20.73961914 29.55623047 22.04930664 29.54849609 23.39868164 29.54052734 C25.36321289 29.55212891 25.36321289 29.55212891 27.36743164 29.56396484 C29.23915039 29.56009766 29.23915039 29.56009766 31.14868164 29.55615234 C32.87344727 29.55276855 32.87344727 29.55276855 34.63305664 29.54931641 C37.54067996 29.57396411 37.54067996 29.57396411 39.39868164 27.29052734 C39.06868164 25.64052734 38.73868164 23.99052734 38.39868164 22.29052734 C28.49868164 22.29052734 18.59868164 22.29052734 8.39868164 22.29052734 Z " fill="#FFFFFF" transform="translate(26.601318359375,7.70947265625)"/>
</svg>
