<?xml version="1.0" encoding="UTF-8"?>
<svg version="1.1" xmlns="http://www.w3.org/2000/svg" width="521" height="521">
<path d="M0 0 C171.93 0 343.86 0 521 0 C521 171.93 521 343.86 521 521 C349.07 521 177.14 521 0 521 C0 349.07 0 177.14 0 0 Z " fill="#1A6CEC" transform="translate(0,0)"/>
<path d="M0 0 C0.66 0.33 1.32 0.66 2 1 C1.67 1.66 1.34 2.32 1 3 C0.17273819 11.37733479 -0.0056077 18.69297384 5.08984375 25.75 C5.72019531 26.4925 6.35054687 27.235 7 28 C7.59941406 28.721875 8.19882813 29.44375 8.81640625 30.1875 C16.6729064 38.28996793 27.38468172 42.76524709 37.36938477 47.69946289 C39.69491539 48.8491707 42.0059752 50.02352389 44.31640625 51.203125 C47.57785579 52.8334327 50.887309 54.17971068 54.3125 55.4375 C60.33942674 57.71833237 66.18786468 60.21896524 72 63 C72.88727783 63.42321533 72.88727783 63.42321533 73.79248047 63.85498047 C90.9017335 72.06411915 108.39673688 81.32581869 121.4375 95.4296875 C123.04616957 97.12546006 123.04616957 97.12546006 125.34765625 98.734375 C139.18430053 110.55359986 146.52978052 130.35041487 148 148 C149.34554053 173.53418495 145.0487782 195.52788364 129 216 C128.35289062 216.88945312 127.70578125 217.77890625 127.0390625 218.6953125 C122.15753356 225.21065929 116.45068324 230.07886021 110 235 C108.98099609 235.81597656 108.98099609 235.81597656 107.94140625 236.6484375 C102.39386693 241.0080422 96.35882262 244.93798234 90 248 C89.34 247.67 88.68 247.34 88 247 C88.34933594 246.05640625 88.69867188 245.1128125 89.05859375 244.140625 C91.97991218 236.01187796 93.84035786 228.70049673 94 220 C94.02964844 219.27683594 94.05929687 218.55367187 94.08984375 217.80859375 C94.80663763 200.17546442 92.23142412 185.95329754 83.8046875 170.390625 C82 167 82 167 81.0078125 164.37109375 C73.97625044 147.82784503 55.25405843 135.91703032 40 128 C40 127.34 40 126.68 40 126 C39.42894531 125.84942139 38.85789062 125.69884277 38.26953125 125.54370117 C30.85555648 123.46699262 23.98593675 120.52586882 17 117.3125 C15.88882813 116.82072266 14.77765625 116.32894531 13.6328125 115.82226562 C6.20346813 112.41787782 0.12162462 108.40073291 -6 103 C-6.73250977 102.36384766 -7.46501953 101.72769531 -8.21972656 101.07226562 C-19.59221106 90.94136965 -26.20956498 74.92848506 -27.12475586 59.95947266 C-27.80494046 42.27467311 -24.04139391 25.12976846 -12.234375 11.33203125 C-8.37555054 7.30455188 -4.25130337 3.60663851 0 0 Z " fill="#FCFDFE" transform="translate(228,188)"/>
<path d="M0 0 C1.96895594 1.02111464 1.96895594 1.02111464 4.7734375 1.76953125 C23.01531605 8.47062949 38.0396846 25.01604452 46.4140625 42.1171875 C50.32460203 50.9588744 50.32460203 50.9588744 48.8359375 54.89453125 C47.40314453 54.00701172 47.40314453 54.00701172 45.94140625 53.1015625 C30.65724315 43.72142603 15.86018216 36.0923438 -2.4765625 36.33203125 C-3.65992188 36.34226318 -4.84328125 36.35249512 -6.0625 36.36303711 C-24.06582542 36.79903971 -38.59800782 43.98743542 -51.1640625 56.89453125 C-52.66503122 58.83747618 -53.88979767 60.78709326 -55.1640625 62.89453125 C-55.61910156 63.30316406 -56.07414062 63.71179688 -56.54296875 64.1328125 C-58.8875921 66.68082486 -60.23330704 69.68025866 -61.7265625 72.76953125 C-62.18192383 73.68798828 -62.18192383 73.68798828 -62.64648438 74.625 C-71.0089506 91.64143454 -71.93618793 111.99568871 -65.87060547 130.00537109 C-63.03460052 137.58830347 -59.41183696 144.69156977 -54.1640625 150.89453125 C-54.8240625 151.22453125 -55.4840625 151.55453125 -56.1640625 151.89453125 C-69.19307207 146.56228844 -81.09029908 136.49551877 -91.1640625 126.89453125 C-91.77507812 126.35828125 -92.38609375 125.82203125 -93.015625 125.26953125 C-101.70342544 117.33546692 -108.00038447 105.78540673 -112.1640625 94.89453125 C-112.48246094 94.10691406 -112.80085937 93.31929688 -113.12890625 92.5078125 C-118.3420476 77.20472015 -116.14255634 58.47313346 -109.43359375 44.0625 C-104.89995328 34.88873579 -98.99211946 24.62352004 -91.1640625 17.89453125 C-90.5040625 17.89453125 -89.8440625 17.89453125 -89.1640625 17.89453125 C-88.8340625 16.90453125 -88.5040625 15.91453125 -88.1640625 14.89453125 C-86.66113281 13.59179688 -86.66113281 13.59179688 -84.7421875 12.30078125 C-84.04609375 11.82769531 -83.35 11.35460937 -82.6328125 10.8671875 C-81.900625 10.38121094 -81.1684375 9.89523438 -80.4140625 9.39453125 C-79.33898437 8.66556641 -79.33898437 8.66556641 -78.2421875 7.921875 C-76.2268822 6.56228484 -74.19941554 5.22386622 -72.1640625 3.89453125 C-71.31585938 3.33894531 -70.46765625 2.78335938 -69.59375 2.2109375 C-49.56091125 -8.64286742 -20.53131337 -10.1893321 0 0 Z " fill="#FAFCFD" transform="translate(265.1640625,136.10546875)"/>
<path d="M0 0 C-1.24512137 3.51777008 -2.56435553 5.92143584 -5.125 8.625 C-8.74347162 12.61056294 -11.84511023 16.84942118 -14.9765625 21.22265625 C-17.47879377 24.65718605 -20.12161806 27.95809571 -22.79296875 31.26171875 C-29.34466456 39.39045992 -35.78945933 47.60737747 -42 56 C-45.06626932 53.48189056 -45.67464565 51.16681785 -46.625 47.375 C-53.64344164 23.65477805 -69.36195816 6.76963593 -90.64575195 -5.25 C-111.48898093 -16.50208466 -136.28673333 -18.02793701 -159 -12 C-171.93793149 -7.91890752 -182.68896934 -1.73425793 -193 7 C-193.62648437 7.48082031 -194.25296875 7.96164063 -194.8984375 8.45703125 C-200.38407216 12.76362679 -204.08669986 18.28384761 -208 24 C-208.42539063 24.60457031 -208.85078125 25.20914063 -209.2890625 25.83203125 C-211.52758585 29.07020053 -213.30913781 32.44918939 -215 36 C-216.57456169 31.27631492 -214.13787273 28.31137667 -212 24 C-211.21109375 22.31777344 -211.21109375 22.31777344 -210.40625 20.6015625 C-200.99529584 1.22986449 -185.29153 -13.6349589 -166.65087891 -24.06738281 C-165.28668703 -24.8380443 -163.94300446 -25.64488798 -162.60546875 -26.4609375 C-109.88230784 -58.11499587 -44.493431 -33.76451856 0 0 Z " fill="#F9FBFC" transform="translate(367,140)"/>
<path d="M0 0 C4.40536314 1.47172488 5.92414169 4.72235727 7.9375 8.625 C8.45582397 9.61294556 8.45582397 9.61294556 8.98461914 10.62084961 C18.5824052 29.60821224 22.35871717 54.49970619 16.04711914 75.05175781 C14.84734529 78.45448548 13.56599609 81.74839227 12 85 C11.56095337 85.96510498 11.56095337 85.96510498 11.11303711 86.94970703 C9.53650483 90.1027716 8.37370693 91.80447401 5.22265625 93.453125 C3.65837891 93.84757812 3.65837891 93.84757812 2.0625 94.25 C0.34160156 94.70052734 0.34160156 94.70052734 -1.4140625 95.16015625 C-3.18910156 95.57587891 -3.18910156 95.57587891 -5 96 C-6.14210938 96.28746094 -7.28421875 96.57492187 -8.4609375 96.87109375 C-30.98579708 102.35791852 -57.9105634 102.75571896 -80 95 C-81.39733623 94.58555891 -82.79731432 94.17996536 -84.19921875 93.78125 C-84.93333984 93.57113281 -85.66746094 93.36101562 -86.42382812 93.14453125 C-87.9437858 92.71175642 -89.46463768 92.28211093 -90.98632812 91.85546875 C-94.3835737 90.87797355 -97.03692963 89.97538025 -100 88 C-100 87.34 -100 86.68 -100 86 C-100.99 85.896875 -101.98 85.79375 -103 85.6875 C-110.5157808 84.58804219 -116.61341584 81.27144263 -122.875 77.1875 C-124.27026294 76.29338011 -125.66609611 75.40014944 -127.0625 74.5078125 C-128.06796875 73.86247559 -128.06796875 73.86247559 -129.09375 73.20410156 C-132.39559278 71.11846009 -135.78408624 69.18191714 -139.1796875 67.25390625 C-141 66 -141 66 -143 63 C-139.12058402 64.24930345 -135.33307472 65.64762779 -131.5480957 67.15771484 C-106.36516451 77.0475811 -79.81871271 76.63410484 -54.94042969 65.88867188 C-45.99644827 61.79253544 -38.14819038 56.79159131 -31 50 C-29.83611847 49.05904456 -28.66946729 48.12150408 -27.5 47.1875 C-23.00802436 43.3386936 -19.54572261 38.70664953 -16 34 C-15.37738281 33.20464844 -14.75476563 32.40929687 -14.11328125 31.58984375 C-9.30575954 25.17633865 -6.60903843 18.53922139 -4 11 C-3.23135984 8.89503119 -2.46069284 6.79080079 -1.6875 4.6875 C-1.12373769 3.12545501 -0.56072483 1.56313792 0 0 Z " fill="#F9FDFD" transform="translate(298,349)"/>
<path d="M0 0 C3.95945716 1.7445133 7.28831627 4.32296931 10.75 6.875 C15.65754015 10.44609469 20.42223777 13.54578462 26 16 C26 16.66 26 17.32 26 18 C26.70125 18.0825 27.4025 18.165 28.125 18.25 C31 19 31 19 33.55859375 20.84765625 C37.66206018 23.66120913 42.19388259 24.83769017 46.9375 26.1875 C47.80568359 26.44724609 48.67386719 26.70699219 49.56835938 26.97460938 C63.14286033 30.94538176 81.06593363 33.07656964 94 26 C92.60838098 30.16741523 90.66792321 32.79416663 87.6875 36 C86.87667969 36.87398438 86.06585938 37.74796875 85.23046875 38.6484375 C82.85826618 41.14942865 80.49965416 43.62532854 78 46 C77.05253906 46.90492188 77.05253906 46.90492188 76.0859375 47.828125 C67.75789708 55.53818362 58.78800334 61.40878717 48 65 C46.77410156 65.44601562 45.54820312 65.89203125 44.28515625 66.3515625 C31.0232969 70.83278129 17.86982107 70.70452085 4 70 C3.12980225 69.95987793 2.25960449 69.91975586 1.36303711 69.87841797 C-5.01665009 69.42964601 -10.51048335 67.72012019 -16.4375 65.375 C-17.80902222 64.84193237 -17.80902222 64.84193237 -19.20825195 64.2980957 C-35.47645634 57.78531549 -35.47645634 57.78531549 -40 51 C-39.29875 50.11699219 -38.5975 49.23398437 -37.875 48.32421875 C-33.47698356 42.76673941 -29.10436715 37.21781707 -25 31.4375 C-21.61595328 26.71782748 -17.94431032 22.32829957 -14.15869141 17.93237305 C-10.10755806 13.20085887 -6.36967096 8.28190145 -2.6796875 3.265625 C-1 1 -1 1 0 0 Z " fill="#FAFDFD" transform="translate(187,347)"/>
<path d="M0 0 C12.43702632 11.67105063 22.9481976 27.68353156 25.8125 44.75 C25.8125 46.07 25.8125 47.39 25.8125 48.75 C24.8225 48.42 23.8325 48.09 22.8125 47.75 C22.8125 46.43 22.8125 45.11 22.8125 43.75 C21.4925 43.75 20.1725 43.75 18.8125 43.75 C18.19375 42.11804688 18.19375 42.11804688 17.5625 40.453125 C9.10868378 18.71296756 -4.44894867 1.8633672 -25.1875 -9.25 C-27.45140834 -10.20189388 -27.45140834 -10.20189388 -29.5625 -10.8125 C-32.58935293 -11.75327861 -35.57754569 -12.74644489 -38.5625 -13.8125 C-54.34476599 -18.94714133 -71.28152395 -18.75022737 -87.1875 -14.25 C-88.22390625 -13.9715625 -89.2603125 -13.693125 -90.328125 -13.40625 C-97.81314649 -11.17993591 -103.80993696 -7.69751107 -110.1875 -3.25 C-111.08984375 -2.64542969 -111.9921875 -2.04085937 -112.921875 -1.41796875 C-125.31853448 6.99928968 -133.5074276 18.44224792 -140.1875 31.75 C-141.3046875 28.03125 -141.3046875 28.03125 -140.25 25.5 C-139.899375 24.9225 -139.54875 24.345 -139.1875 23.75 C-141.2620356 23.6009288 -141.2620356 23.6009288 -143.1875 24.75 C-142.67498023 20.09461208 -140.78145847 17.47103598 -137.9375 13.8125 C-137.52419434 13.28035889 -137.11088867 12.74821777 -136.68505859 12.19995117 C-135.52523529 10.71191478 -134.35668211 9.23069429 -133.1875 7.75 C-132.011875 6.1721875 -132.011875 6.1721875 -130.8125 4.5625 C-123.69624386 -3.06206015 -115.13771283 -8.97947282 -106.1875 -14.25 C-105.57003906 -14.62769531 -104.95257813 -15.00539062 -104.31640625 -15.39453125 C-99.70334858 -17.97332295 -94.72562808 -19.42487053 -89.6875 -20.9375 C-88.97513184 -21.15229004 -88.26276367 -21.36708008 -87.52880859 -21.58837891 C-55.83249087 -30.71009353 -24.46633991 -20.74897353 0 0 Z " fill="#2761D9" transform="translate(297.1875,148.25)"/>
<path d="M0 0 C2.75 -0.375 2.75 -0.375 6 0 C10 4.84210526 10 4.84210526 10 8 C11.051875 7.7215625 11.051875 7.7215625 12.125 7.4375 C15.33888698 6.94843024 17.83560336 7.33768442 21 8 C21 8.99 21 9.98 21 11 C22.98 10.67 24.96 10.34 27 10 C27 10.66 27 11.32 27 12 C27.99 12.33 28.98 12.66 30 13 C29.34 13 28.68 13 28 13 C28 13.66 28 14.32 28 15 C28.804375 15.144375 29.60875 15.28875 30.4375 15.4375 C33 16 33 16 34 17 C36.03039402 16.96777152 38.06128092 16.93188381 40.08984375 16.83984375 C42 17 42 17 44 19 C42.68 19 41.36 19 40 19 C40 19.99 40 20.98 40 22 C40.99 21.938125 41.98 21.87625 43 21.8125 C47.46888211 21.78508355 50.91304608 23.2791773 55 25 C55 25.66 55 26.32 55 27 C55.66 26.835 56.32 26.67 57 26.5 C61.77198356 25.70466941 66.35632344 25.45210781 71 27 C71 27.66 71 28.32 71 29 C71.886875 28.896875 72.77375 28.79375 73.6875 28.6875 C78.05829469 29.09983912 78.99249812 30.91914442 82 34 C85.33216019 35.27367411 85.33216019 35.27367411 89 36 C90.48009428 36.3713219 91.95927554 36.74630292 93.4375 37.125 C95.2009375 37.558125 95.2009375 37.558125 97 38 C97 38.66 97 39.32 97 40 C102.61 40.66 108.22 41.32 114 42 C113.505 42.99 113.505 42.99 113 44 C114.37285156 44.09087891 114.37285156 44.09087891 115.7734375 44.18359375 C116.96195312 44.26738281 118.15046875 44.35117187 119.375 44.4375 C120.55835938 44.51871094 121.74171875 44.59992188 122.9609375 44.68359375 C126 45 126 45 128 46 C128 46.99 128 47.98 128 49 C131.63 49.33 135.26 49.66 139 50 C139 50.99 139 51.98 139 53 C135 53 135 53 131.1875 52.0625 C124.5666956 50.49616876 117.77218736 50.33905549 111 50 C110.505 48.02 110.505 48.02 110 46 C109.0925 46.061875 108.185 46.12375 107.25 46.1875 C104 46 104 46 102.19140625 44.51953125 C99.28679934 42.50546336 97.19437391 42.59890126 93.6875 42.5 C88.41161594 42.21243791 84.81630399 41.22977036 80 39 C78.1743847 38.62670254 76.33962785 38.29663376 74.5 38 C69.89644482 37.25073171 66.18125363 36.04416844 62 34 C62 33.34 62 32.68 62 32 C60.35 32 58.7 32 57 32 C56.505 30.515 56.505 30.515 56 29 C55.40832031 28.95101563 54.81664062 28.90203125 54.20703125 28.8515625 C49.74702303 28.42957151 46.12475084 27.81086622 42 26 C40.4213993 25.50546491 38.83734124 25.02821763 37.25 24.5625 C35.49992339 24.04192415 33.74992404 23.52108849 32 23 C31.16082031 22.75121094 30.32164062 22.50242187 29.45703125 22.24609375 C28.66683594 21.99988281 27.87664062 21.75367188 27.0625 21.5 C26.35222656 21.2834375 25.64195312 21.066875 24.91015625 20.84375 C22.74916952 19.88920371 21.61890533 18.69493128 20 17 C17.40084462 15.80972016 17.40084462 15.80972016 15 15 C15 14.34 15 13.68 15 13 C14.443125 13.02320313 13.88625 13.04640625 13.3125 13.0703125 C7.82390985 13.20011024 3.2706649 12.53328434 -2 11 C-2.33 9.68 -2.66 8.36 -3 7 C-1.35 6.67 0.3 6.34 2 6 C2 5.34 2 4.68 2 4 C1.01 4 0.02 4 -1 4 C-0.67 2.68 -0.34 1.36 0 0 Z " fill="#129CFD" transform="translate(226,464)"/>
<path d="M0 0 C0.99 0.495 0.99 0.495 2 1 C0.35 2.98 -1.3 4.96 -3 7 C-2.01 8.98 -2.01 8.98 -1 11 C-21.15256975 27.79380813 -47.28626957 33.72658142 -73 32 C-82.71531162 31.04177748 -91.63933516 27.90364093 -100.63671875 24.3046875 C-103.11733876 23.34240285 -105.40714396 22.53826378 -108 22 C-107.67 22.66 -107.34 23.32 -107 24 C-108.65 24 -110.3 24 -112 24 C-111.67 23.01 -111.34 22.02 -111 21 C-111.66 21 -112.32 21 -113 21 C-112.67 19.35 -112.34 17.7 -112 16 C-111.01 16 -110.02 16 -109 16 C-109.33 15.01 -109.66 14.02 -110 13 C-109.34 13.268125 -108.68 13.53625 -108 13.8125 C-104.35092747 15.25692454 -100.67733509 16.62948028 -97 18 C-95.60396531 18.52029337 -94.20812726 19.04111472 -92.8125 19.5625 C-92.14605469 19.80871094 -91.47960937 20.05492187 -90.79296875 20.30859375 C-89.37893876 20.85387329 -87.99463566 21.47622521 -86.625 22.125 C-69.36183198 27.87938934 -46.72240304 25.19931177 -30 19 C-28.88496094 18.61585938 -27.76992187 18.23171875 -26.62109375 17.8359375 C-16.33343102 13.97313694 -8.13497026 7.23108468 0 0 Z " fill="#2CAAF2" transform="translate(265,392)"/>
<path d="M0 0 C1.69452408 1.64468514 3.35646185 3.30510129 5 5 C5.515625 5.53109375 6.03125 6.0621875 6.5625 6.609375 C9.77426519 10.11019905 11.67882042 13.14135741 13.16015625 17.734375 C14.17182405 20.46352533 15.53925433 22.88509144 16.9375 25.4375 C23.97047303 39.4508303 24.63167502 53.59262229 24 69 C23.979375 70.1240625 23.95875 71.248125 23.9375 72.40625 C23.5776673 80.77236026 20.88104394 88.217992 18 96 C24.43785331 92.84155422 30.76352839 89.54002616 37 86 C37 86.99 37 87.98 37 89 C35.01310269 90.35278115 33.01254782 91.68568305 31 93 C30.67 93.99 30.34 94.98 30 96 C27.6875 97.8125 27.6875 97.8125 25 99 C22.6875 98.1875 22.6875 98.1875 21 97 C21 97.66 21 98.32 21 99 C19.9275 99.12375 18.855 99.2475 17.75 99.375 C14.15316971 99.7855624 14.15316971 99.7855624 11.75 101.125 C11.1725 101.41375 10.595 101.7025 10 102 C9.01 101.67 8.02 101.34 7 101 C7.556875 100.01 8.11375 99.02 8.6875 98 C18.05976829 78.51643152 19.81608858 54.67256996 12.74951172 33.99609375 C9.31230724 24.84215766 5.55431532 16.32943434 -1 9 C0.32 9 1.64 9 3 9 C2.690625 8.2575 2.38125 7.515 2.0625 6.75 C1.1905075 4.49307824 0.52332993 2.3549847 0 0 Z " fill="#3D86E5" transform="translate(299,339)"/>
<path d="M0 0 C1.54850919 2.36830818 2 3.83545183 2 6.6875 C1.05842181 9.80647776 0.18067355 11.30074511 -1.6875 13.875 C-4.66177921 18.09215434 -6.52454915 22.3826907 -8.3125 27.1875 C-8.56668701 27.86474121 -8.82087402 28.54198242 -9.08276367 29.23974609 C-14.83089424 45.17658956 -12.86537326 62.80184545 -6 78 C-5.1028125 79.7325 -5.1028125 79.7325 -4.1875 81.5 C-3.5996875 82.7375 -3.5996875 82.7375 -3 84 C-3.495 84.99 -3.495 84.99 -4 86 C-5.33333333 89 -5.33333333 89 -4 92 C-7.32375505 90.95900289 -8.12719264 89.79981197 -10.03515625 86.796875 C-10.72943103 85.45734097 -11.40423523 84.10759212 -12.0625 82.75 C-12.41248047 82.0290918 -12.76246094 81.30818359 -13.12304688 80.56542969 C-20.73867483 64.2513491 -21.67699857 44.1284549 -16 27 C-13.43090165 19.97779783 -9.64859863 13.50666755 -6 7 C-5.34 7 -4.68 7 -4 7 C-3.71125 6.401875 -3.4225 5.80375 -3.125 5.1875 C-2 3 -2 3 0 0 Z " fill="#3174DC" transform="translate(214,192)"/>
<path d="M0 0 C17.73179286 5.23606437 33.21593391 22.27535097 41.91430664 37.94360352 C46.46715317 46.50611167 50.73828125 54.92046246 50.73828125 64.80859375 C49.74828125 64.47859375 48.75828125 64.14859375 47.73828125 63.80859375 C47.73828125 62.48859375 47.73828125 61.16859375 47.73828125 59.80859375 C46.41828125 59.80859375 45.09828125 59.80859375 43.73828125 59.80859375 C43.32578125 58.720625 42.91328125 57.63265625 42.48828125 56.51171875 C33.75787979 34.06028411 19.51600491 16.86062441 -2.1171875 5.96484375 C-4.26171875 4.80859375 -4.26171875 4.80859375 -6.26171875 2.80859375 C-2.95807272 -0.25033776 -2.95807272 -0.25033776 0 0 Z " fill="#2056D2" transform="translate(272.26171875,132.19140625)"/>
<path d="M0 0 C1.98 0 3.96 0 6 0 C6 0.66 6 1.32 6 2 C7.03125 2.12375 8.0625 2.2475 9.125 2.375 C13 3 13 3 15.65625 3.90625 C19.84333619 5.27585763 24.07182318 6.19847867 28.375 7.125 C29.20644531 7.30675781 30.03789062 7.48851562 30.89453125 7.67578125 C32.92905316 8.12010213 34.96444079 8.56045577 37 9 C37 9.66 37 10.32 37 11 C43.97346512 13.28667653 43.97346512 13.28667653 51.1875 14.5 C55.26554164 15.03482513 58.24872826 16.36308142 62 18 C64.32189536 18.4054103 66.65515344 18.76072994 69 19 C69 19.66 69 20.32 69 21 C69.58007812 21.18175781 70.16015625 21.36351562 70.7578125 21.55078125 C74.35309266 22.70767833 77.66877723 23.82058767 81 25.625 C84.95082999 27.43579708 88.69923964 27.72283989 93 28 C93 28.66 93 29.32 93 30 C93.99 30 94.98 30 96 30 C96 30.66 96 31.32 96 32 C97.65 32 99.3 32 101 32 C101 32.66 101 33.32 101 34 C97.04 34 93.08 34 89 34 C89 33.01 89 32.02 89 31 C88.236875 31.04125 87.47375 31.0825 86.6875 31.125 C84 31 84 31 81 29 C78.9507906 28.54860541 78.9507906 28.54860541 76.8125 28.375 C74.9253125 28.189375 74.9253125 28.189375 73 28 C73 27.34 73 26.68 73 26 C72.21496094 25.87882813 71.42992187 25.75765625 70.62109375 25.6328125 C55.93548387 23.29032258 55.93548387 23.29032258 51 20 C49.67432801 19.31822584 48.34246312 18.64808564 47 18 C47 17.34 47 16.68 47 16 C46.07719238 15.970271 46.07719238 15.970271 45.13574219 15.93994141 C42.34007458 15.84450273 39.5451349 15.73490045 36.75 15.625 C35.78191406 15.5940625 34.81382812 15.563125 33.81640625 15.53125 C32.41455078 15.47324219 32.41455078 15.47324219 30.984375 15.4140625 C30.12553711 15.3826416 29.26669922 15.3512207 28.38183594 15.31884766 C25.83489613 14.97789815 24.17016095 14.36225106 22 13 C21.67 12.34 21.34 11.68 21 11 C19.33499557 10.65846063 17.66821323 10.32550502 16 10 C15.34 9.34 14.68 8.68 14 8 C12.824375 7.835 11.64875 7.67 10.4375 7.5 C9.303125 7.335 8.16875 7.17 7 7 C6.67 6.34 6.34 5.68 6 5 C5.01 5.495 5.01 5.495 4 6 C4 5.34 4 4.68 4 4 C3.34 4 2.68 4 2 4 C1.34 2.68 0.68 1.36 0 0 Z " fill="#3058FB" transform="translate(251,487)"/>
<path d="M0 0 C-0.33 0.66 -0.66 1.32 -1 2 C-1.99 2.33 -2.98 2.66 -4 3 C-2.02 3.33 -0.04 3.66 2 4 C1.44570312 4.26425781 0.89140625 4.52851563 0.3203125 4.80078125 C-19.14836657 14.86287633 -33.145198 28.36768856 -43 48 C-44.1171875 44.28125 -44.1171875 44.28125 -43.0625 41.75 C-42.711875 41.1725 -42.36125 40.595 -42 40 C-44.0745356 39.8509288 -44.0745356 39.8509288 -46 41 C-45.48748023 36.34461208 -43.59395847 33.72103598 -40.75 30.0625 C-40.33669434 29.53035889 -39.92338867 28.99821777 -39.49755859 28.44995117 C-38.33773529 26.96191478 -37.16918211 25.48069429 -36 24 C-34.824375 22.4221875 -34.824375 22.4221875 -33.625 20.8125 C-26.50818941 13.18734579 -17.94609039 7.27919209 -9 2 C-8.36707031 1.62617188 -7.73414063 1.25234375 -7.08203125 0.8671875 C-4.0794802 -0.7786553 -3.39387119 -1.1312904 0 0 Z " fill="#2F6BDB" transform="translate(200,132)"/>
<path d="M0 0 C1.258125 -0.020625 2.51625 -0.04125 3.8125 -0.0625 C4.52019531 -0.07410156 5.22789062 -0.08570313 5.95703125 -0.09765625 C8 0 8 0 11 1 C11 1.66 11 2.32 11 3 C11.886875 2.896875 12.77375 2.79375 13.6875 2.6875 C18.05829469 3.09983912 18.99249812 4.91914442 22 8 C25.33216019 9.27367411 25.33216019 9.27367411 29 10 C30.48009428 10.3713219 31.95927554 10.74630292 33.4375 11.125 C34.613125 11.41375 35.78875 11.7025 37 12 C37 12.66 37 13.32 37 14 C42.61 14.66 48.22 15.32 54 16 C53.67 16.66 53.34 17.32 53 18 C54.37285156 18.09087891 54.37285156 18.09087891 55.7734375 18.18359375 C56.96195312 18.26738281 58.15046875 18.35117187 59.375 18.4375 C60.55835938 18.51871094 61.74171875 18.59992188 62.9609375 18.68359375 C66 19 66 19 68 20 C68 20.99 68 21.98 68 23 C71.63 23.33 75.26 23.66 79 24 C79 24.99 79 25.98 79 27 C75 27 75 27 71.1875 26.0625 C64.5666956 24.49616876 57.77218736 24.33905549 51 24 C50.505 22.02 50.505 22.02 50 20 C49.0925 20.061875 48.185 20.12375 47.25 20.1875 C44 20 44 20 42.125 18.5625 C39.63884843 16.73444737 37.77283701 16.32956422 34.75 15.8125 C33.41195312 15.57466797 33.41195312 15.57466797 32.046875 15.33203125 C31.03367187 15.16767578 31.03367187 15.16767578 30 15 C30 14.34 30 13.68 30 13 C28.14375 12.814375 28.14375 12.814375 26.25 12.625 C23.1237803 12.24253695 20.71120763 11.69450477 18 10 C18 9.34 18 8.68 18 8 C15.69 7.67 13.38 7.34 11 7 C11 6.67 11 6.34 11 6 C8.69 5.34 6.38 4.68 4 4 C4 3.34 4 2.68 4 2 C2.68 1.34 1.36 0.68 0 0 Z " fill="#109EFB" transform="translate(286,490)"/>
<path d="M0 0 C0.65484375 0.26941406 1.3096875 0.53882813 1.984375 0.81640625 C4.29812809 1.72452437 6.609468 2.57828012 8.953125 3.40234375 C9.654375 3.65306641 10.355625 3.90378906 11.078125 4.16210938 C12.53868756 4.68355122 14.00232777 5.1964438 15.46875 5.70117188 C17.34614671 6.38085902 19.1782834 7.18272303 21 8 C21.33 8.99 21.66 9.98 22 11 C25.60484534 12.20161511 28.97289857 12.23017136 32.73046875 12.31640625 C33.48088943 12.33718735 34.23131012 12.35796844 35.00447083 12.37937927 C37.39872184 12.44469926 39.79308139 12.50367792 42.1875 12.5625 C43.81186013 12.60570193 45.43620933 12.64931676 47.06054688 12.69335938 C51.04025371 12.80036263 55.02006958 12.90167937 59 13 C59 13.33 59 13.66 59 14 C57.48019531 14.07347656 57.48019531 14.07347656 55.9296875 14.1484375 C54.57810089 14.22352564 53.22653962 14.29907081 51.875 14.375 C51.20984375 14.4059375 50.5446875 14.436875 49.859375 14.46875 C45.57172682 14.7209646 42.03677568 15.6049782 38 17 C24.68678797 18.90975731 12.90922331 13.17724721 1 8 C1.99 9.485 1.99 9.485 3 11 C1.35 11 -0.3 11 -2 11 C-1.67 10.01 -1.34 9.02 -1 8 C-1.66 8 -2.32 8 -3 8 C-2.67 6.35 -2.34 4.7 -2 3 C-1.01 3 -0.02 3 1 3 C0.67 2.01 0.34 1.02 0 0 Z " fill="#24B9F5" transform="translate(155,405)"/>
<path d="M0 0 C0.33 0 0.66 0 1 0 C1.06058594 0.73863281 1.12117187 1.47726562 1.18359375 2.23828125 C1.26738281 3.25277344 1.35117187 4.26726562 1.4375 5.3125 C1.51871094 6.29863281 1.59992187 7.28476562 1.68359375 8.30078125 C1.84671492 10.20788922 2.01402682 12.11540083 2.24497986 14.01548767 C3.37545095 24.1063581 3.14445407 34.25215442 3.1328125 44.390625 C3.13348719 46.46563732 3.13445859 48.54064957 3.13571167 50.61566162 C3.13717957 54.94593057 3.13506251 59.27617879 3.13037109 63.60644531 C3.12466004 69.14657354 3.12796727 74.68665346 3.13394356 80.22677994 C3.13756154 84.50421511 3.13640513 88.78163888 3.13381577 93.0590744 C3.13315066 95.10194657 3.1339603 97.14481979 3.13629532 99.18769073 C3.13884374 102.0421472 3.13495104 104.89652587 3.12939453 107.75097656 C3.13141876 108.58749756 3.13344299 109.42401855 3.13552856 110.28588867 C3.11876044 114.95185778 2.94650003 119.42112172 2 124 C1.01 124.495 1.01 124.495 0 125 C0 83.75 0 42.5 0 0 Z " fill="#17A8FD" transform="translate(1,309)"/>
<path d="M0 0 C4.53731417 -0.23880601 7.22957806 -0.33618412 11.4375 1.5 C15.31619656 3.13313539 17.62013117 3.07494304 21.7109375 2.90625 C25.51423643 3.06201651 28.53447845 4.48777241 32 6 C32 6.66 32 7.32 32 8 C33.670625 7.9690625 33.670625 7.9690625 35.375 7.9375 C39 8 39 8 41 9 C41 9.66 41 10.32 41 11 C42.918125 11.185625 42.918125 11.185625 44.875 11.375 C48.75 11.75 48.75 11.75 51 14 C53.06874034 14.6425235 53.06874034 14.6425235 55 15 C55 15.66 55 16.32 55 17 C58.96 17.99 62.92 18.98 67 20 C67 20.66 67 21.32 67 22 C68.98 22.495 68.98 22.495 71 23 C66.31329759 23.28694096 63.23632671 22.82336467 59.015625 20.7890625 C56.53350392 19.81737944 54.13005144 19.42397004 51.5 19 C46.89644482 18.25073171 43.18125363 17.04416844 39 15 C39 14.34 39 13.68 39 13 C37.35 13 35.7 13 34 13 C33.505 11.515 33.505 11.515 33 10 C32.40832031 9.95101563 31.81664062 9.90203125 31.20703125 9.8515625 C26.74702303 9.42957151 23.12475084 8.81086622 19 7 C17.4213993 6.50546491 15.83734124 6.02821763 14.25 5.5625 C9.46024826 4.15290339 4.72589621 2.60954436 0 1 C0 0.67 0 0.34 0 0 Z " fill="#118BF8" transform="translate(249,483)"/>
<path d="M0 0 C1.69452408 1.64468514 3.35646185 3.30510129 5 5 C5.515625 5.53109375 6.03125 6.0621875 6.5625 6.609375 C9.90385883 10.25145613 11.82768814 13.47475638 13.3515625 18.171875 C13.98071015 20.17647686 13.98071015 20.17647686 15.5625 22.375 C17.73983363 26.35100054 18.23827489 30.56814482 19 35 C19.32887821 36.6675515 19.66094915 38.33448704 20 40 C19.34 40 18.68 40 18 40 C17.67 40.99 17.34 41.98 17 43 C16.67 40.69 16.34 38.38 16 36 C14.515 35.505 14.515 35.505 13 35 C11.7505702 32.48633673 10.66411232 30.03600502 9.625 27.4375 C5.5174851 17.48602307 5.5174851 17.48602307 -1 9 C0.32 9 1.64 9 3 9 C2.690625 8.2575 2.38125 7.515 2.0625 6.75 C1.1905075 4.49307824 0.52332993 2.3549847 0 0 Z " fill="#3574DF" transform="translate(299,339)"/>
<path d="M0 0 C1.53059747 0.00503112 3.06119657 0.00959114 4.59179688 0.01367188 C8.29039911 0.02453576 11.98893864 0.04170899 15.6875 0.0625 C15.6875 0.7225 15.6875 1.3825 15.6875 2.0625 C17.358125 2.0315625 17.358125 2.0315625 19.0625 2 C22.6875 2.0625 22.6875 2.0625 24.6875 3.0625 C24.6875 3.7225 24.6875 4.3825 24.6875 5.0625 C19.44069462 5.15505666 14.5780869 4.85367689 9.375 4.0625 C-13.21969929 0.9837208 -37.46073663 2.86500962 -58.359375 12.42578125 C-60.3125 13.0625 -60.3125 13.0625 -63.3125 12.0625 C-62.3225 10.7425 -61.3325 9.4225 -60.3125 8.0625 C-60.9725 7.7325 -61.6325 7.4025 -62.3125 7.0625 C-55.6875 6.0625 -55.6875 6.0625 -52.3125 6.0625 C-50.80284693 5.61467381 -49.30368349 5.13093725 -47.8125 4.625 C-43.02013499 3.12165133 -38.46633431 2.56805546 -33.46484375 2.2734375 C-31.33279296 2.29438184 -31.33279296 2.29438184 -30.3125 1.0625 C-20.28021046 -0.28878798 -10.0992585 -0.05853042 0 0 Z " fill="#2662D9" transform="translate(271.3125,97.9375)"/>
<path d="M0 0 C0.495 0.99 0.495 0.99 1 2 C0.07421875 3.9453125 0.07421875 3.9453125 -1.3125 6.125 C-1.76238281 6.84945312 -2.21226562 7.57390625 -2.67578125 8.3203125 C-3.11277344 8.87460938 -3.54976563 9.42890625 -4 10 C-4.66 10 -5.32 10 -6 10 C-6 12.97 -6 15.94 -6 19 C-7.32 19.33 -8.64 19.66 -10 20 C-12.00917635 22.13321195 -12.00917635 22.13321195 -14 25 C-14.47695313 25.61488281 -14.95390625 26.22976562 -15.4453125 26.86328125 C-17.9285718 30.07654391 -20.18085453 33.20918701 -22.0625 36.8125 C-24.18272093 40.30060539 -25.58455286 40.96699575 -29 43 C-31.16193168 45.5554748 -33.09749449 48.24757793 -35 51 C-36 48 -36 48 -34.37890625 44.72265625 C-32.15140074 41.0832843 -29.61697165 37.75216631 -26.9375 34.4375 C-25.96211556 33.2136405 -24.98685891 31.98967914 -24.01171875 30.765625 C-23.51462402 30.14494141 -23.0175293 29.52425781 -22.50537109 28.88476562 C-20.06837106 25.83357518 -17.65990754 22.7601007 -15.25 19.6875 C-14.79230225 19.10492432 -14.33460449 18.52234863 -13.86303711 17.92211914 C-6.85803573 9.01758534 -6.85803573 9.01758534 0 0 Z " fill="#1151DA" transform="translate(366,142)"/>
<path d="M0 0 C4.6488238 -0.31696526 6.39985138 0.18738389 10 3 C13.15118325 3.72045367 13.15118325 3.72045367 16 4 C16.33 4.99 16.66 5.98 17 7 C18.46759766 7.07347656 18.46759766 7.07347656 19.96484375 7.1484375 C27.16741698 7.55920372 33.99291205 8.18782208 41 10 C41.33 10 41.66 10 42 10 C42 11.65 42 13.3 42 15 C38.7 15 35.4 15 32 15 C32 14.34 32 13.68 32 13 C30.35 13 28.7 13 27 13 C27 12.34 27 11.68 27 11 C26.01 11 25.02 11 24 11 C24 10.34 24 9.68 24 9 C23.43152344 9.04640625 22.86304688 9.0928125 22.27734375 9.140625 C17.21779673 9.37713137 14.13836657 8.96905753 9.7734375 6.08984375 C6.71592396 4.21088719 3.37652041 3.184744 0 2 C0 1.34 0 0.68 0 0 Z " fill="#1B76F9" transform="translate(320,506)"/>
<path d="M0 0 C-16.35052605 7.15335515 -33.51956557 6.37408744 -51 6 C-51 5.01 -51 4.02 -51 3 C-51.66 2.67 -52.32 2.34 -53 2 C-52.11965088 2.01571045 -51.23930176 2.0314209 -50.33227539 2.04760742 C-28.51512549 2.58525932 -28.51512549 2.58525932 -6.984375 -0.44140625 C-4.15307958 -0.97134767 -2.65993 -0.99418176 0 0 Z " fill="#24AEEE" transform="translate(293,446)"/>
<path d="M0 0 C0 0.99 0 1.98 0 3 C1.98 2.67 3.96 2.34 6 2 C6 2.66 6 3.32 6 4 C6.99 4.33 7.98 4.66 9 5 C8.34 5 7.68 5 7 5 C7 5.66 7 6.32 7 7 C7.804375 7.144375 8.60875 7.28875 9.4375 7.4375 C12 8 12 8 13 9 C15.03039402 8.96777152 17.06128092 8.93188381 19.08984375 8.83984375 C21 9 21 9 23 11 C21.68 11 20.36 11 19 11 C19 11.99 19 12.98 19 14 C19.66 14.33 20.32 14.66 21 15 C17.43734182 14.30690105 13.899167 13.55640619 10.375 12.6875 C9.43398438 12.46449219 8.49296875 12.24148438 7.5234375 12.01171875 C4.58087412 10.83196037 3.56785693 9.72007393 2 7 C2 6.34 2 5.68 2 5 C-3.94 4.01 -3.94 4.01 -10 3 C-10 2.01 -10 1.02 -10 0 C-6.30581799 -1.231394 -3.7943739 -0.64432764 0 0 Z " fill="#109DFC" transform="translate(247,472)"/>
<path d="M0 0 C4.72248191 4.72248191 6.0055056 13.46311426 6.2578125 20.0390625 C6.25103079 23.36888332 6.18188976 26.67545939 6 30 C4 27 4 27 3 25 C2.67 26.65 2.34 28.3 2 30 C1.67 30 1.34 30 1 30 C0.32944715 27.06333774 -0.33659053 24.12577641 -1 21.1875 C-1.28617187 19.93743164 -1.28617187 19.93743164 -1.578125 18.66210938 C-1.84882813 17.45844727 -1.84882813 17.45844727 -2.125 16.23046875 C-2.29257812 15.49207764 -2.46015625 14.75368652 -2.6328125 13.99291992 C-3 12 -3 12 -3 9 C-2.34 9 -1.68 9 -1 9 C-0.34 10.32 0.32 11.64 1 13 C1.66 13 2.32 13 3 13 C2.7834375 12.39671875 2.566875 11.7934375 2.34375 11.171875 C2.0653125 10.37265625 1.786875 9.5734375 1.5 8.75 C1.2215625 7.96109375 0.943125 7.1721875 0.65625 6.359375 C0 4 0 4 0 0 Z " fill="#4480E0" transform="translate(316,366)"/>
<path d="M0 0 C2.22093599 2.22093599 2.83730346 3.83381641 3.9375 6.75 C5.10722098 9.79303353 6.30874499 12.59619721 7.8125 15.5 C8.204375 16.325 8.59625 17.15 9 18 C8.67 18.66 8.34 19.32 8 20 C6.66666667 23 6.66666667 23 8 26 C4.67712673 24.94138551 3.92097505 23.86893424 2.078125 20.8125 C1.45631204 19.54770599 0.8472695 18.27656743 0.25 17 C-0.22373047 16.03707031 -0.22373047 16.03707031 -0.70703125 15.0546875 C-3 10.30992965 -3 10.30992965 -3 8 C-2.01 7.67 -1.02 7.34 0 7 C0 4.69 0 2.38 0 0 Z " fill="#3682DD" transform="translate(202,258)"/>
<path d="M0 0 C1.12148437 0.30744141 1.12148437 0.30744141 2.265625 0.62109375 C3.25046875 0.89050781 4.2353125 1.15992188 5.25 1.4375 C6.71179688 1.83775391 6.71179688 1.83775391 8.203125 2.24609375 C10.88128387 3.00628562 10.88128387 3.00628562 13.171875 3.41015625 C15 4 15 4 16.25390625 5.40625 C19.00169325 7.9142972 22.42479014 8.541814 25.9375 9.5 C26.69587158 9.71430664 27.45424316 9.92861328 28.2355957 10.14941406 C36.42447182 12.44337197 44.59286199 14.67061361 53 16 C53 16.33 53 16.66 53 17 C47.72 17 42.44 17 37 17 C37 16.34 37 15.68 37 15 C35.23103898 14.63659714 33.45973374 14.28459117 31.6875 13.9375 C30.70136719 13.74027344 29.71523437 13.54304688 28.69921875 13.33984375 C25.90723539 12.79077784 25.90723539 12.79077784 23 14 C22.67 12.68 22.34 11.36 22 10 C21.34515625 9.90589844 20.6903125 9.81179688 20.015625 9.71484375 C16.04200498 8.77291051 12.47741217 7.20832677 8.75 5.5625 C8.0178125 5.24990234 7.285625 4.93730469 6.53125 4.61523438 C1.12339767 2.24679535 1.12339767 2.24679535 0 0 Z " fill="#38B8E7" transform="translate(183,431)"/>
<path d="M0 0 C0.33 0 0.66 0 1 0 C1.01417969 1.1859375 1.02835938 2.371875 1.04296875 3.59375 C1.40684182 18.49551332 4.01782275 30.95878654 11.86328125 43.86328125 C13 46 13 46 13 49 C9.46413986 45.82679218 7.41421969 43.83256305 7 39 C6.01 38.67 5.02 38.34 4 38 C2.8671875 35.12890625 2.8671875 35.12890625 1.875 31.5625 C0.70590749 27.17765107 0.70590749 27.17765107 -1 23 C-1.09503404 21.59887543 -1.13072846 20.19340476 -1.1328125 18.7890625 C-1.13410156 17.95632812 -1.13539063 17.12359375 -1.13671875 16.265625 C-1.13285156 15.39421875 -1.12898437 14.5228125 -1.125 13.625 C-1.12886719 12.76132813 -1.13273438 11.89765625 -1.13671875 11.0078125 C-1.13542969 10.1725 -1.13414062 9.3371875 -1.1328125 8.4765625 C-1.13168457 7.71424316 -1.13055664 6.95192383 -1.12939453 6.16650391 C-0.99970289 3.99502536 -0.59663405 2.08733046 0 0 Z " fill="#4784E2" transform="translate(149,201)"/>
<path d="M0 0 C0.33 0.66 0.66 1.32 1 2 C0.525625 2.5775 0.05125 3.155 -0.4375 3.75 C-1.9484867 5.92582084 -2.54036151 7.42602448 -3 10 C-3.66 10 -4.32 10 -5 10 C-5.2475 11.2375 -5.2475 11.2375 -5.5 12.5 C-7.60621474 17.41450105 -10.66315165 20.86999455 -15 24 C-17.68384435 24.65459618 -19.22606651 24.46232225 -22 24 C-20.33333333 22.33333333 -18.66666667 20.66666667 -17 19 C-16.113125 18.071875 -15.22625 17.14375 -14.3125 16.1875 C-12 14 -12 14 -10 14 C-9.75507813 13.44828125 -9.51015625 12.8965625 -9.2578125 12.328125 C-7.74261886 9.52360509 -5.88915874 7.21896877 -3.875 4.75 C-3.15054687 3.85796875 -2.42609375 2.9659375 -1.6796875 2.046875 C-1.12539063 1.37140625 -0.57109375 0.6959375 0 0 Z " fill="#367DDE" transform="translate(359,400)"/>
<path d="M0 0 C1.36279219 2.49667788 2 3.78665477 2 6.6875 C0.56825889 11.43014243 -2.14037881 14.99938282 -5 19 C-5.79668893 20.18413644 -6.58919262 21.37111462 -7.375 22.5625 C-7.91125 23.366875 -8.4475 24.17125 -9 25 C-9.66 23.68 -10.32 22.36 -11 21 C-10.0409375 19.9790625 -10.0409375 19.9790625 -9.0625 18.9375 C-6.75524608 16.14801943 -6.75524608 16.14801943 -6.625 12.75 C-5.76095572 7.56573432 -3.08651616 4.16254932 0 0 Z " fill="#2868DB" transform="translate(214,192)"/>
<path d="M0 0 C0.50748779 0.24121582 1.01497559 0.48243164 1.5378418 0.73095703 C7.35507908 3.49468684 13.17589895 6.2507638 19 9 C19.67546875 9.31904297 20.3509375 9.63808594 21.046875 9.96679688 C27.2864454 12.90659447 33.49359261 15.70362092 40 18 C40 18.66 40 19.32 40 20 C40.86625 20.2475 41.7325 20.495 42.625 20.75 C46.18302254 22.06778613 48.9226155 23.80186822 52 26 C51.01 26.495 51.01 26.495 50 27 C47.37164977 25.73887694 44.8548816 24.41788273 42.3125 23 C36.54642245 19.86443004 30.76298852 16.83431198 24.8125 14.0625 C23.64332031 13.51722656 22.47414062 12.97195313 21.26953125 12.41015625 C18.21625342 11.09327059 15.17069638 9.99595471 12 9 C12 8.34 12 7.68 12 7 C11.0925 6.87625 10.185 6.7525 9.25 6.625 C6.41029677 6.07890323 4.47409409 5.42736197 2 4 C2 3.34 2 2.68 2 2 C1.34 2 0.68 2 0 2 C0 1.34 0 0.68 0 0 Z " fill="#467FD8" transform="translate(228,296)"/>
<path d="M0 0 C10.89 0 21.78 0 33 0 C33 0.66 33 1.32 33 2 C34.670625 1.9690625 34.670625 1.9690625 36.375 1.9375 C40 2 40 2 42 3 C42 3.66 42 4.32 42 5 C36.71333446 5.08772122 31.74943997 4.8054476 26.5 4.0625 C19.37946464 3.08433917 12.31276437 2.62476573 5.1328125 2.34375 C2 2 2 2 0 0 Z " fill="#1A55D8" transform="translate(254,98)"/>
<path d="M0 0 C2.97 0.33 5.94 0.66 9 1 C9.33 1.99 9.66 2.98 10 4 C10.96421875 4.02578125 11.9284375 4.0515625 12.921875 4.078125 C14.81679687 4.16320312 14.81679687 4.16320312 16.75 4.25 C18.62945312 4.31960938 18.62945312 4.31960938 20.546875 4.390625 C24.41907035 5.07395359 25.68105669 5.88465191 28 9 C28 9.66 28 10.32 28 11 C24.44219804 10.39009109 21.3171411 9.4216319 18 8 C18 7.34 18 6.68 18 6 C17.443125 6.02320313 16.88625 6.04640625 16.3125 6.0703125 C10.82390985 6.20011024 6.2706649 5.53328434 1 4 C0.67 2.68 0.34 1.36 0 0 Z " fill="#1981FD" transform="translate(223,471)"/>
<path d="M0 0 C1.6045556 0.14148989 3.20863767 0.28835686 4.8125 0.4375 C5.70582031 0.51871094 6.59914063 0.59992188 7.51953125 0.68359375 C10 1 10 1 13 2 C13.33 2.66 13.66 3.32 14 4 C16.12032536 4.23559171 18.24180847 4.46391906 20.3671875 4.6484375 C24.72883112 5.23085282 28.83449787 6.61729679 33 8 C33 8.66 33 9.32 33 10 C34.32 10.33 35.64 10.66 37 11 C32.31329759 11.28694096 29.23632671 10.82336467 25.015625 8.7890625 C22.53350392 7.81737944 20.13005144 7.42397004 17.5 7 C12.89644482 6.25073171 9.18125363 5.04416844 5 3 C5 2.34 5 1.68 5 1 C3.35 1 1.7 1 0 1 C0 0.67 0 0.34 0 0 Z " fill="#1B73F9" transform="translate(283,495)"/>
<path d="M0 0 C5.48781455 0.48780574 10.08396358 2.06696901 15.22265625 4.01953125 C18.44865875 5.15838726 21.6523567 5.89089966 25 6.56640625 C27.74355108 7.16119955 30.35195895 8.07626475 33 9 C34.32911682 9.34976758 35.66082739 9.69096017 37 10 C37 10.66 37 11.32 37 12 C32.89398583 11.46443293 28.82118476 10.82062385 24.75 10.0625 C23.91984375 9.90910156 23.0896875 9.75570313 22.234375 9.59765625 C20 9 20 9 17 7 C15.34450469 6.61500109 13.6777567 6.27206865 12 6 C12 5.34 12 4.68 12 4 C9.02148438 4.04882812 9.02148438 4.04882812 6.04296875 4.09765625 C4 4 4 4 1 3 C0.67 2.01 0.34 1.02 0 0 Z " fill="#2273FC" transform="translate(245,483)"/>
<path d="M0 0 C4.76860078 1.57453799 9.52085891 3.18602104 14.25 4.875 C14.96929687 5.11863281 15.68859375 5.36226563 16.4296875 5.61328125 C21.6657983 7.50573328 21.6657983 7.50573328 23.484375 10.1953125 C23.65453125 10.79085938 23.8246875 11.38640625 24 12 C23.01 12.495 23.01 12.495 22 13 C22.33 13.66 22.66 14.32 23 15 C19.1882507 13.60764311 15.96245822 11.83376718 12.5625 9.625 C11.60730469 9.00496094 10.65210938 8.38492187 9.66796875 7.74609375 C8.78753906 7.16988281 7.90710938 6.59367187 7 6 C6.00419922 5.36771484 6.00419922 5.36771484 4.98828125 4.72265625 C1.12043226 2.24086453 1.12043226 2.24086453 0 0 Z " fill="#DDF6FE" transform="translate(155,412)"/>
<path d="M0 0 C0.33 0 0.66 0 1 0 C1.375 2.125 1.375 2.125 1 5 C-0.74322351 7.29739641 -2.69638037 9.26333339 -5 11 C-5.66 11 -6.32 11 -7 11 C-7.165 11.804375 -7.33 12.60875 -7.5 13.4375 C-10.08024216 19.56557512 -14.75923288 25.36936274 -21 28 C-19.59471144 23.70734259 -17.55573757 21.17285448 -14.4375 17.9375 C-9.77072103 12.95869802 -5.71055973 7.76486908 -1.71484375 2.23828125 C-1.14894531 1.49964844 -0.58304688 0.76101563 0 0 Z " fill="#E3FAFC" transform="translate(183,352)"/>
<path d="M0 0 C1.051875 0.01353516 2.10375 0.02707031 3.1875 0.04101562 C5.75055954 0.07596644 8.31248913 0.12502318 10.875 0.1875 C10.875 1.1775 10.875 2.1675 10.875 3.1875 C9.61042969 3.17589844 8.34585938 3.16429687 7.04296875 3.15234375 C5.38281398 3.14296434 3.72265761 3.1338643 2.0625 3.125 C0.81243164 3.11243164 0.81243164 3.11243164 -0.46289062 3.09960938 C-1.26533203 3.09638672 -2.06777344 3.09316406 -2.89453125 3.08984375 C-3.63292236 3.08460693 -4.37131348 3.07937012 -5.13208008 3.07397461 C-7.33557409 3.11226787 -7.33557409 3.11226787 -10.125 4.1875 C-12.69134861 4.41468496 -15.24178107 4.60358184 -17.8125 4.75 C-18.8653418 4.81477539 -18.8653418 4.81477539 -19.93945312 4.88085938 C-21.66775206 4.9866736 -23.3963511 5.08756581 -25.125 5.1875 C-17.40934642 0.04373095 -9.01640941 -0.22368955 0 0 Z " fill="#2C66D4" transform="translate(261.125,171.8125)"/>
<path d="M0 0 C1.32 0.66 2.64 1.32 4 2 C3.67 3.32 3.34 4.64 3 6 C5.64 6.33 8.28 6.66 11 7 C11 7.66 11 8.32 11 9 C11.99 9.33 12.98 9.66 14 10 C14 10.33 14 10.66 14 11 C8.76824163 11.38281159 5.62197306 10.21854707 1 8 C1.99 9.485 1.99 9.485 3 11 C1.35 11 -0.3 11 -2 11 C-1.67 10.01 -1.34 9.02 -1 8 C-1.66 8 -2.32 8 -3 8 C-2.67 6.35 -2.34 4.7 -2 3 C-1.01 3 -0.02 3 1 3 C0.67 2.01 0.34 1.02 0 0 Z " fill="#19B1F4" transform="translate(155,405)"/>
<path d="M0 0 C0.144375 0.598125 0.28875 1.19625 0.4375 1.8125 C0.8872439 3.56150404 1.42892341 5.28677023 2 7 C0.92578125 8.83203125 0.92578125 8.83203125 -0.6875 10.8125 C-1.244375 11.51761719 -1.80125 12.22273437 -2.375 12.94921875 C-2.91125 13.62597656 -3.4475 14.30273438 -4 15 C-6.70931658 18.87045226 -8.96851902 22.73388994 -11 27 C-12.34348176 22.96955471 -11.20184195 21.61227277 -9.45703125 17.89453125 C-6.42294194 11.86702407 -3.21906205 5.93026236 0 0 Z " fill="#DCEDFA" transform="translate(163,149)"/>
<path d="M0 0 C3.10360148 1.74104473 5.22476468 3.76580249 7.5625 6.4375 C7.5625 7.0975 7.5625 7.7575 7.5625 8.4375 C4.12654834 6.91041037 1.44337546 4.83822955 -1.4375 2.4375 C-5.52532778 3.96239755 -7.19539907 6.53433655 -9.625 10.0625 C-10.87593456 11.86811611 -12.14146483 13.66397818 -13.4375 15.4375 C-13.7675 15.4375 -14.0975 15.4375 -14.4375 15.4375 C-14.4375 13.7875 -14.4375 12.1375 -14.4375 10.4375 C-13.7775 10.4375 -13.1175 10.4375 -12.4375 10.4375 C-12.19 9.695 -11.9425 8.9525 -11.6875 8.1875 C-9.99646458 4.46722207 -7.79978316 2.40428159 -4.5 0.0625 C-2.4375 -0.5625 -2.4375 -0.5625 0 0 Z " fill="#289CEB" transform="translate(190.4375,345.5625)"/>
<path d="M0 0 C5.06130793 -0.17156976 8.33842674 -0.04654436 13 2 C15.98324134 2.74833851 18.98711601 3.38298236 22 4 C18.40412047 6.29149186 15.680018 6.1143135 11.5 5.75 C10.3759375 5.66234375 9.251875 5.5746875 8.09375 5.484375 C5.23712217 5.03712519 3.3683888 4.63106021 1 3 C0.67 2.01 0.34 1.02 0 0 Z " fill="#4552FD" transform="translate(272,497)"/>
<path d="M0 0 C2.97 0.33 5.94 0.66 9 1 C9 1.99 9 2.98 9 4 C9.62648438 4.04898437 10.25296875 4.09796875 10.8984375 4.1484375 C11.71570313 4.22320312 12.53296875 4.29796875 13.375 4.375 C14.59316406 4.47941406 14.59316406 4.47941406 15.8359375 4.5859375 C18 5 18 5 20 7 C21.64991582 7.70710678 23.31562256 8.37943989 25 9 C21.94736336 9.98120464 20.05263664 9.98120464 17 9 C17 8.34 17 7.68 17 7 C8.585 5.515 8.585 5.515 0 4 C0 2.68 0 1.36 0 0 Z " fill="#3E50FB" transform="translate(307,506)"/>
<path d="M0 0 C5.61 1.98 11.22 3.96 17 6 C15.02 6.99 15.02 6.99 13 8 C12.67 8.99 12.34 9.98 12 11 C9.03 10.505 9.03 10.505 6 10 C6.99 9.34 7.98 8.68 9 8 C8.34 7.67 7.68 7.34 7 7 C7 6.34 7 5.68 7 5 C4.36 4.67 1.72 4.34 -1 4 C-0.67 2.68 -0.34 1.36 0 0 Z " fill="#2ABAF2" transform="translate(159,407)"/>
<path d="M0 0 C0.33 0 0.66 0 1 0 C1.4375 2.0625 1.4375 2.0625 1 5 C-0.52878834 6.8745857 -2.21504876 8.45331424 -3.9921875 10.09375 C-6.6734505 12.63938491 -8.97690073 15.44926604 -11.32421875 18.30078125 C-13.09509782 20.09642786 -14.69595442 21.01111769 -17 22 C-12.84226326 16.30960736 -8.4517598 10.84234302 -3.953125 5.41796875 C-1.9097574 2.96356761 -1.9097574 2.96356761 0 0 Z M-20 23 C-19.34 23.33 -18.68 23.66 -18 24 C-18.99 24 -19.98 24 -21 24 C-20.67 23.67 -20.34 23.34 -20 23 Z " fill="#D9ECFA" transform="translate(287,376)"/>
<path d="M0 0 C1 3 1 3 1 5 C0.34 5 -0.32 5 -1 5 C-1.24492187 5.71542969 -1.48984375 6.43085938 -1.7421875 7.16796875 C-3.15359676 10.34583121 -4.91281519 12.63646999 -7.125 15.3125 C-7.84945313 16.19550781 -8.57390625 17.07851562 -9.3203125 17.98828125 C-10.15175781 18.98408203 -10.15175781 18.98408203 -11 20 C-12 17 -12 17 -10.5625 13.9375 C-7.52830214 8.941259 -3.72286947 4.4909372 0 0 Z " fill="#2160D6" transform="translate(342,173)"/>
<path d="M0 0 C0.99 0.33 1.98 0.66 3 1 C3.94921875 2.92578125 3.94921875 2.92578125 4.6875 5.3125 C4.93886719 6.09238281 5.19023437 6.87226563 5.44921875 7.67578125 C6 10 6 10 6 14 C5.34 14 4.68 14 4 14 C3.67 14.99 3.34 15.98 3 17 C2.67 14.69 2.34 12.38 2 10 C1.34 10 0.68 10 0 10 C-0.19412181 8.52168779 -0.38012131 7.04230684 -0.5625 5.5625 C-0.66691406 4.73878906 -0.77132813 3.91507812 -0.87890625 3.06640625 C-0.91886719 2.38449219 -0.95882813 1.70257813 -1 1 C-0.67 0.67 -0.34 0.34 0 0 Z " fill="#2D75E5" transform="translate(313,365)"/>
<path d="M0 0 C0.33 0 0.66 0 1 0 C1.06058594 0.73863281 1.12117187 1.47726562 1.18359375 2.23828125 C1.26738281 3.25277344 1.35117187 4.26726562 1.4375 5.3125 C1.52644531 6.40949219 1.61539062 7.50648438 1.70703125 8.63671875 C1.88892593 10.72486962 2.09089672 12.81149967 2.32421875 14.89453125 C3.0075928 21.09814765 2.87149722 26.81907353 2 33 C-0.24734928 29.40735167 -0.23200508 26.44857927 -0.1953125 22.265625 C-0.18886719 20.97011719 -0.18242187 19.67460937 -0.17578125 18.33984375 C-0.15907193 16.97655981 -0.14214206 15.61327856 -0.125 14.25 C-0.1149634 12.87110015 -0.10583873 11.49219335 -0.09765625 10.11328125 C-0.07408093 6.74201118 -0.0411727 3.37109364 0 0 Z " fill="#169BF8" transform="translate(1,309)"/>
<path d="M0 0 C0.33 0.99 0.66 1.98 1 3 C0.030625 3.598125 -0.93875 4.19625 -1.9375 4.8125 C-5.23052042 6.71127509 -5.23052042 6.71127509 -6 10 C-8.4375 11.75 -8.4375 11.75 -11 13 C-11.66 12.67 -12.32 12.34 -13 12 C-12.67 11.01 -12.34 10.02 -12 9 C-11.34 9 -10.68 9 -10 9 C-10 8.01 -10 7.02 -10 6 C-7.8125 4.39453125 -7.8125 4.39453125 -5 2.8125 C-4.071875 2.28269531 -3.14375 1.75289063 -2.1875 1.20703125 C-1.465625 0.80871094 -0.74375 0.41039062 0 0 Z " fill="#4187E8" transform="translate(335,425)"/>
<path d="M0 0 C0.9178125 0.00451172 1.835625 0.00902344 2.78125 0.01367188 C5.02090391 0.02533674 7.26041545 0.04170386 9.5 0.0625 C9.17 0.7225 8.84 1.3825 8.5 2.0625 C7.59906616 2.10008423 7.59906616 2.10008423 6.67993164 2.13842773 C3.97388563 2.2540528 1.26821717 2.37692936 -1.4375 2.5 C-2.85579102 2.55897461 -2.85579102 2.55897461 -4.30273438 2.61914062 C-5.20185547 2.66103516 -6.10097656 2.70292969 -7.02734375 2.74609375 C-8.27632446 2.80108032 -8.27632446 2.80108032 -9.55053711 2.85717773 C-11.50338858 2.85617103 -11.50338858 2.85617103 -12.5 4.0625 C-14.16617115 4.10313832 -15.83388095 4.105221 -17.5 4.0625 C-17.83 3.0725 -18.16 2.0825 -18.5 1.0625 C-12.28829926 0.14090421 -6.27390894 -0.05927385 0 0 Z " fill="#2B64CC" transform="translate(234.5,123.9375)"/>
<path d="M0 0 C5.97844919 -0.31465522 9.49560042 0.3979202 15 3 C16.28516325 3.37708383 17.57705901 3.73206696 18.875 4.0625 C20.421875 4.5265625 20.421875 4.5265625 22 5 C22.33 5.66 22.66 6.32 23 7 C14.72550999 6.57200914 7.66700112 3.95555804 0 1 C0 0.67 0 0.34 0 0 Z " fill="#157DFA" transform="translate(249,483)"/>
<path d="M0 0 C0.88558594 0.13277344 1.77117187 0.26554687 2.68359375 0.40234375 C12.44799736 1.7943555 22.14996144 2.54185867 32 3 C32 3.33 32 3.66 32 4 C27.41671978 4.05802751 22.83353396 4.09360593 18.25 4.125 C16.94804687 4.14175781 15.64609375 4.15851563 14.3046875 4.17578125 C13.05429688 4.18222656 11.80390625 4.18867188 10.515625 4.1953125 C9.36352539 4.20578613 8.21142578 4.21625977 7.02441406 4.22705078 C4.10107034 4.00758762 2.46267491 3.52728122 0 2 C0 1.34 0 0.68 0 0 Z " fill="#41C1F3" transform="translate(176,414)"/>
<path d="M0 0 C1.258125 -0.020625 2.51625 -0.04125 3.8125 -0.0625 C4.52019531 -0.07410156 5.22789062 -0.08570313 5.95703125 -0.09765625 C8 0 8 0 11 1 C11 1.66 11 2.32 11 3 C12.98 3 14.96 3 17 3 C17.33 3.66 17.66 4.32 18 5 C16.04174127 5.02694851 14.08337774 5.04637218 12.125 5.0625 C11.03445313 5.07410156 9.94390625 5.08570313 8.8203125 5.09765625 C6 5 6 5 4 4 C4 3.34 4 2.68 4 2 C2.68 1.34 1.36 0.68 0 0 Z " fill="#13AEFE" transform="translate(286,490)"/>
<path d="M0 0 C0.66 0 1.32 0 2 0 C2.959938 2.06175364 3.91788424 4.12443469 4.875 6.1875 C5.67550781 7.91033203 5.67550781 7.91033203 6.4921875 9.66796875 C6.98976563 10.76753906 7.48734375 11.86710937 8 13 C8.391875 13.8559375 8.78375 14.711875 9.1875 15.59375 C10.10403093 18.30809159 10.20114741 20.45697196 10.125 23.3125 C10.10695313 24.19550781 10.08890625 25.07851563 10.0703125 25.98828125 C10.03550781 26.98408203 10.03550781 26.98408203 10 28 C8.40752314 25.06577668 7.48099401 22.29976083 6.6875 19.0625 C4.968641 12.50602752 2.52657549 6.2814861 0 0 Z " fill="#2C64D2" transform="translate(366,304)"/>
<path d="M0 0 C1.32 0 2.64 0 4 0 C4.33 0.66 4.66 1.32 5 2 C7.57437581 2.91280138 7.57437581 2.91280138 10.5625 3.625 C11.57441406 3.88539063 12.58632812 4.14578125 13.62890625 4.4140625 C14.80259766 4.70410156 14.80259766 4.70410156 16 5 C16 5.33 16 5.66 16 6 C14.39592672 6.02708567 12.7917215 6.04643483 11.1875 6.0625 C9.84751953 6.07990234 9.84751953 6.07990234 8.48046875 6.09765625 C6 6 6 6 3 5 C1.68 5 0.36 5 -1 5 C-0.67 3.35 -0.34 1.7 0 0 Z " fill="#13B3F2" transform="translate(172,414)"/>
<path d="M0 0 C1.20527344 0.16371094 2.41054687 0.32742188 3.65234375 0.49609375 C9.95138624 1.19598736 16.23255417 1.10803918 22.5625 1.0625 C24.36170898 1.05573242 24.36170898 1.05573242 26.19726562 1.04882812 C29.13156359 1.03713769 32.06575449 1.02075138 35 1 C31.64837876 4.35162124 27.26560926 3.29711433 22.7109375 3.32226562 C21.70498535 3.31900269 21.70498535 3.31900269 20.67871094 3.31567383 C18.63942618 3.31252229 16.60160438 3.33593792 14.5625 3.36132812 C12.63277344 3.36229492 12.63277344 3.36229492 10.6640625 3.36328125 C9.48279785 3.36626221 8.3015332 3.36924316 7.08447266 3.37231445 C3.77034206 2.9722789 2.40812406 2.24661713 0 0 Z " fill="#E4FAFE" transform="translate(183,422)"/>
<path d="M0 0 C2.22093599 2.22093599 2.83730346 3.83381641 3.9375 6.75 C5.10722098 9.79303353 6.30874499 12.59619721 7.8125 15.5 C8.204375 16.325 8.59625 17.15 9 18 C8.67 18.66 8.34 19.32 8 20 C7.34 19.67 6.68 19.34 6 19 C6 18.34 6 17.68 6 17 C5.34 17 4.68 17 4 17 C4 15.35 4 13.7 4 12 C3.01 11.67 2.02 11.34 1 11 C0.67 7.37 0.34 3.74 0 0 Z " fill="#4682E1" transform="translate(202,258)"/>
<path d="M0 0 C1.59273572 3.18547144 0.76164121 5.60190847 0 9 C-1.875 11.125 -1.875 11.125 -4 13 C-5.00568242 14.66324401 -6.00664799 16.32936253 -7 18 C-7.66 18.33 -8.32 18.66 -9 19 C-7.54073252 11.86580342 -3.7773022 6.15074075 0 0 Z " fill="#4379DB" transform="translate(208,199)"/>
<path d="M0 0 C1.12148437 0.30744141 1.12148437 0.30744141 2.265625 0.62109375 C3.25046875 0.89050781 4.2353125 1.15992188 5.25 1.4375 C6.71179688 1.83775391 6.71179688 1.83775391 8.203125 2.24609375 C9.88475049 2.69938107 11.57367773 3.12814107 13.2734375 3.5078125 C15 4 15 4 16.375 5.4375 C18.62538002 7.60132694 21.04092468 8.14515602 24 9 C24 9.33 24 9.66 24 10 C18.33340572 9.45713729 13.79433143 7.89964708 8.625 5.5625 C7.90183594 5.24990234 7.17867187 4.93730469 6.43359375 4.61523438 C1.13125377 2.26250753 1.13125377 2.26250753 0 0 Z " fill="#4ABFF5" transform="translate(183,431)"/>
<path d="M0 0 C0.66 0 1.32 0 2 0 C3.3410005 2.4335567 4.67294856 4.87135301 6 7.3125 C6.57234375 8.34793945 6.57234375 8.34793945 7.15625 9.40429688 C10 14.66015625 10 14.66015625 10 18 C6.46413986 14.82679218 4.41421969 12.83256305 4 8 C3.01 7.67 2.02 7.34 1 7 C0.67 4.69 0.34 2.38 0 0 Z " fill="#3E81DC" transform="translate(152,232)"/>
<path d="M0 0 C1.485 0.99 1.485 0.99 3 2 C3.2780675 4.55343705 3.37279854 6.82798977 3.3125 9.375 C3.31572266 10.04789062 3.31894531 10.72078125 3.32226562 11.4140625 C3.27916603 15.39489763 2.83009275 17.33981451 1 21 C0.67 14.07 0.34 7.14 0 0 Z " fill="#276AD7" transform="translate(376,336)"/>
<path d="M0 0 C0.33 0.66 0.66 1.32 1 2 C0.07421875 3.91015625 0.07421875 3.91015625 -1.3125 6.0625 C-1.98732422 7.13177734 -1.98732422 7.13177734 -2.67578125 8.22265625 C-4 10 -4 10 -6 11 C-6.33 11.99 -6.66 12.98 -7 14 C-9.375 16.6875 -9.375 16.6875 -12 19 C-12.99 19 -13.98 19 -15 19 C-14.50371094 18.38253906 -14.00742187 17.76507813 -13.49609375 17.12890625 C-8.94695214 11.45758549 -4.44624566 5.75233033 0 0 Z " fill="#3668CE" transform="translate(366,142)"/>
<path d="M0 0 C1 1 2 2 3 3 C5.09989652 4.17574711 5.09989652 4.17574711 7 5 C7 5.99 7 6.98 7 8 C2.14036821 7.39254603 -1.7405518 5.27241033 -6 3 C-2.25 0 -2.25 0 0 0 Z " fill="#336DDE" transform="translate(329,111)"/>
<path d="M0 0 C3.94727588 -0.17942163 6.5980513 -0.09350689 10 2 C10 2.66 10 3.32 10 4 C10.86625 4.2475 11.7325 4.495 12.625 4.75 C16.18302254 6.06778613 18.9226155 7.80186822 22 10 C21.01 10.495 21.01 10.495 20 11 C18.26000977 10.3190918 18.26000977 10.3190918 16.19140625 9.19921875 C15.07088867 8.59883789 15.07088867 8.59883789 13.92773438 7.98632812 C13.14720703 7.55771484 12.36667969 7.12910156 11.5625 6.6875 C10.78583984 6.27048828 10.00917969 5.85347656 9.20898438 5.42382812 C6.04348555 3.71429517 2.996578 1.99771866 0 0 Z " fill="#528AE1" transform="translate(258,312)"/>
<path d="M0 0 C4.8998928 0.50688546 9.44356134 0.9996123 14 3 C14.33 3.99 14.66 4.98 15 6 C12.69 6 10.38 6 8 6 C7.67 4.68 7.34 3.36 7 2 C5.02 2 3.04 2 1 2 C0.67 1.34 0.34 0.68 0 0 Z " fill="#158CFD" transform="translate(329,508)"/>
<path d="M0 0 C6.41991126 0.57065878 12.01589463 2.67344909 18 5 C18 5.33 18 5.66 18 6 C16.02 6 14.04 6 12 6 C12 5.34 12 4.68 12 4 C9.02148438 4.04882812 9.02148438 4.04882812 6.04296875 4.09765625 C4 4 4 4 1 3 C0.67 2.01 0.34 1.02 0 0 Z " fill="#1F66F9" transform="translate(245,483)"/>
<path d="M0 0 C4.14298667 0.59834725 7.18194377 2.00664285 10.8125 4.0625 C11.78832031 4.61035156 12.76414062 5.15820312 13.76953125 5.72265625 C14.50558594 6.14417969 15.24164063 6.56570312 16 7 C16 7.99 16 8.98 16 10 C14.02 9.34 12.04 8.68 10 8 C10 7.01 10 6.02 10 5 C8.9171875 4.8453125 8.9171875 4.8453125 7.8125 4.6875 C4.74061475 3.93659472 2.59814146 2.78158272 0 1 C0 0.67 0 0.34 0 0 Z " fill="#295ECC" transform="translate(288,177)"/>
<path d="M0 0 C0.99 0 1.98 0 3 0 C3.33 1.98 3.66 3.96 4 6 C4.66 6 5.32 6 6 6 C7.59138085 10.17737474 8.21278058 13.53160785 8 18 C7.73445313 17.46632812 7.46890625 16.93265625 7.1953125 16.3828125 C6.30233846 14.60270086 5.39971549 12.82742353 4.4921875 11.0546875 C3.95851563 10.00539062 3.42484375 8.95609375 2.875 7.875 C2.33617187 6.82054687 1.79734375 5.76609375 1.2421875 4.6796875 C0 2 0 2 0 0 Z " fill="#D3E5F6" transform="translate(313,168)"/>
<path d="M0 0 C0.99 0.33 1.98 0.66 3 1 C0.36 6.28 -2.28 11.56 -5 17 C-6.10191901 12.59232396 -5.58706842 11.1077065 -4 7 C-3.67 7 -3.34 7 -3 7 C-2.690625 6.030625 -2.38125 5.06125 -2.0625 4.0625 C-1 1 -1 1 0 0 Z " fill="#356CDA" transform="translate(158,153)"/>
<path d="M0 0 C5.44876003 1.72066106 10.71169451 3.84705349 16 6 C16 6.66 16 7.32 16 8 C9.96321355 7.62270085 5.77579991 5.73910188 1 2 C0.67 1.34 0.34 0.68 0 0 Z " fill="#B2E8F9" transform="translate(155,412)"/>
<path d="M0 0 C4.54805635 -0.17835515 7.8794254 0.00214565 12 2 C10.75 3.5625 10.75 3.5625 9 5 C5.828368 4.6828368 2.92969949 3.22070812 0 2 C0 1.34 0 0.68 0 0 Z " fill="#255AE1" transform="translate(259,129)"/>
<path d="M0 0 C0.99 0 1.98 0 3 0 C3.33 0.66 3.66 1.32 4 2 C4.99 2 5.98 2 7 2 C7 2.99 7 3.98 7 5 C7.66 5.33 8.32 5.66 9 6 C5.95205066 6.93131785 4.57949326 7.29757762 1.6875 5.8125 C0 4 0 4 0 0 Z " fill="#1F58D6" transform="translate(328,263)"/>
<path d="M0 0 C0.66 0.33 1.32 0.66 2 1 C0.90033225 2.29549899 -0.20491801 3.58626071 -1.3125 4.875 C-1.92738281 5.59429687 -2.54226562 6.31359375 -3.17578125 7.0546875 C-5 9 -5 9 -8 11 C-8.99 10.67 -9.98 10.34 -11 10 C-9.71034824 8.62437146 -8.37310707 7.29233607 -7 6 C-6.34 6 -5.68 6 -5 6 C-4.67 5.01 -4.34 4.02 -4 3 C-1.9375 1.3125 -1.9375 1.3125 0 0 Z " fill="#CDE1F5" transform="translate(181,148)"/>
<path d="M0 0 C-6.41125631 2.54239475 -12.02337448 4.20519487 -19 4 C-16.37412094 1.37412094 -14.22718377 1.14221649 -10.625 0.3125 C-9.48289062 0.04050781 -8.34078125 -0.23148437 -7.1640625 -0.51171875 C-4.27019132 -0.95830381 -2.70183009 -0.99155833 0 0 Z " fill="#3CA9F0" transform="translate(293,446)"/>
<path d="M0 0 C0.33 0.66 0.66 1.32 1 2 C-1.52128009 7.445965 -3.8090199 10.05057949 -9 13 C-7.47987323 7.59510481 -3.72614782 4.01507372 0 0 Z " fill="#B6E5F6" transform="translate(171,367)"/>
<path d="M0 0 C2.6486859 3.19668988 4.93992341 6.39486597 7 10 C3.2089881 8.55049545 -0.3874638 6.84827434 -4 5 C-2.68 4.67 -1.36 4.34 0 4 C0 2.68 0 1.36 0 0 Z " fill="#C6E4F7" transform="translate(204,278)"/>
<path d="M0 0 C1.5843317 0.08768248 3.16753567 0.19587329 4.75 0.3125 C6.07257813 0.39951172 6.07257813 0.39951172 7.421875 0.48828125 C10.32303774 1.0641181 11.79225607 2.07596148 14 4 C13.67 4.66 13.34 5.32 13 6 C11.58034858 5.57228451 10.1643776 5.13234457 8.75 4.6875 C7.96109375 4.44386719 7.1721875 4.20023438 6.359375 3.94921875 C3.87302768 2.94891677 2.0657166 1.69142391 0 0 Z " fill="#3471DB" transform="translate(282,243)"/>
<path d="M0 0 C-2.03608174 0.70386802 -4.07919024 1.38742855 -6.125 2.0625 C-7.26195312 2.44535156 -8.39890625 2.82820313 -9.5703125 3.22265625 C-13.15110354 4.03424784 -15.46255777 3.85479227 -19 3 C-15.88069175 1.2564244 -13.00889549 0.45354822 -9.5 -0.1875 C-8.5615625 -0.36667969 -7.623125 -0.54585938 -6.65625 -0.73046875 C-4.08888646 -0.99098064 -2.42584742 -0.80670869 0 0 Z " fill="#C8DEF5" transform="translate(246,102)"/>
<path d="M0 0 C0.66 0.33 1.32 0.66 2 1 C-2.82029598 6.78435518 -2.82029598 6.78435518 -6.1796875 7.3984375 C-8.375 7.375 -8.375 7.375 -12 7 C-9.5129261 5.34195074 -7.02682498 3.80125522 -4.4375 2.3125 C-3.65246094 1.85488281 -2.86742187 1.39726562 -2.05859375 0.92578125 C-1.37925781 0.62027344 -0.69992188 0.31476563 0 0 Z " fill="#DFF5F8" transform="translate(254,409)"/>
<path d="M0 0 C0.33 0 0.66 0 1 0 C1 6.6 1 13.2 1 20 C-2.28853453 15.6152873 -2.47648497 15.14603768 -2 10 C-1.41289278 6.64796904 -0.73540385 3.32244953 0 0 Z " fill="#4C89DD" transform="translate(322,388)"/>
<path d="M0 0 C0.66 0 1.32 0 2 0 C2 1.65 2 3.3 2 5 C2.66 5 3.32 5 4 5 C4.66 7.97 5.32 10.94 6 14 C2 12 2 12 0.75 8.6875 C0.12822683 5.6304486 -0.18747934 3.09340906 0 0 Z " fill="#2F7EE8" transform="translate(204,270)"/>
<path d="M0 0 C0.33 0 0.66 0 1 0 C1.33 5.28 1.66 10.56 2 16 C2.99 16.33 3.98 16.66 5 17 C4.34 18.32 3.68 19.64 3 21 C0.20558799 16.29130574 -0.39036978 12.49324646 -0.1875 7.125 C-0.17396484 6.43664062 -0.16042969 5.74828125 -0.14648438 5.0390625 C-0.1114837 3.35902999 -0.05768954 1.6794065 0 0 Z " fill="#3E77DA" transform="translate(228,191)"/>
<path d="M0 0 C0.66 0.99 1.32 1.98 2 3 C0.93106782 4.03590338 -0.15578488 5.05333942 -1.25 6.0625 C-2.15492188 6.91521484 -2.15492188 6.91521484 -3.078125 7.78515625 C-3.71234375 8.18605469 -4.3465625 8.58695312 -5 9 C-6.32 8.67 -7.64 8.34 -9 8 C-6.03 5.36 -3.06 2.72 0 0 Z " fill="#4F87DB" transform="translate(346,415)"/>
<path d="M0 0 C0.66 0 1.32 0 2 0 C2.66 1.98 3.32 3.96 4 6 C4.66 5.67 5.32 5.34 6 5 C6 6.32 6 7.64 6 9 C5.34 9 4.68 9 4 9 C4 10.32 4 11.64 4 13 C3.34 13 2.68 13 2 13 C1.34 8.71 0.68 4.42 0 0 Z " fill="#4784E9" transform="translate(313,375)"/>
<path d="M0 0 C0.99 0.33 1.98 0.66 3 1 C3.6875 3.0625 3.6875 3.0625 4 5 C3.01 5 2.02 5 1 5 C1 7.64 1 10.28 1 13 C-1.33061852 9.50407222 -1.70295038 7.15869464 -2 3 C-1.34 2.01 -0.68 1.02 0 0 Z " fill="#417CDA" transform="translate(312,361)"/>
<path d="M0 0 C3.36591866 1.44253657 5.51047079 3.33264727 8 6 C4.37 5.67 0.74 5.34 -3 5 C-1 1 -1 1 0 0 Z " fill="#DAF7FA" transform="translate(187,347)"/>
<path d="M0 0 C1.65 0 3.3 0 5 0 C3.03681826 3.53372712 0.95929119 6.24479785 -2 9 C-2.66 8.67 -3.32 8.34 -4 8 C-2.68 5.36 -1.36 2.72 0 0 Z " fill="#28ABEC" transform="translate(171,361)"/>
<path d="M0 0 C0.77064973 2.63026104 1.04067854 3.833218 0.375 6.5625 C-1.29402218 9.52122114 -2.99958243 10.49979122 -6 12 C-5.54300722 6.97307937 -3.00758252 3.85103739 0 0 Z " fill="#3C70D9" transform="translate(160,161)"/>
<path d="M0 0 C1.64085819 0.23929182 3.28161696 0.47928463 4.921875 0.72265625 C6.32406151 0.90979016 7.73118064 1.06271075 9.140625 1.18359375 C14.58766343 1.67786205 14.58766343 1.67786205 17 3.5625 C17.33 4.036875 17.66 4.51125 18 5 C12.99109914 4.38487182 7.99367864 3.7282448 3 3 C3 2.34 3 1.68 3 1 C2.01 0.67 1.02 0.34 0 0 Z " fill="#2E5DF7" transform="translate(291,500)"/>
<path d="M0 0 C3.3 0.99 6.6 1.98 10 3 C10 3.66 10 4.32 10 5 C7.03 5 4.06 5 1 5 C0.34 3.68 -0.32 2.36 -1 1 C-0.67 0.67 -0.34 0.34 0 0 Z " fill="#15A0FD" transform="translate(271,486)"/>
<path d="M0 0 C0.598125 0.61875 1.19625 1.2375 1.8125 1.875 C4.00811144 4.13676954 4.00811144 4.13676954 7 6 C6.67 6.99 6.34 7.98 6 9 C2.63820226 7.55922954 0.40843732 5.75249979 -2 3 C-2 2.34 -2 1.68 -2 1 C-1.34 0.67 -0.68 0.34 0 0 Z " fill="#3B6ED8" transform="translate(347,277)"/>
<path d="M0 0 C0.66 0 1.32 0 2 0 C1.71572583 1.58467728 1.42225182 3.1677057 1.125 4.75 C0.88136719 6.07257813 0.88136719 6.07257813 0.6328125 7.421875 C0.03203736 9.86947744 -0.77997117 11.80599857 -2 14 C-2.05410687 12.22950311 -2.09284119 10.45853151 -2.125 8.6875 C-2.14820313 7.70136719 -2.17140625 6.71523437 -2.1953125 5.69921875 C-2 3 -2 3 0 0 Z " fill="#2F72DD" transform="translate(150,191)"/>
<path d="M0 0 C2.97 0 5.94 0 9 0 C9 1.98 9 3.96 9 6 C8.67 5.34 8.34 4.68 8 4 C6.35 4 4.7 4 3 4 C3 3.34 3 2.68 3 2 C2.01 2 1.02 2 0 2 C0 1.34 0 0.68 0 0 Z " fill="#246DFE" transform="translate(344,515)"/>
<path d="M0 0 C1.32 1.32 2.64 2.64 4 4 C3.67 4.66 3.34 5.32 3 6 C0.03 5.505 0.03 5.505 -3 5 C-3 3.68 -3 2.36 -3 1 C-2.01 0.67 -1.02 0.34 0 0 Z " fill="#134FD4" transform="translate(282,138)"/>
<path d="M0 0 C-1 1 -1 1 -4.375 1.4375 C-8.08510547 1.75300217 -8.08510547 1.75300217 -11 4 C-13.33199388 4.07905064 -15.66832622 4.08798769 -18 4 C-15.07089056 2.04726038 -12.91867709 1.24603637 -9.5625 0.3125 C-8.61503906 0.04050781 -7.66757813 -0.23148438 -6.69140625 -0.51171875 C-4.01081763 -0.99803744 -2.53712417 -0.89369149 0 0 Z " fill="#C7E5F9" transform="translate(222,132)"/>
<path d="M0 0 C3.79049707 1.42749981 7.27122456 3.16236542 10.8125 5.125 C12.27623047 5.93324219 12.27623047 5.93324219 13.76953125 6.7578125 C14.50558594 7.16773438 15.24164063 7.57765625 16 8 C12.2890625 9.140625 12.2890625 9.140625 9.6875 7.875 C8.800625 7.25625 7.91375 6.6375 7 6 C6.38125 5.5771875 5.7625 5.154375 5.125 4.71875 C3.39062314 3.51587573 1.69251796 2.26109181 0 1 C0 0.67 0 0.34 0 0 Z " fill="#478EEB" transform="translate(193,279)"/>
<path d="M0 0 C4.875 1.875 4.875 1.875 6 3 C6.61317388 8.27329537 5.16733542 10.84287226 2 15 C1.34 14.67 0.68 14.34 0 14 C0.639375 13.0925 1.27875 12.185 1.9375 11.25 C3.61428953 8.60778619 4.53689998 7.0101501 5 4 C4.360625 3.71125 3.72125 3.4225 3.0625 3.125 C1 2 1 2 0 0 Z " fill="#1B53D5" transform="translate(362,136)"/>
<path d="M0 0 C1.62490954 -0.02698189 3.24994633 -0.04638757 4.875 -0.0625 C5.77992188 -0.07410156 6.68484375 -0.08570312 7.6171875 -0.09765625 C10 0 10 0 12 1 C12 1.66 12 2.32 12 3 C7.48382401 3.07654536 3.40914783 3.10228696 -1 2 C-0.67 1.34 -0.34 0.68 0 0 Z " fill="#285ED5" transform="translate(284,100)"/>
<path d="M0 0 C2.75 -0.25 2.75 -0.25 6 0 C8.375 2 8.375 2 10 4 C6.05272412 4.17942163 3.4019487 4.09350689 0 2 C0 1.34 0 0.68 0 0 Z " fill="#1778F7" transform="translate(320,506)"/>
<path d="M0 0 C5.78898419 -0.20674944 10.42932723 0.40837921 16 2 C16 2.33 16 2.66 16 3 C14.08404032 3.08133791 12.16708068 3.13934367 10.25 3.1875 C8.64898437 3.23970703 8.64898437 3.23970703 7.015625 3.29296875 C3.69972145 2.97082786 2.40983327 2.22851086 0 0 Z " fill="#189DFE" transform="translate(304,499)"/>
<path d="M0 0 C1.46067199 0.45082469 2.91848032 0.91093537 4.375 1.375 C5.18710937 1.63023437 5.99921875 1.88546875 6.8359375 2.1484375 C9 3 9 3 11 5 C8.5332355 5.88336837 7.36140628 6.1312406 4.859375 5.22265625 C4.16328125 4.83980469 3.4671875 4.45695312 2.75 4.0625 C2.04359375 3.68222656 1.3371875 3.30195313 0.609375 2.91015625 C0.07828125 2.60980469 -0.4528125 2.30945313 -1 2 C-0.67 1.34 -0.34 0.68 0 0 Z " fill="#DEEAF6" transform="translate(253,306)"/>
<path d="M0 0 C4.875 0.875 4.875 0.875 6 2 C8.03039402 1.96777152 10.06128092 1.93188381 12.08984375 1.83984375 C14 2 14 2 16 4 C14.27119018 4.05449838 12.54187288 4.09301688 10.8125 4.125 C9.84957031 4.14820313 8.88664062 4.17140625 7.89453125 4.1953125 C4.87187222 3.9913544 2.73230015 3.26874632 0 2 C0 1.34 0 0.68 0 0 Z " fill="#10A3FC" transform="translate(254,479)"/>
<path d="M0 0 C8.57142857 0.85714286 8.57142857 0.85714286 12 3 C8.65367153 4.11544282 7.36086161 3.67217232 4 3 C3.01 3.33 2.02 3.66 1 4 C0.67 2.68 0.34 1.36 0 0 Z " fill="#20B7F0" transform="translate(205,441)"/>
<path d="M0 0 C4.29 0 8.58 0 13 0 C13 0.99 13 1.98 13 3 C9.72782865 3 7.37445544 2.73516599 4.25 2 C3.45078125 1.814375 2.6515625 1.62875 1.828125 1.4375 C1.22484375 1.293125 0.6215625 1.14875 0 1 C0 0.67 0 0.34 0 0 Z " fill="#1493FC" transform="translate(352,514)"/>
<path d="M0 0 C0.33 0 0.66 0 1 0 C1 1.98 1 3.96 1 6 C1.99 6.33 2.98 6.66 4 7 C1.625 8.5625 1.625 8.5625 -1 10 C-1.66 9.67 -2.32 9.34 -3 9 C-2.01 6.03 -1.02 3.06 0 0 Z " fill="#D1EEF8" transform="translate(319,426)"/>
<path d="M0 0 C0.33 0.66 0.66 1.32 1 2 C0.525625 2.5775 0.05125 3.155 -0.4375 3.75 C-1.9484867 5.92582084 -2.54036151 7.42602448 -3 10 C-4.65 10.33 -6.3 10.66 -8 11 C-7.59007812 10.45730469 -7.18015625 9.91460937 -6.7578125 9.35546875 C-6.21898437 8.64003906 -5.68015625 7.92460937 -5.125 7.1875 C-4.59132813 6.47980469 -4.05765625 5.77210938 -3.5078125 5.04296875 C-2.29185219 3.39543703 -1.13583859 1.70375789 0 0 Z " fill="#508CE2" transform="translate(359,400)"/>
<path d="M0 0 C0.66 0 1.32 0 2 0 C1.45660208 4.56454251 0.20536179 7.9728176 -2 12 C-2.66 12 -3.32 12 -4 12 C-2.66666667 8 -1.33333333 4 0 0 Z " fill="#558FE9" transform="translate(372,374)"/>
<path d="M0 0 C1.32 0.66 2.64 1.32 4 2 C4 2.66 4 3.32 4 4 C3.01 4.33 2.02 4.66 1 5 C0.67 5.66 0.34 6.32 0 7 C-2.475 6.01 -2.475 6.01 -5 5 C-4.67 4.34 -4.34 3.68 -4 3 C-3.01 3 -2.02 3 -1 3 C-0.67 2.01 -0.34 1.02 0 0 Z " fill="#2960D2" transform="translate(278,135)"/>
<path d="M0 0 C0.33 0.66 0.66 1.32 1 2 C-2.63 2 -6.26 2 -10 2 C-10 1.34 -10 0.68 -10 0 C-6.26840331 -1.24386556 -3.81984796 -0.77811718 0 0 Z " fill="#1D6DFD" transform="translate(246,480)"/>
<path d="M0 0 C2.99324263 1.0975223 3.84610901 1.67682892 5.25 4.625 C5.4975 5.40875 5.745 6.1925 6 7 C3.69 6.34 1.38 5.68 -1 5 C-0.67 3.35 -0.34 1.7 0 0 Z " fill="#C6E3F7" transform="translate(298,349)"/>
<path d="M0 0 C1 3 1 3 1 5 C0.34 5 -0.32 5 -1 5 C-1.66 6.32 -2.32 7.64 -3 9 C-3.99 8.67 -4.98 8.34 -6 8 C-4.02 5.36 -2.04 2.72 0 0 Z " fill="#326DCE" transform="translate(342,173)"/>
<path d="M0 0 C0 3.65351863 -0.88942301 5.06026776 -3 8 C-5.1875 9.3125 -5.1875 9.3125 -7 10 C-2.85714286 2.42857143 -2.85714286 2.42857143 0 0 Z " fill="#2E6AD5" transform="translate(350,163)"/>
<path d="M0 0 C6.4 -0.49230769 6.4 -0.49230769 9.4375 2 C10.2109375 2.99 10.2109375 2.99 11 4 C10.01 4.495 10.01 4.495 9 5 C6.8359375 4.22265625 6.8359375 4.22265625 4.375 3.0625 C3.55773437 2.68222656 2.74046875 2.30195313 1.8984375 1.91015625 C1.27195312 1.60980469 0.64546875 1.30945313 0 1 C0 0.67 0 0.34 0 0 Z " fill="#5786D7" transform="translate(258,133)"/>
<path d="M0 0 C0.33 0 0.66 0 1 0 C1.24867947 2.60364409 1.47457902 5.20589894 1.6875 7.8125 C1.79674805 8.91948242 1.79674805 8.91948242 1.90820312 10.04882812 C2.07421875 12.20703125 2.07421875 12.20703125 2 16 C1.01 16.99 0.02 17.98 -1 19 C-0.67 12.73 -0.34 6.46 0 0 Z " fill="#6A9EE9" transform="translate(376,344)"/>
<path d="M0 0 C4.28806873 0.47645208 6.26647487 1.65902484 9 5 C9 5.66 9 6.32 9 7 C5.18315774 5.44499019 2.80804268 2.96404505 0 0 Z " fill="#3C9CE5" transform="translate(189,347)"/>
<path d="M0 0 C0.66 0.33 1.32 0.66 2 1 C1.34 2.32 0.68 3.64 0 5 C-0.33 4.01 -0.66 3.02 -1 2 C-0.67 1.34 -0.34 0.68 0 0 Z M-3 0 C-2.67 0.66 -2.34 1.32 -2 2 C-2.33 2.66 -2.66 3.32 -3 4 C-2.34 4.33 -1.68 4.66 -1 5 C-1.66 5.66 -2.32 6.32 -3 7 C-5 4 -5 4 -5 1 C-4.34 0.67 -3.68 0.34 -3 0 Z " fill="#2C62DD" transform="translate(308,162)"/>
<path d="M0 0 C2.875 -0.125 2.875 -0.125 6 0 C6.66 0.66 7.32 1.32 8 2 C7.67 2.99 7.34 3.98 7 5 C3.34683329 3.75023244 2.21934164 3.32901247 0 0 Z " fill="#175AD2" transform="translate(351,128)"/>
<path d="M0 0 C0.66 0.33 1.32 0.66 2 1 C0.02 3.31 -1.96 5.62 -4 8 C-5.32 7.67 -6.64 7.34 -8 7 C-5.36 4.69 -2.72 2.38 0 0 Z " fill="#55A1EA" transform="translate(265,392)"/>
<path d="M0 0 C0.66 0.33 1.32 0.66 2 1 C-0.31 3.97 -2.62 6.94 -5 10 C-5.33 8.68 -5.66 7.36 -6 6 C-4.78515625 4.296875 -4.78515625 4.296875 -3.0625 2.75 C-2.21365234 1.96882813 -2.21365234 1.96882813 -1.34765625 1.171875 C-0.90292969 0.78515625 -0.45820313 0.3984375 0 0 Z " fill="#22ADEE" transform="translate(166,371)"/>
<path d="M0 0 C3.96 0.33 7.92 0.66 12 1 C12.33 1.99 12.66 2.98 13 4 C11.58194169 3.71517632 10.16559621 3.42181856 8.75 3.125 C7.96109375 2.96257812 7.1721875 2.80015625 6.359375 2.6328125 C4 2 4 2 0 0 Z " fill="#469EEA" transform="translate(230,372)"/>
<path d="M0 0 C1.80411967 2.75924185 2.0127245 3.88972103 1.625 7.25 C1.41875 8.1575 1.2125 9.065 1 10 C-1 7 -1 7 -1 5 C-1.66 4.67 -2.32 4.34 -3 4 C-2.01 2.68 -1.02 1.36 0 0 Z " fill="#3770D9" transform="translate(214,192)"/>
<path d="M0 0 C0.66 0.99 1.32 1.98 2 3 C0.35 5.97 -1.3 8.94 -3 12 C-4.21386936 8.35839192 -3.6674695 7.66834531 -2.0625 4.3125 C-1.49208984 3.10013672 -1.49208984 3.10013672 -0.91015625 1.86328125 C-0.60980469 1.24839844 -0.30945313 0.63351563 0 0 Z " fill="#ABD4F8" transform="translate(155,164)"/>
<path d="M0 0 C0 0.66 0 1.32 0 2 C-1.65 2.66 -3.3 3.32 -5 4 C-5 4.66 -5 5.32 -5 6 C-6.32 6 -7.64 6 -9 6 C-9 5.34 -9 4.68 -9 4 C-2.25 0 -2.25 0 0 0 Z " fill="#4693DC" transform="translate(325,432)"/>
<path d="M0 0 C3.72940389 1.24313463 4.84656811 2.76985216 7 6 C6.67 6.99 6.34 7.98 6 9 C4.99406757 7.8803014 3.9954151 6.7540588 3 5.625 C2.443125 4.99851562 1.88625 4.37203125 1.3125 3.7265625 C0 2 0 2 0 0 Z " fill="#1F55C2" transform="translate(353,285)"/>
<path d="M0 0 C1.2065625 0.0309375 1.2065625 0.0309375 2.4375 0.0625 C2.1075 1.0525 1.7775 2.0425 1.4375 3.0625 C-0.2125 3.3925 -1.8625 3.7225 -3.5625 4.0625 C-3.5625 0.08689024 -3.5625 0.08689024 0 0 Z " fill="#2662E8" transform="translate(210.5625,128.9375)"/>
<path d="M0 0 C1.32 1.65 2.64 3.3 4 5 C2.1875 6.0625 2.1875 6.0625 0 7 C-0.99 6.67 -1.98 6.34 -3 6 C-2.01 4.02 -1.02 2.04 0 0 Z " fill="#4DA0ED" transform="translate(309,434)"/>
<path d="M0 0 C0.99 0.33 1.98 0.66 3 1 C2.34 2.32 1.68 3.64 1 5 C-0.32 4.67 -1.64 4.34 -3 4 C-2.01 2.68 -1.02 1.36 0 0 Z " fill="#3987E1" transform="translate(276,371)"/>
<path d="M0 0 C2.5 2.3125 2.5 2.3125 5 5 C5 5.99 5 6.98 5 8 C3.68 7.01 2.36 6.02 1 5 C0.67 5.66 0.34 6.32 0 7 C0 4.69 0 2.38 0 0 Z " fill="#5088E7" transform="translate(304,345)"/>
<path d="M0 0 C2.75 -0.25 2.75 -0.25 6 0 C8.375 2 8.375 2 10 4 C6.7 3.34 3.4 2.68 0 2 C0 1.34 0 0.68 0 0 Z " fill="#396BD2" transform="translate(300,104)"/>
<path d="M0 0 C1.32 0 2.64 0 4 0 C4 0.66 4 1.32 4 2 C3.34 2 2.68 2 2 2 C2 2.66 2 3.32 2 4 C0.35 4 -1.3 4 -3 4 C-3 3.34 -3 2.68 -3 2 C-2.01 2 -1.02 2 0 2 C0 1.34 0 0.68 0 0 Z " fill="#138EFD" transform="translate(228,468)"/>
<path d="M0 0 C0 0.66 0 1.32 0 2 C-2.375 3.6875 -2.375 3.6875 -5 5 C-5.66 4.67 -6.32 4.34 -7 4 C-6.67 3.01 -6.34 2.02 -6 1 C-3.90006779 0.25486277 -2.22568901 0 0 0 Z " fill="#238BF9" transform="translate(329,433)"/>
<path d="M0 0 C1.4800841 0.11362262 2.95910074 0.24122908 4.4375 0.375 C5.26121094 0.44460938 6.08492187 0.51421875 6.93359375 0.5859375 C7.95646484 0.79089844 7.95646484 0.79089844 9 1 C9.33 1.66 9.66 2.32 10 3 C4.58461538 3.36923077 4.58461538 3.36923077 1.625 1.5 C1.08875 1.005 0.5525 0.51 0 0 Z " fill="#CDF1FC" transform="translate(183,422)"/>
<path d="M0 0 C5.75 1.625 5.75 1.625 8 5 C7.01 5.495 7.01 5.495 6 6 C5.01 5.67 4.02 5.34 3 5 C3 4.01 3 3.02 3 2 C2.01 1.67 1.02 1.34 0 1 C0 0.67 0 0.34 0 0 Z " fill="#31A9F3" transform="translate(160,417)"/>
<path d="M0 0 C0.66 0 1.32 0 2 0 C0.55746343 3.36591866 -1.33264727 5.51047079 -4 8 C-4 6.35 -4 4.7 -4 3 C-3.01 2.67 -2.02 2.34 -1 2 C-0.67 1.34 -0.34 0.68 0 0 Z " fill="#38A3E9" transform="translate(180,353)"/>
<path d="M0 0 C2 3 2 3 1.625 5.1875 C1.41875 5.785625 1.2125 6.38375 1 7 C-0.65 5.68 -2.3 4.36 -4 3 C-3.01 2.67 -2.02 2.34 -1 2 C-0.67 1.34 -0.34 0.68 0 0 Z " fill="#C6DDF6" transform="translate(313,184)"/>
<path d="M0 0 C1.65 0 3.3 0 5 0 C5.33 0.99 5.66 1.98 6 3 C4.02 3 2.04 3 0 3 C0 2.01 0 1.02 0 0 Z " fill="#3753FF" transform="translate(340,518)"/>
<path d="M0 0 C0 3.90838866 -1.50567876 5.11594107 -4 8 C-4.33 7.01 -4.66 6.02 -5 5 C-3.35 3.35 -1.7 1.7 0 0 Z " fill="#4C90E4" transform="translate(289,371)"/>
<path d="M0 0 C0.66 0.33 1.32 0.66 2 1 C2 2.65 2 4.3 2 6 C0.02 5.34 -1.96 4.68 -4 4 C-2.68 2.68 -1.36 1.36 0 0 Z " fill="#407BE9" transform="translate(254,225)"/>
<path d="M0 0 C0.99 0 1.98 0 3 0 C3.33 2.31 3.66 4.62 4 7 C1.49962266 4.82575883 0.56371414 3.26954202 0 0 Z " fill="#E0EEFC" transform="translate(313,168)"/>
<path d="M0 0 C1.32 0.33 2.64 0.66 4 1 C3.1875 2.9375 3.1875 2.9375 2 5 C1.01 5.33 0.02 5.66 -1 6 C-1.33 5.34 -1.66 4.68 -2 4 C-1.34 4 -0.68 4 0 4 C0 2.68 0 1.36 0 0 Z " fill="#2458DF" transform="translate(290,145)"/>
<path d="M0 0 C1.2065625 0.0309375 1.2065625 0.0309375 2.4375 0.0625 C-0.25091859 2.31495881 -2.20891875 3.94463958 -5.5625 5.0625 C-3.15007962 0.07683121 -3.15007962 0.07683121 0 0 Z " fill="#3D77DC" transform="translate(197.5625,115.9375)"/>
<path d="M0 0 C2.97 0.495 2.97 0.495 6 1 C5.67 1.99 5.34 2.98 5 4 C4.01 3.67 3.02 3.34 2 3 C2 2.34 2 1.68 2 1 C1.34 0.67 0.68 0.34 0 0 Z M0 4 C0.33 4.66 0.66 5.32 1 6 C0.34 5.67 -0.32 5.34 -1 5 C-0.67 4.67 -0.34 4.34 0 4 Z " fill="#185ADA" transform="translate(209,105)"/>
</svg>
